<svg xmlns="http://www.w3.org/2000/svg" xmlns:xlink="http://www.w3.org/1999/xlink" preserveAspectRatio="xMidYMid meet" version="1.0" viewBox="-1.0 0.0 450.1 217.2" zoomAndPan="magnify" style="fill: rgb(0, 0, 0);" original_string_length="15748" width="308.6392119769079px" height="148.70798395251018px"><g id="__id558_syj4yglxo9"><path d="M447.254,59.567c-3.105,1.591-6.616,2.164-10.061,2.715-5.157.826-10.39,1.655-15.582,1.082-4.85-.534-9.475-2.27-14.04-3.992-2.537-.957-5.243-2.046-6.068-4.5-1.01,7.5-.721,15.13-1.62,22.647s-3.165,15.2-8.4,20.671c-2.028,2.117-4.542,3.978-5.525,6.741a17.748,17.748,0,0,0-.69,4.072,23.462,23.462,0,0,1-3.89,11.255,13.86,13.86,0,0,1-5.429,4.538,14.353,14.353,0,0,1-4.92,2.341,34.731,34.731,0,0,1-1.571,9.307c6.74,1.5,9.381,9.459,13.92,14.661,3.305,3.789,7.848,6.222,11.931,9.156s7.972,6.789,8.845,11.74a14.881,14.881,0,0,1-3.047,11.218,28.489,28.489,0,0,1-9.163,7.535,55.088,55.088,0,0,1-33.754,6.307c.762,6.945-4.217,13.58-10.517,16.6s-13.611,3.077-20.554,2.294-13.827-2.34-20.814-2.33c-6.56.009-13.03,1.4-19.55,2.13-3.058.342-6.132.524-9.208.573-.041.107-.078.213-.119.32a77.029,77.029,0,0,1-24.406-2.247c-2.694-.693-5.652-1.787-6.8-4.32-.991-2.188-.263-4.818,1.08-6.81a46.717,46.717,0,0,1,4.867-5.3c1.566-1.686,2.912-3.578,4.369-5.358.1-.177.207-.356.3-.531-8.851,2.127-18.064,2.053-27.166,1.905-11.595-.188-23.182-.473-34.36-.417a54.1,54.1,0,0,1-2.883,7.081,41.638,41.638,0,0,1-5.517,9.464c-.427,0-.854-.022-1.28-.039-.08.076-.153.158-.234.233a8.874,8.874,0,0,1-4.2,2.474A7.109,7.109,0,0,1,175,210.414a14.833,14.833,0,0,1-2.944-4.908c-.288-.2-.581-.385-.865-.6-18.05,2.225-36.816,4.378-54.063-1.39-8.237-2.755-15.879-7.255-24.338-9.228-6.405-1.494-13.085-1.489-19.5-2.955-2.925-.669-6.1-1.924-7.287-4.68a8.1,8.1,0,0,1,.108-5.716c1.365-4.067,4.474-7.515,8.982-8.047-4.206-31.02-6.541-64.729,9.261-99.526a89.154,89.154,0,0,1,9.417-16C87.7,61.761,82.759,68.463,78.857,75.015a201.5,201.5,0,0,0-21.763,51.978c-2.624,10.025-4.481,20.278-8.009,30.021s-8.938,19.139-17.25,25.327c-7.851,5.843-17.847,8.418-27.631,8.217a5.668,5.668,0,0,1-2.789-.564c-2.438-1.435-1.465-5.507.94-7s5.427-1.339,8.239-1.652c10.668-1.185,19.326-9.614,24.274-19.139s6.979-20.241,9.977-30.547c4.807-16.524,12.188-32.194,20.421-47.306C71.181,73.5,77.671,62.736,86.674,54.261A53.179,53.179,0,0,1,108.619,41.5a91.529,91.529,0,0,1,33.839-18.213c13.851-3.955,28.4-4.58,42.794-5.181,16.959-.707,34.024-1.41,50.841.891,15.5,2.12,30.662,6.777,46.289,7.455,16.56.718,33.895-2.954,49.166,3.349a3.823,3.823,0,0,0,.334-3.973,5.731,5.731,0,0,0-3.087-2.713c-.65-.261-1.474-.611-1.464-1.312.006-.481.427-.834.768-1.173.061-.06.106-.131.164-.193a21.786,21.786,0,0,1-3.965-2.723,26.684,26.684,0,0,1-6.389-6.963A11.651,11.651,0,0,1,316.52,1.62a2.482,2.482,0,0,1,.591-1.093A2.253,2.253,0,0,1,318.5.017a10.99,10.99,0,0,1,4.766,1.122,87.62,87.62,0,0,0,10.466,3.337,3.841,3.841,0,0,1,.673-1.154,2.587,2.587,0,0,1,3.713.031c15.1,1.495,30.438-.443,45.466,1.681a169.724,169.724,0,0,1,19.055,4.2,4.042,4.042,0,0,1,2.126,1.041c.526.605.543,1.711-.337,1.927-.04.148-.068.3-.1.448,3.214-.763,6.831-.435,10.161-1.017A74.4,74.4,0,0,0,422,9.453a9.068,9.068,0,0,1,3.818-.445,3.756,3.756,0,0,1,3,2.16c.613,1.592-.292,3.347-1.295,4.728-4.011,5.524-9.943,9.345-16.045,12.406-.615.309-1.242.612-1.88.881a2.237,2.237,0,0,1,.472,1.2c.081,1.626-1.9,2.382-3.327,3.175-3.295,1.84-4.648,5.805-5.733,8.951,9.406-5.618,22.006-6.825,31.157-.8,4.507,2.967,7.838,7.371,10.9,11.345l4.84,3.457a2.115,2.115,0,0,1,.808.845C449.077,58.257,448.121,59.123,447.254,59.567Z" style="fill: rgb(126, 74, 65);"/></g><g id="__id559_syj4yglxo9"><path d="M447.254,59.567c-3.105,1.591-6.616,2.164-10.061,2.715-5.157.826-10.39,1.655-15.582,1.082-4.85-.534-9.475-2.27-14.04-3.992-2.537-.957-5.243-2.046-6.068-4.5-1.01,7.5-.721,15.13-1.62,22.647s-3.165,15.2-8.4,20.671c-2.028,2.117-4.542,3.978-5.525,6.741a17.748,17.748,0,0,0-.69,4.072,23.462,23.462,0,0,1-3.89,11.255,12.572,12.572,0,0,1-10.356,5.562,33.39,33.39,0,0,1-1.564,10.624c6.74,1.5,9.381,9.459,13.92,14.661,3.305,3.789,7.848,6.222,11.931,9.156s7.972,6.789,8.845,11.74a14.881,14.881,0,0,1-3.047,11.218,28.489,28.489,0,0,1-9.163,7.535,55.088,55.088,0,0,1-33.754,6.307c.762,6.945-4.217,13.58-10.517,16.6s-13.611,3.077-20.554,2.294-13.827-2.34-20.814-2.33c-6.56.009-13.03,1.4-19.55,2.13a97.227,97.227,0,0,1-34.085-2.242c-2.578-.638-5.62-1.935-5.871-4.579-.151-1.587.821-3.038,1.748-4.334a134.3,134.3,0,0,0,8.3-12.516c-8.851,2.127-18.064,2.053-27.166,1.905-11.841-.192-23.681-.49-35.078-.417a39.478,39.478,0,0,1-7.682,16.545,25.438,25.438,0,0,1-15.729-5.211c-18.05,2.225-36.816,4.378-54.063-1.39-8.237-2.755-15.879-7.255-24.338-9.228-6.405-1.494-13.085-1.489-19.5-2.955-2.925-.669-6.1-1.924-7.287-4.68a8.1,8.1,0,0,1,.108-5.716c1.365-4.067,4.474-7.515,8.982-8.047-4.206-31.02-6.541-64.729,9.261-99.526a89.154,89.154,0,0,1,9.417-16C87.7,61.761,82.759,68.463,78.857,75.015a201.5,201.5,0,0,0-21.763,51.978c-2.624,10.025-4.481,20.278-8.009,30.021s-8.938,19.139-17.25,25.327c-7.851,5.843-17.847,8.418-27.631,8.217a5.668,5.668,0,0,1-2.789-.564c-2.438-1.435-1.465-5.507.94-7s5.427-1.339,8.239-1.652c10.668-1.185,19.326-9.614,24.274-19.139s6.979-20.241,9.977-30.547c4.807-16.524,12.188-32.194,20.421-47.306C71.181,73.5,77.671,62.736,86.674,54.261A53.179,53.179,0,0,1,108.619,41.5a91.529,91.529,0,0,1,33.839-18.213c13.851-3.955,28.4-4.58,42.794-5.181,16.959-.707,34.024-1.41,50.841.891,15.5,2.12,30.662,6.777,46.289,7.455,16.56.718,33.895-2.954,49.166,3.349a3.823,3.823,0,0,0,.334-3.973,5.731,5.731,0,0,0-3.087-2.713c-.65-.261-1.474-.611-1.464-1.312.006-.481.427-.834.768-1.173a9.463,9.463,0,0,0,1.95-3.391,63.262,63.262,0,0,0,3.118-10.677A6.637,6.637,0,0,1,334.4,3.322a2.587,2.587,0,0,1,3.713.031c15.1,1.495,30.438-.443,45.466,1.681a169.724,169.724,0,0,1,19.055,4.2,4.042,4.042,0,0,1,2.126,1.041c.526.605.543,1.711-.337,1.927a16.891,16.891,0,0,0,4.21,15.911,3.824,3.824,0,0,1,1.435,2.265c.081,1.626-1.9,2.382-3.327,3.175-3.295,1.84-4.648,5.805-5.733,8.951,9.406-5.618,22.006-6.825,31.157-.8,4.507,2.967,7.838,7.371,10.9,11.345l4.84,3.457a2.115,2.115,0,0,1,.808.845C449.077,58.257,448.121,59.123,447.254,59.567Z" style="fill: rgb(126, 74, 65);"/></g><g id="__id560_syj4yglxo9"><path d="M337.763,5.4c1.379,3.412,1.549,6.122.826,8.478a15.042,15.042,0,0,1-4,6.124,5.044,5.044,0,0,1-1.72,1.237,4.285,4.285,0,0,1-2.539-.007,16.19,16.19,0,0,1-6.028-3.518,26.684,26.684,0,0,1-6.389-6.963A11.651,11.651,0,0,1,316.52,1.62a2.482,2.482,0,0,1,.591-1.093A2.253,2.253,0,0,1,318.5.017a10.99,10.99,0,0,1,4.766,1.122A87.447,87.447,0,0,0,337.763,5.4Zm91.053,5.771a3.756,3.756,0,0,0-3-2.16A9.068,9.068,0,0,0,422,9.453a74.4,74.4,0,0,1-7.516,2.184c-4.588.8-9.724-.136-13.595,2.454-2.429,6.43-1.665,10.422.386,13.611.683,1.743,2.785,2.518,4.721,2.411a14.249,14.249,0,0,0,5.483-1.811c6.1-3.061,12.034-6.882,16.045-12.406C428.524,14.515,429.429,12.76,428.816,11.168Z" style="fill: rgb(0, 0, 0);"/></g><g id="__id561_syj4yglxo9"><path d="M380.508,110.336c-.043,1.469.327,2.919.4,4.387a12.015,12.015,0,0,1-4.02,9.305,14.74,14.74,0,0,1-9.588,3.626,25.34,25.34,0,0,1-5.734-.68,19.839,19.839,0,0,1-8.31-3.444c-3.5-2.78-5.232-7.612-2.936-13.425,1.376-.756,1.633-2.666,1.255-4.19s-1.214-2.923-1.436-4.477A6.018,6.018,0,0,1,354,95.106c3.724-1.285,7.587,1.353,11.5,1.789,2.9.322,5.776-.582,8.684-.747s6.261.72,7.512,3.351C383.292,102.845,380.616,106.632,380.508,110.336ZM174.236,51.4c-3.557-2.976-7.766-5.485-12.393-5.791s-9.662,2.118-11.217,6.487a13.783,13.783,0,0,0-.481,5.874c.56,6.15,2.881,12.271,7.224,16.661s10.842,6.816,16.879,5.516a11.161,11.161,0,0,0,3.99-1.627c3.667-2.517,4.814-7.6,3.919-11.962S180.606,56.729,174.236,51.4Zm-.651-8.1a3.527,3.527,0,0,0,2.014.284,3.037,3.037,0,0,0,2.093-3.538c-.286-1.493-1.477-2.68-3.617-4.141-1.079-.042-2.222-.534-3.189-.054-1.13.562-1.308,2.135-.962,3.348A6.414,6.414,0,0,0,173.585,43.3Zm22.167,8.052c-1.027.5-2.308.47-3.175,1.212a2.779,2.779,0,0,0-.514,3.254,4.8,4.8,0,0,0,2.654,2.222c1.562.607,3.658.515,4.534-.914a3.643,3.643,0,0,0,.382-2.284C199.487,53.425,198.645,51.826,195.752,51.355ZM96.611,87.387a7.584,7.584,0,0,0-6.09,3.286,17.206,17.206,0,0,0-2.67,6.626,17.456,17.456,0,0,0-.491,6.051,7.715,7.715,0,0,0,2.821,5.228c2.525,1.868,6.27,1.393,8.765-.515a13.62,13.62,0,0,0,4.575-8.015,12.435,12.435,0,0,0-.436-7.884C102.37,90.618,101.6,87.559,96.611,87.387Z" style="fill: rgb(253, 169, 181);"/></g><g id="__id562_syj4yglxo9"><path d="M198.862,179.853c-2.4,11.027-5.193,22.779-13.461,30.458a8.874,8.874,0,0,1-4.2,2.474A7.109,7.109,0,0,1,175,210.414a17.171,17.171,0,0,1-3.539-6.476,35.8,35.8,0,0,0,4.808-8.8c.959-2.832,1.289-5.96.346-10.647a15.619,15.619,0,0,1-1.6.084c-4.074,0-8.061-1.491-11.595-2.966-2.592-1.083-5.213-2.249-7.748-3.377a165.658,165.658,0,0,0-16.924-6.791,1.03,1.03,0,0,1-.219-.069,58.441,58.441,0,0,0-12.055-2.562,1,1,0,0,1-.9-1.089.976.976,0,0,1,1.09-.9,59.617,59.617,0,0,1,11.791,2.43,105.674,105.674,0,0,0,13.019-44.494c.661-10.642-.158-30.428-13.069-43.377a1,1,0,1,1,1.416-1.412,39.9,39.9,0,0,1,3.264,3.717,15.84,15.84,0,0,0,.183-4.608,1,1,0,0,1,1.987-.221,17.847,17.847,0,0,1-.626,6.957c8.856,13.036,9.43,29.581,8.841,39.067a107.694,107.694,0,0,1-13.075,44.991c5.5,1.828,10.848,4.2,16.092,6.536,2.525,1.123,5.135,2.285,7.706,3.359,3.746,1.563,8.022,3.145,12.182,2.739a31.448,31.448,0,0,1,5.012-5.89,32.8,32.8,0,0,1,4.726-3.158l4.364-2.564a1.379,1.379,0,0,1,.819-.269,1.027,1.027,0,0,1,.613.358,3.81,3.81,0,0,1,.658,2.825,13.832,13.832,0,0,1-1.208,5.427,15.968,15.968,0,0,1,5.79-1.977,1.991,1.991,0,0,1,1.154.085C199.13,177.748,199.059,178.943,198.862,179.853ZM352.777,54.64a3.5,3.5,0,1,0,3.5,3.5A3.5,3.5,0,0,0,352.777,54.64Zm26.554.489a3.625,3.625,0,1,0,3.625,3.625A3.625,3.625,0,0,0,379.331,55.129Zm3.916,16.2a13.907,13.907,0,0,1-6.88-2.277,44.261,44.261,0,0,1-6.023-4.754,1,1,0,0,0-1.328,1.5,45.88,45.88,0,0,0,6.3,4.963,15.87,15.87,0,0,0,7.877,2.571h.025a1,1,0,0,0,.025-2Zm-27.358,36.512a15.246,15.246,0,0,1,3.054,1.423,4.439,4.439,0,0,1,1.83,2.212,1,1,0,1,0,1.906-.605,6.4,6.4,0,0,0-2.626-3.27,16.826,16.826,0,0,0-3.453-1.63,1,1,0,0,0-.711,1.87Zm16.311,4.536a7.257,7.257,0,0,1,5.26-2.763,1,1,0,1,0-.113-2,9.285,9.285,0,0,0-6.727,3.532,1,1,0,0,0,1.58,1.227ZM310.26,39.368a.967.967,0,0,0,.265-.221,26.64,26.64,0,0,1,15.621,3.523,1,1,0,0,0,1.051-1.7,28.69,28.69,0,0,0-16.854-3.816A47.689,47.689,0,0,0,293.749,41.7a1,1,0,1,0,.829,1.82,50.272,50.272,0,0,1,12.059-3.905,12.146,12.146,0,0,0-3.36,6.064,1.574,1.574,0,0,0,.34,1.389,1.161,1.161,0,0,0,.85.367,1.29,1.29,0,0,0,.195-.015,1,1,0,0,0,.633-1.6A10.161,10.161,0,0,1,310.26,39.368ZM435.662,54.1c-1.68-2.963-4.821-5.215-9.334-6.695a34.079,34.079,0,0,0-22.753.565,1,1,0,1,0,.716,1.868,32.056,32.056,0,0,1,15.916-1.8c1.2,1.779,2.174,3.39,2.035,5.073a1,1,0,0,0,.913,1.08q.042,0,.084,0a1,1,0,0,0,1-.917,8.019,8.019,0,0,0-1.347-4.746c.948.216,1.889.474,2.817.778,4.027,1.32,6.791,3.265,8.217,5.781a1,1,0,0,0,1.741-.987ZM346.674,21.6l34.6,2.149c.021,0,.043,0,.063,0a1,1,0,0,0,.062-2l-34.6-2.149a1,1,0,0,0-.123,2Zm42.343,1.064-2.968-.37a1,1,0,0,0-.246,1.985l2.968.369a.87.87,0,0,0,.124.008,1,1,0,0,0,.122-1.992ZM327.679,97.893a1,1,0,0,0,.855-1.517,61.07,61.07,0,0,1-8.492-36.957,1,1,0,0,0-1.992-.184,63.089,63.089,0,0,0,8.773,38.176A1,1,0,0,0,327.679,97.893Zm3.456,9.964a1,1,0,0,0-.615,1.274,32.978,32.978,0,0,0,7.308,11.913,1,1,0,0,0,1.443-1.385,30.973,30.973,0,0,1-6.862-11.187A1,1,0,0,0,331.135,107.857Zm-21.406-50.38a1,1,0,0,0-1.221.714c-1.555,5.918-1.355,12.7.612,20.72.944,3.846,2.193,7.654,3.4,11.337.885,2.7,1.8,5.485,2.582,8.252.18.636.356,1.278.535,1.926,1.857,6.735,3.777,13.7,9.514,17.671a1,1,0,0,0,1.138-1.645c-5.139-3.559-6.962-10.167-8.724-16.558-.18-.651-.358-1.3-.539-1.938-.792-2.807-1.714-5.615-2.606-8.331-1.2-3.647-2.433-7.419-3.358-11.191-1.886-7.691-2.089-14.147-.621-19.735A1,1,0,0,0,309.729,57.477ZM369.94,165.863l-9.294-9.835a41.823,41.823,0,0,0,7.11-15.9,1,1,0,1,0-1.955-.416,39.832,39.832,0,0,1-9.87,18.907,1,1,0,1,0,1.461,1.367c.708-.757,1.38-1.542,2.027-2.346l8.318,8.8a17.536,17.536,0,0,0-2.354,1.305,10.7,10.7,0,0,1-2.926,1.451,10.822,10.822,0,0,1-2.88.17c-.369-.011-.743-.026-1.1-.02a6.909,6.909,0,0,0-4.3,1.2,41.776,41.776,0,0,0-7.926-12.748c-4.7-5.14-10.6-9.014-16.306-12.76l-1.54-1.013A435.172,435.172,0,0,1,283.8,110.3a23.972,23.972,0,0,1-2.175-4.118c-.432-.969-.881-1.972-1.417-2.913a16.774,16.774,0,0,0-12.483-8.224,1,1,0,1,0-.225,1.988,14.743,14.743,0,0,1,10.971,7.227c.487.855.9,1.77,1.328,2.739a24.928,24.928,0,0,0,2.444,4.562.931.931,0,0,0,.159.173,437.435,437.435,0,0,0,44.9,33.962l1.545,1.015c5.6,3.678,11.4,7.482,15.927,12.437A40.479,40.479,0,0,1,355,190.418a1,1,0,0,0,.886,1.1,1.014,1.014,0,0,0,.11.006,1,1,0,0,0,.993-.891,42.086,42.086,0,0,0-2.1-18.177.99.99,0,0,0,.3-.188,4.78,4.78,0,0,1,3.294-.922c.344,0,.692.01,1.039.019a9.572,9.572,0,0,0,6.922-1.924,11.638,11.638,0,0,1,2.731-1.4c3.3-.984,6.726,1.535,8.049,2.662a1,1,0,0,0,1.3-1.522C376.783,167.7,373.518,165.474,369.94,165.863Zm9.515-4.676a9.486,9.486,0,0,0-6.814,1.807,1,1,0,0,0,1.2,1.6,7.438,7.438,0,0,1,5.363-1.422,1,1,0,1,0,.25-1.985ZM317.936,196.01a19.062,19.062,0,0,1-11.317-9.912,1,1,0,0,0-.673-.547,39.915,39.915,0,0,1-15.307-7c-1.149-.867-2.279-1.82-3.373-2.742a42.748,42.748,0,0,0-14.716-8.75c-1.559-.653-3.172-1.329-4.711-2.057a55.826,55.826,0,0,1-25.411-24.431,1,1,0,0,0-1.771.927,57.81,57.81,0,0,0,26.327,25.31c1.58.749,3.214,1.434,4.794,2.1a40.867,40.867,0,0,1,14.2,8.435c1.113.938,2.266,1.909,3.457,2.808a41.611,41.611,0,0,0,15.585,7.233,21.11,21.11,0,0,0,12.313,10.532,1,1,0,0,0,.6-1.906Zm-18.053-7.755h-.009l-7.335.065c-9.854-3.411-14.62-4.139-19.378-3.856-4.856.289-9.785,1.71-13.491,4.861-2.913,2.474-4.9,5.848-7.5,8.648a46.717,46.717,0,0,0-4.867,5.3c-1.343,1.992-2.071,4.622-1.08,6.81,1.146,2.533,4.1,3.627,6.8,4.32a77.029,77.029,0,0,0,24.406,2.247c2.11-5.48,3.493-10.726,5.766-15.615a32.313,32.313,0,0,1,7.9-10.9.975.975,0,0,0,.558.192h.009l8.236-.073a1,1,0,0,0-.009-2ZM232.31,133.6a12.979,12.979,0,0,1,.326-6.122,1,1,0,0,0-1.928-.533,14.961,14.961,0,0,0-.356,7.065,10.35,10.35,0,0,0,3.748,6.175,1,1,0,0,0,1.211-1.591A8.471,8.471,0,0,1,232.31,133.6Zm-5.145,3.365a3.057,3.057,0,0,1-1.342-2.151,11.228,11.228,0,0,1,.05-3.192,1,1,0,1,0-1.988-.217,12.863,12.863,0,0,0-.028,3.775,4.989,4.989,0,0,0,2.339,3.535,1,1,0,0,0,.969-1.75Zm-95.358,28.85a1,1,0,0,0,.591-1.806c-3.432-2.515-7.7-5.645-12.637-6.176a1,1,0,1,0-.214,1.988c4.4.474,8.261,3.3,11.67,5.8A.987.987,0,0,0,131.807,165.818ZM332.449,23.3l.066,0a5.657,5.657,0,0,0,3.917-2.48,15.551,15.551,0,0,0,3.451-7.851,11.627,11.627,0,0,0-2.169-8.408,1,1,0,0,0-1.586,1.22A9.6,9.6,0,0,1,337.9,12.73a13.549,13.549,0,0,1-3.024,6.833,3.858,3.858,0,0,1-2.489,1.737,1,1,0,0,0,.065,2Zm72.388,8.353a1,1,0,0,0,.089-2c-1.514-.136-2.625-1.64-3.153-2.523a12.321,12.321,0,0,1,.744-13.459,1,1,0,1,0-1.594-1.208,14.365,14.365,0,0,0-.867,15.691c1.247,2.091,2.913,3.331,4.69,3.491C404.777,31.65,404.807,31.651,404.837,31.651ZM289.678,50.635c3.441,1.449,7.339,3.092,11.517,3.358q.632.041,1.262.04a42.732,42.732,0,0,0,10.465-1.77c4.772-1.219,9.286-2.367,13.651-1.142-.85,6.382-.545,12.9-.26,18.852.279,5.831.6,12.439,3.029,18.307a54.326,54.326,0,0,0,2.84,5.59,48.345,48.345,0,0,1,2.934,5.866,48.554,48.554,0,0,1,1.708,5.794c.415,1.657.843,3.372,1.417,5.032,1.1,3.191,3.269,7.381,7.334,9.23a1,1,0,0,0,.828-1.82c-3.419-1.555-5.3-5.243-6.272-8.062-.545-1.578-.963-3.25-1.367-4.865a49.819,49.819,0,0,0-1.785-6.035,49.93,49.93,0,0,0-3.05-6.115,52.306,52.306,0,0,1-2.739-5.381c-2.3-5.546-2.595-11.693-2.879-17.637-.4-8.287-.845-17.68,1.934-26.061a1,1,0,0,0-1.9-.629,41.494,41.494,0,0,0-1.466,5.944c-4.808-1.263-9.708-.018-14.454,1.2-3.663.937-7.455,1.905-11.1,1.671-3.84-.244-7.574-1.817-10.867-3.2-2.07-.873-4.473-2.132-4.683-4.137-.178-1.711,1.21-3.344,4.369-5.139l10.966-6.228a31.088,31.088,0,0,1,5.333-2.6,20.292,20.292,0,0,1,11.681.056A63.043,63.043,0,0,1,329.4,35.452a1,1,0,1,0,.888-1.792,64.624,64.624,0,0,0-11.647-4.845,22.282,22.282,0,0,0-12.838-.022,32.6,32.6,0,0,0-5.686,2.756l-10.966,6.228c-2.476,1.406-5.726,3.671-5.369,7.086C284.1,47.91,287.1,49.548,289.678,50.635Z" style="fill: inherit;"/></g></svg>