<svg xmlns="http://www.w3.org/2000/svg" xmlns:xlink="http://www.w3.org/1999/xlink" preserveAspectRatio="xMidYMid meet" version="1.2" viewBox="289.6 440.1 9530.6 7370.6" zoomAndPan="magnify" style="fill: rgb(0, 0, 0);" original_string_length="45573" width="1296.1519089770516px" height="1002.4064338547738px"><g id="__id55_spm9zlg9s"><path d="m5175.4 5934.6c0-13.1-1.9-22.1 10.8-29.9 19.5-12.1 38-4.1 58.7-8.1 11.6-2.2 20.4-8.5 31-12.7 16.2-6.3 34.6-9.7 51.4-14.4 35.8-9.9 71-21.2 107.4-29.2 13.2-2.9 26.3-8.4 39.9-9 48.2-1.8 95.4 7.8 143.9 7.9 12.2 0 26.3 2 38.3-0.3 11.4-2.2 21.7-9.5 32.9-12.6 24.9-6.9 93.6-24.3 118.5-23.3 9.5 0.4 56.2 17.1 66.1 21.4 34.4 14.8 34.9 76.2 37.8 106 2.4 24.5-3.4 84.9 4.3 103.2 39.3 93.9 92.6 181.3 105.1 284.5 1.2 9.9 1.8 20.7-1.4 30.3-4.5 13.6-27.7 43.6-40.9 49.4-10.4 4.6-31.3-0.1-42 0.5-65.1 3.8-89.2 10.9-149.3-15.9-170.4-75.8-331.8-166.3-495.2-255.7-41.4-22.6-59.6-32.4-99.1-48.8-6-2.5-32-6.9-34.3-16.9" fill-rule="evenodd" style="fill: rgb(0, 67, 105);"/></g><g id="__id56_spm9zlg9s"><path d="m5480.9 6051.5c-24.2-16.5-47-32.5-74-44.6-74.3-33.4-135.4-61-216.1-61-19.6 0-48-5-64.9 7.8-16.7 12.8-24.1 37.9-34.2 55.4-15.5 26.9-24.6 40-41.7 67-77 121.2-117.1 204.1-119.2 347.6-0.3 21.5-5.8 101.1 1.3 121.6 5.5 15.7 25 29.6 38.8 37 66.3 35.3 157.1 25.6 228.8 24.9 42.5-0.4 122.1-0.4 159.5 0.2 78.4 1.2 114.2 1.1 188.2 10.2 41.5 5.1 94.1 26 137.4 19.2 42.5-6.7 89.2-32.6 128-48 58.6-23.3 117.7-45.9 175.1-71.8 21.4-9.6 50.1-20.8 63.2-42.1 16.7-27.1 3.5-54.7-8.8-80.5-10.7-22.4-44.5-100-62.6-113.8-13.3-10.2-43.7-15.3-60.9-27.4" fill-rule="evenodd" style="fill: rgb(0, 67, 105);"/></g><g id="__id57_spm9zlg9s"><path d="m5876.2 5923.5c11.5-26.1 30.1-47.3 49.6-67.8 16.9-17.8 36.7-41.4 58.6-53.1 10.7-5.7 21.4-6.6 32.9-9.4 18.2-4.4 35.8-12.7 54.5-15 21.8-2.6 44.3 1.2 66.3-0.4 21.5-1.7 42.3-6.4 64.2-8.2 38.4-3.2 78.6 1 116.7-6.1 29.9-5.6 58.6-18.5 86.7-29.7 18.5-7.4 38.2-10.7 57.5-15.3 41.5-9.9 61.2-32 107.5-30.2 12.5 0.5 37.1 3.7 42.9 17.7 7.4 17.8-16.7 46.6-23.1 62.8-1.2 3.1-8.6 21.6-3.4 24.7 22 12.9 43.5-13.2 60.2-21.1 9.9-4.7 19.8-11.8 30-15.7 16.7-6.5 35.6-8.2 52.3-16.5 16.9-8.4 29.1-23.7 45.1-32.7 9.5-5.4 21-7.2 30.9-11.5 19.7-8.7 39.7-25.1 62.3-10.3 38.3 25.1-32.4 91.6-52.9 105.8-1.9 1.3-29.1 17.7-18.9 22.9 21.5 11.2 67.3-2.8 87.5-6.7 34.6-6.6 70.3-19.1 106-17.8 32.6 1.1 63.7 18 97.6 8.6 12.2-3.4 22.4-10.7 35.1-13.2 14.8-2.9 90.7-3.7 100.4 10.4 4.8 7-15.9 15-20.2 17.8-25.2 16.2-53.8 23.5-78.8 40.1-7.8 5.3-15.5 10.5-23.5 15.4-0.5 0.4-10.8 7.4-9.8 8.3 2.2 1.9 35.4-13.7 40.5-17.4 4.5-3.4 36.9-24 40.2-25.1 11.8-4.2 26.7-7.4 37.2-14.6 5.7-3.8 10.3-9.5 16.2-13.2 5.9-3.7 28-10.5 34.7-5.2 8.7 6.9 13.9 46.7 9.1 53.2-2.7 3.6-7.7 7.3-11.2 10-31.6 24.9-108.8 75.5-124.2 113.4-22.9 56.6 60 34 70.9 58.5 25.6 57.6-14.6 74.7-10.7 111.7 3.9 37.1 59 76.3 47.2 130.1-4.4 20.4-45.4 38.2-60.1 45.2-32.7 15.5-68 16.6-100.6 29.7-44.5 17.8-86.3 42-130.6 60.3-94.4 38.9-247.6 74.2-346.3 76.2-94.5 1.8-189.6-17.6-283.9-23.7-84.4-5.4-200.3 10.1-272.4-42.1-38.5-27.8-67.1-59.1-85.3-103.3-12.8-31.1-15.8-69.2-30.3-99.5-6.5-13.6-23.7-25.3-32.5-37.3-24.3-33.3-39.3-68.8-28.1-109.6" fill-rule="evenodd" style="fill: rgb(0, 67, 105);"/></g><g id="__id58_spm9zlg9s"><path d="m3213.7 5942.8c-10.3 3.2-20.5 6.8-30.6 10.5-22.5 8.5-42.7 17.1-63.8 28.9-59.5 33.6-120.2 78.1-143 145.1-20.4 60.2-28.4 120.7-31.1 183.8-5.2 122.7 29.2 195.9 128 268.7 25.2 18.6 59.1 48.1 90 59.3 33.4 12 99.2 4.8 127.6 5.6 139.6 3.9 173.8 5.2 320.5 18.4 261.3 23.6 521.3 60.2 783.3 75.3 105.7 6.1 299.7 29.2 399.2-26.6 17.3-9.6 20.8-27.3 29.7-43.6 24.5-44.9 54.3-86 83.1-128.1 48.8-71.5 97.7-145.6 128.9-226.8 9.6-24.9 17.8-49 22.5-75.2 2.9-16.4 2.9-34.5 9.5-50.1 9.1-21.4 23.7-40.3 35-60.5 25.3-45.5 42.5-93.7 61.3-141.6 9.6-24.7 20.1-62.8 35.5-83.5 12.5-16.8 29.7-30 41.2-47.6 0.7-1 2.4-2.4 1.7-3.4-5.2-7.4-36.1-3.8-44.1-3.3-47.7 2.7-95.2 11-142.6 16.2-30.8 3.5-62.4-0.1-92.9 4.2-25.4 3.6-49.5 19.5-74.3 21.1-46.3 3.1-93.1-1.3-139.5 0.2-10.4 0.3-19.6 6.9-29.1 10.4-7.9 2.9-17.2-0.1-25.3 1.2-9.8 1.7-19.3 7.6-29.8 8.6-23.1 2.4-48.5 5.7-70.8 6.6-11.8 0.4-24.9-1.8-36.5 0.3-36.1 6.3-74.8 11.5-112.4 11.5-7.2 0-30.4 9.4-35.6 2.8-3-3.7 14.8-13.4 16.8-15.4 17.5-18.1 9-27.7 39.2-40.4 33.9-14.4 60-33.8 90.7-53.8 12.4-8.1 26.5-14.1 38.1-23.4 23.1-18.6 39.9-43.4 59-65.1 10.1-11.4 42.5-47.3 31.7-65.9-5.9-10.1-75.7 7-84.4 11.9-17 9.5-32.8 21.8-49.2 32.3-18.5 12-40 20.4-57.5 33.7-7.7 5.8-13.8 13.2-22.9 17.3-35.2 16.3-74.1 18.3-110.6 29.9-27.2 8.7-52.8 25.5-80.7 31.8-19.2 4.4-39.7 2.1-59.3 3.7-22.4 1.8-45.2 8.7-67.4 9.8-45 2.4-91 1.3-135.7 6.7-56.8 7-74.7 12.4-139.5 16.9-4.4 0.3-97.5 1.7-121.1 4.2-25.3 2.8-49.2 14.5-73.9 20.3-32.7 7.7-68 8.8-101.4 11.6-17.9 1.5-36.2-1.6-54 1.3-12 2-22.9 8.2-35.1 9-48.3 3.2-94.6-1.4-142.6 7.3-24.8 4.5-50.5 3.1-75 9.1-4.3 1-54.1 16.7-60.8 18.8z" fill-rule="evenodd" style="fill: rgb(0, 67, 105);"/></g><g id="__id59_spm9zlg9s"><path d="m3858.7 690.4c104.1-72 222.9-138.8 343.1-179.4 208.6-70.5 421.3-58.2 637.3-56.7 244.2 1.7 565.8-14.2 789.1 97.8-15 10.6-17.2 12.2-36.4 14.2 164.5 152.7 376.7 237.4 578.3 328.5 66.4 30 132.4 66.1 200.5 91.7 141.5 53.3 667.8 154.6 740.3 253.9-25.8 2.6-239.6-75.5-282.2-87.5 211.6 128.5 463 196.6 663.9 339.1l13.7 9.5c2.7 1.9 5.3 3.8 8 5.8-152.4-49.8-298.3-129.1-442.8-198.2-152.9-73.2-306.4-139.9-464-202.4 41.3 29 78.3 52.7 125.2 72.1 46.2 19.1 99.5 37.3 141 65.1-151.6-38-240.6-126.1-380.4-172.5 108.5 96.2 225.1 151.8 352.3 218.9 229.6 121.1 466.5 228.3 673.9 387.1 40.1 26.7 81.3 52.5 119.2 82.4-28.1 2.4-52.5 3.1-80.5-0.8 31 22.9 67.6 45.2 94.8 72.4 15.4 5.7 25.1 10 41.7 9.9 142 142.8 421.8 227.6 605.8 329.2 148.3 82 281.2 192.9 426.2 280.7 152.6 92.4 318.5 162.5 460.5 272-80.2-29.8-148.4-77.7-223.2-117.9-78.1-42.1-161.6-74.6-238-119.9-141.1-83.5-274.5-183.3-414.5-269.8 128.7 142.4 297.7 283.1 485.3 340 105.2 53.8 353.7 162 433.7 230.7 54.7 30.2 132 61.6 167.4 115.2l-5.3-1c15.7 24.8 29.5 40.1 51.7 59.2 11.7 10.1 7 5.8 18.9 20.6 87.6 100.3 243.1 116 337.7 217.9 3.9 4.3 8 8.4 12 12.6l7.3 7.9c-78-43.3-227.3-148.7-317.3-126.1l-16.4 50.8c47.9 34.9 222.1 163.5 240.6 206.3-40.1 19.8-87.4-22.2-117.7-47.1-327.2-268.2-549.1-253.1-945.8-296.7-6.1 169.4-14.3 338.7-4.4 508.1 15.8 272.7 55.5 543.8 61.5 817.1 6.7 308.8-19.3 618.3-14.4 927.2 7.9 499.7 36 999.1 44.5 1499 5.3 313-4.4 625.5-9.5 938.4 70.6-0.1 138.7 2.3 208.8 10.8-269.2 64.8-763.7 100.2-1023.9 23.4 60-9.2 161.2-3.4 211.3-35.3l-2.8-21.2c-49.6-43.7-190.4 8.6-259.5-18.5 87.7-20.8 171.3-23.7 261.3-23.4-0.1-254.1-5-509.7 4.4-763.5 9.2-248.4 32.1-494.5 34.7-743.4 5.7-560.1-18.6-1118.6-36-1678.1-135.8-143-288-271.9-425.5-413.7-369.3-380.8-742.8-782.2-1127.7-1145-441.6-14.7-885.9 8.8-1327.5 15.8q-886.5 13.4-1773-2.4-116 112.5-228.5 228.5c-294.7 309.4-575.1 635.4-856.4 956.9-79.5 91-258.4 261.5-301.7 364.4-34.6 82.2-14.4 586.1-15.5 706.1-2.6 264.5-14.5 528.8-16.4 793.3q-0.3 834.8 17.8 1669.4c24.8 5.3 49.9 10.7 73.1 21.3 25.9 11.8 42.2 26.4 51.3 52.8-3.6 8.1-5.3 13.7-12.1 20.6-46.2 46.4-160.1 60-223.9 65.6-118.7 10.3-559.2 30.6-635.3-43.4-10.9-10.6-6.4-18.1-5.8-32 25.8-33.5 62.9-41.1 91-69.4 8.1-8.2 13.7-14.6 15.1-26.2 15.4-129.6 6.6-270.2 9.1-401.3l16.4-878.1c17.1-724.9 57.7-1448.8 75.5-2173.6 9.8-401.7 2.1-804.1 20.2-1205.6-40.5 34.5-75.7 52.6-128.2 64.3-86.7 19.4-178.2-11.5-267.6 4.1-84.2 14.7-167.6 52.8-249.1 78.7-100.5 32-201.3 48.9-305.4 63.7-93.1 92.3-196.3 158.9-319.9 202 69.6-59.2 191.2-108.8 242.1-180.8l-40.6 2.2c-17.8-13.9-20.4-31.4-28.4-52.1 8 2.8 15.7 5.9 23.9 7.7 23.6 5.1 55.4-0.4 76.1-12.6l-4.8-14.6c-17.3-9.5-33.5-15.1-52.4-20.8 4.4-8.5 7.4-18.3 10.8-27.4-48.7-1.4-106.8 44.3-158.1 55.6l-13.6-8.9 2.6-12.4c44.7-48.4 319.5-133.8 398.6-171.1 60.7-28.6 108-87.7 169.3-109.5 28.9-10.3 55.8-24.8 82.9-39.1-3.2-2.3-4.2-3.9-9.7-11.8-1.9-2.7-3.6-5.6-5.3-8.4-54.2 23-96.6 68.3-149.7 91.7-56.8 25-326.9 121.5-372.2 103.3l3.1-13.9c261.7-101.8 508.7-257.5 741.4-414.8 62.5-42.2 146-130.1 213.1-155.7-9.4 27.7-86.6 84.2-111.6 107.9 284.8-159.8 545.1-356.1 821.9-527.8 101.7-63.1 221.4-97.9 317.3-170l-1.3-8.8c-13.4-3.6-22.7-6.6-34.5-14.4-3-2-5.8-4.2-8.8-6.4-118.6 18.7-251.4 128.6-361.8 180.9-208 98.5-502.7 163.2-680.1 315.7-37.7 10.8-70.5 45.6-104.9 65.2l-9.3-7.3c97.9-146.9 605.7-329.8 778.8-411.1 111.5-52.4 222.4-116.8 331.1-175.6 188.5-102.1 363.7-230.2 543.5-346.7 135.3-87.6 286.9-158.7 402.7-271.7-209.8 68.7-375.9 121.8-563.3 242.8-53.9 34.9-152.6 98.9-216 85.4l17.8-4.2-7.2-6.1c108.3-53.7 200.9-99 296.8-174.2-68.2 13.6-138.6 19.4-207.8 27.4 191.1-71.4 378.4-102.8 560.1-202.5-45.7 14.3-124.7 48.6-169 32 96.3-65 358.9-165.4 473.9-216 131.5-57.9 256-124.1 391.3-174.1 115.3-28.4 232.9-74 334.4-135.4-68.3 15-134.7 31.5-200.2 56.5-51.6 19.7-100 45.3-153.8 59zm-2860.7 2089.1c2.1 1.6 5.3 3.5 11.4 7.9l0.7-14.3q-6.1 3.2-12.1 6.4zm361.8-532.5c7.9-2.2 15.9-3.4 24.2-3.2-13.3 5.9-25.7 11-36.4 14.1q6-5.5 12.2-10.9zm141.7-49l-1.7 15.3-11.5-1.9c-32.1 24.2-55 38.4-96.2 33q-4.1-0.5-8.1-0.6c40.3-17.9 88.3-43.4 117.5-45.8zm1511.6-1097.6q-2.2 1.5-4.4 3l3.5-3.4q0.5 0.2 0.9 0.4zm-891.4 1821.8c-14.2 295.1-6 587.2-9.7 882l55.7-78.4c91.3-110.3 192.7-210.6 288.9-316.5 174.6-192 295.5-356.4 511.6-514.7l-133.3 2.5q-356.7 10.1-713.2 25.1zm6006.7 881.7l7.6-0.5c-3.3-308.4-15-616.3-67.4-920.9-290.8 24.3-591.4-0.7-883.7 1.5 302.3 318.8 607 636 943.5 919.9z" fill-rule="evenodd" style="fill: rgb(80, 122, 131);"/></g><g id="__id60_spm9zlg9s"><path d="m6647.8 5792.9c-14.5-0.7-18.5 1.2-30.7-7.6 80.1-32.6 182.7-112.9 266.5-120.9 17.9-1.7 11-2.9 25.7 8.6-0.4 13.9-2.6 24-9.1 36.5-23.5 45.4-44.9 66.7-93.3 82.4l40.9-42.2-22.6-25c17.3-9 42.6-15.7 49-34.4-36.4-8-181.5 83.4-226.4 102.6z" style="fill: rgb(80, 122, 131);"/></g><g id="__id61_spm9zlg9s"><path d="m4447.2 5777.6c-14.5-0.8-18.5 1.1-30.7-7.6 80.1-32.6 182.8-112.9 266.5-121 17.9-1.7 11-2.8 25.7 8.6-0.4 14-2.6 24.1-9.1 36.6-23.4 45.4-44.9 66.7-93.3 82.4l40.9-42.2-22.6-25c17.4-9.1 42.6-15.8 49-34.5-36.4-7.9-181.5 83.4-226.4 102.7z" style="fill: rgb(80, 122, 131);"/></g><g id="__id62_spm9zlg9s"><path d="m6665.2 6338.4c-13.6-1-19.7-2.8-31.9-7.8l-5.4-14.4c10.2-10.5 18.4-20.4 32.6-25.5 67.2-24.5 152-63.2 222.2-70.9-6.9 30.7-8.1 45.3-36.1 62.2-7.2 4.4-20.7 11.1-28.6 15.1-52.6 22.2-95.4 36.9-152.8 41.3z" style="fill: rgb(80, 122, 131);"/></g><g id="__id63_spm9zlg9s"><path d="m7021.8 6138.1c39.1 13.8 145.2-63 205.7-56.8-66.1 30.5-166.5 55.6-221 100.6l5.9 8.9c97.8 3.5 195-61.5 296.6-69.1-30.6 34.1-299.3 119.6-352.3 121.5-2.5 0.1-5-0.2-7.5-0.2 6.3-18.9 13.2-25.4 26.3-39.7l-4.6-9.4c-24 4-44.1 10-67 18.2-12.3 4.4-7.1 2.8-21.2 5.4-14.7-5.2-28.1-11.2-42-18.1l2.4-18 17.3-21.4c20.6-7.7 41.1-15.7 61.7-23.2 40.4-14.5 59.8-17.7 99.7 1.3z" style="fill: rgb(80, 122, 131);"/></g><g id="__id64_spm9zlg9s"><path d="m6860.4 6162.4c20.6-7.7 41.1-15.8 61.7-23.2 40.4-14.6 59.8-17.7 99.7 1.3-60.4 26.8-110.9 54.8-178.7 43.3z" style="fill: rgb(0, 67, 105);"/></g><g id="__id65_spm9zlg9s"><path d="m7052.2 6042.5l-6.5 21.4c23.4-2 42.6-12.2 65.3-16.7 54.3-10.7 211.5-33.4 260.9-23.8-11.7 19.5-26.8 22.4-47.8 28.7-33.1 9.9-68.4 9.5-96.6 31.6-60.5-6.2-166.6 70.6-205.7 56.8-39.9-19-59.3-15.9-99.7-1.3-20.6 7.4-41.1 15.5-61.7 23.2-0.6-2.3-0.8-4.7-1.6-6.9-11.4-30.7-23.7-29.3-52-40.8 80.1-15.3 151.4-78.7 230.5-90.9z" style="fill: rgb(80, 122, 131);"/></g><g id="__id66_spm9zlg9s"><path d="m7638.7 1759.8c255.8 167.9 562.9 259.7 841.4 383.8 106 47.2 213.8 89.8 303.2 165.5-144.6-48.3-274.9-117.2-413.1-179.6-117-52.7-236.3-100.5-353.2-153.6-97.8-44.5-218-116.9-322.3-134.6-16.6 0.1-26.3-4.2-41.7-9.9-27.2-27.2-63.8-49.5-94.8-72.4 28 3.9 52.4 3.2 80.5 0.8z" style="fill: rgb(80, 122, 131);"/></g><g id="__id67_spm9zlg9s"><path d="m6504.3 5693.7l12 7.9-6.5 12.8c-62.4 20.9-127.6 47.3-191.9 60.1-56.8 11.4-118 9.3-172.9 26.9l75.5 4.2c-36.3 16.9-100.7 1.7-142.5 12.3-111.9 28.4-335.7 136-436.3 133.6 25.5-30.7 187.8-57.1 240-99.6l-10.8-9.4c-149.6-14.7-623.2 26.8-759.6 88.8-32.6 14.4-64.8 23.4-99.3 32.4 135-76.7 279.2-126.7 428.7-166.8 21.5-5.7 38.9-6.3 58.3 4.8-0.5 0.6-215.2 51.5-247.6 65.3-17.4 7.3-27.7 7.6-34.7 25.5 52.6 2.6 115.1-38.4 169.5-47 98-15.5 200.5-2.2 299-17.4 93.4-14.4 182.2-53.9 276.2-65.7 77.4-9.7 159.8 1.6 238.1 0.1 105.7-2 205.2-37.2 304.8-68.8z" style="fill: rgb(80, 122, 131);"/></g><g id="__id68_spm9zlg9s"><path d="m4439.5 5757.4l12 8-6.5 12.7c-62.4 20.9-127.7 47.3-192 60.2-56.7 11.3-117.9 9.3-172.8 26.8l75.5 4.3c-36.4 16.9-100.8 1.6-142.5 12.3-111.9 28.4-335.7 135.9-436.4 133.6 25.6-30.7 187.9-57.2 240.1-99.7l-10.8-9.4c-149.6-14.6-623.2 26.9-759.6 88.9-32.6 14.4-64.8 23.4-99.3 32.3 135-76.6 279.1-126.7 428.7-166.7 21.4-5.7 38.8-6.4 58.3 4.7-0.6 0.7-215.2 51.6-247.6 65.3-17.4 7.4-27.7 7.7-34.8 25.6 52.6 2.6 115.2-38.4 169.5-47 98.1-15.6 200.6-2.3 299.1-17.4 93.4-14.4 182.2-54 276.1-65.8 77.5-9.7 159.9 1.7 238.1 0.2 105.7-2.1 205.3-37.2 304.9-68.9z" style="fill: rgb(80, 122, 131);"/></g><g id="__id69_spm9zlg9s"><path d="m5474.9 5775.1l12 8-6.6 12.7c-62.3 20.9-127.6 47.4-191.9 60.2-56.8 11.3-117.9 9.3-172.9 26.8l75.6 4.3c-36.4 16.9-100.8 1.7-142.5 12.3-111.9 28.4-335.7 135.9-436.4 133.6 25.6-30.7 187.8-57.1 240.1-99.7l-10.9-9.4c-149.5-14.6-623.2 26.9-759.6 88.9-32.6 14.4-64.7 23.4-99.2 32.3 135-76.6 279.1-126.7 428.7-166.7 21.4-5.7 38.8-6.4 58.3 4.8-0.6 0.6-215.3 51.5-247.6 65.2-17.5 7.4-27.8 7.7-34.8 25.6 52.6 2.6 115.2-38.4 169.5-47 98-15.6 200.5-2.3 299.1-17.4 93.3-14.4 182.2-54 276.1-65.7 77.5-9.8 159.8 1.6 238.1 0.1 105.7-2.1 205.3-37.2 304.9-68.9z" style="fill: rgb(80, 122, 131);"/></g><g id="__id70_spm9zlg9s"><path d="m6002.2 5786.6c43.6-4 86.6 0.1 130.1 2.9l-161.6 42.5c-39.4 11.3-73.3 3.6-111.3-10.2 38.9-22.5 98.3-26.5 142.8-35.2z" style="fill: rgb(0, 67, 105);"/></g><g id="__id71_spm9zlg9s"><path d="m7209.1 5797.1c-74.1 1.9-146.4 19.8-220.4 20.3 61.4-24.4 162.8-49.5 229.5-38.8 16.6 2.6 22.5 3.6 32.2 17.6-157 92.7-311.1 193.1-465.1 290.8 73.3-26.7 154.4-49.5 222.9-87 65.5-35.9 120.7-89 183.4-129.4 50.7-32.7 116.4-55.7 171-83.6-78.2 74.1-176.7 111.1-262.2 172.3-17.6 12.5-23.8 13.4-26.9 35.6 13.8 6.3 24 10.7 35.6 20.8l-54.5 25.6-14.9-18.6c-79.2 12.1-150.4 75.5-230.5 90.8 28.3 11.5 40.6 10.1 51.9 40.8 0.9 2.2 1.1 4.6 1.6 6.9l-17.2 21.4-23.6-9c-41.9 19.2-97 37-143 37.2-14.8-10.9-26.2-22.5-38.6-36 27.9-37.5 98.8-36.1 120.3-77.1q-24-3.5-47.8-7.9c50.5-48.5 146.5-86.9 208.6-126.2-66.7 16.2-130.7 44.4-196.9 63.3-21.7 6.3-49.3 15-69.6 3.8 64.2-27.2 115.9-75.1 181-103.7 119.7-52.6 250.9-81.3 373.2-129.9z" style="fill: rgb(80, 122, 131);"/></g><g id="__id72_spm9zlg9s"><path d="m3280.2 5718.7c-10.2-26.1-23.5-50.9-23.7-79.2 14.7 7.7 21.4 15 29.1 29.4 12.9 23.8 16.1 41.5 7.5 67.8-7.1 21.6-21.2 50.4-13.1 72.3 10.2-0.5 41.8-81.8 71.4-93.6-8.2 44.9-37.1 91.6-56.8 132.8 15.7-3.7 27-38.5 45-50l-3.6 28 16.7 13.9-19.7 11.2 3 3.6c120.1-134.8 276.6-251 444.4-319.2 3-1.2 6.1-2.4 9.1-3.6-56.6 47.9-126.5 74.4-184.6 120.2-100.3 50.4-183 137.8-253 223.6-20.2 24.7-43.9 62.3-68.8 81.4-20.1 15.5-47.6 17.7-72.1 21.2-52.9 41.6-81.3 106.5-91 171.9l10.2 18c15.1 1.5 30.1 3.2 45.3 3.6l35.1-9.3 24.6 4.5c-24.8 47.3-73.4 81.8-120.3 105 185.9 32.7 371.2 89.7 558.7 109.7 162.4 17.4 330.7 1.1 501.6 18.8 109.4 11.3 214.7 56 324 58.6 164.5 4 325-79.9 469.6-72.1-6.6 10.7-222 68.4-264.1 95.6 26.9 8.4 87.6-5.7 117.1-9.4 10.4 25.6 12.4 26.8 35.7 41.9l33.6-42c92.5 1.5 183.1 9.3 275 18.8-55.1 10.9-110.2 10.5-165.8 16.4 121.7 22.2 183 5.1 299.1 3.2l-14 18.8 15.4 12.6c109.4 21.4 208 33.3 318.2 8.6l-87-39.1c125.1-54.5 262-100.9 396.1-126.7 219.6-42.1 319.9-9 525.9-141.8l9.2 7.3c-56.9 49.4-157.2 102.1-229.2 126.5 90.1 0.9 212.5-16.6 299.6-40-47.9 24.3-86.1 46.4-141.5 46.7 62.1 38.5 146.4 34.7 215 19q9-2.1 17.9-4.5l73.2-21.3c39.6-2.4 77.8-19.7 112.7-37.1 67.2-19.1 160.8-76.8 227.2-73.2 65.9-28.6 137.1-13 202.3 11.6 30.1 11.4 60.8 26 88.8 41.7l22.5 6.8 3.9 12.7c-56.6 45.5-144.5 65.2-213.1 85.8-53.1 24.3-71.9 63.8-101.9 111.8-111.4 220.8-206.9 460.2-297 690.7-32.6 83.2-57.6 170.2-93.4 252-12.8 29.4-27.7 66-50.3 88.9-41.9 42.5-154.5 66.8-212.9 64.9 33-10.5 66.4-19.6 96.9-36.5-76.4-9.1-225.9 35.8-324.5 36.4-186.3 1.1-370.8-24.3-556.4-25.7-479.2-3.4-958.7 27.3-1436.8 52.7-130.3 7-625.7 38.5-720.6-9.5-94.2-131.2-195.4-360-277.9-511.4-99.1-181.8-215.7-357.5-303.2-544.9-32.5-69.4-58.9-136.1-71.6-211.9-32.6 18.9-69.4 45.8-106.4 53.7 25.5-33.8 74-44.6 94.5-78.6l-43.7-17.3c23.6-5 36.4-7.2 55.4-23.2l-5.7-11.2c-28.1-3.7-63 24.3-87.1 37.3l-24.1-9.7-2.6-12.3c26.6-25 64.3-35.9 97.8-49.3-99.5 21.5-178.6 52.1-282.9 40l5.1-6.4c59.8-7.6 85.5-11.9 128.6-54.8 2.5-2.5 5-5 7.5-7.5-48.1 13.1-96.1 28.2-145.7 34.3 53.2-53.7 174.9-69.7 246.4-95.3 44.2-15.8 87.3-38.4 129.6-59-56.2 44.7-112.3 82.3-174 119.2 75.1-16.3 139.6-57 206-94.2-18.2-25.8-28.1-38.5-58.1-49.6-37.4 10-57.1 15.4-93.8 1.1l16.7-4c-71.3-12.4-144-11-216.2-11.7 197.5-72.8 433.2-72.7 614.5-176.3 15.7-34.8 33.6-92.1 64.8-113.6l-2.4 38.9 9.3 1.5c26.5-31.4 39.1-78.8 53.8-116.9z" style="fill: rgb(80, 122, 131);"/></g><g id="__id73_spm9zlg9s"><path d="m3155.4 6195.6l35.1-9.3c-11.9 18-28.6 43.2-46.7 55.8-25.9 17.9-104.2 44.4-133.9 38.3l14.3-23.4-21.3-9.4 7.5-11.4c11.7-5.2 17.6-7.1 30.6-6.6 43.9 1.8 63.9-6.7 101.8-27.2z" style="fill: rgb(229, 69, 42);"/></g><g id="__id74_spm9zlg9s"><path d="m6228.6 6380.5l8.8 12.2c-161.1 43.5-307 107.9-472.7 141.1-65.8 10.8-113.8-3.2-175.5-23.5 239.3-65.4 383.1-117.3 639.4-129.8z" style="fill: rgb(0, 67, 105);"/></g><g id="__id75_spm9zlg9s"><path d="m6923.5 6488l125.5-38.8-56.6 78.5q-67.3 118.9-119.9 245.2c-61.9 145.6-233.7 653.1-329 723.3 45.6-120.3 116-228.7 151.5-353.6-13.6 4.3-23.9 31.4-30.8 44.7-37.7 71.8-63.7 150.1-97 223.9 4.1-27.7 17-71.5 10.4-97.9-46.5 80.9-60.3 166.1-118.7 243 56.2-156.8 120.8-309.3 185.5-462.7 31.5-74.6 72-153.6 95.4-230.9 71.8-114.4 125.2-252.3 183.7-374.7z" style="fill: rgb(0, 67, 105);"/></g><g id="__id76_spm9zlg9s"><path d="m6334.7 6404.3c2.3 2.3 4.6 4.6 7 6.8 23.5 22.7 44.8 36.3 73.3 51.8 14.6 7.8 8.9 4.1 21.6 17.5l-35 14.1c-61.3-3.7-312.7 35.9-382.4 51.7-57.4-1.1-113.4 0.1-170.7 4.3 82.7-39 321.2-106.1 413.3-118.6 26.6-5.6 48.6-16.1 72.9-27.6z" style="fill: rgb(0, 67, 105);"/></g><g id="__id77_spm9zlg9s"><path d="m6761 6502.8l143.8-13.3c-65.8 114.6-109.7 239.6-169.6 357.3-73.9 155.1-146.5 314.7-211.7 473.6-25.2 61.3-35.8 142.1-72.6 196.8-14.8 21.9-48.2 37.3-73.7 41-20 2.9-11.7 4.6-27.7-7.5 28.1-113.5 37.8-223.9 59-338q15-76.9 36.6-152.2 21.5-75.4 49.4-148.6 28-73.2 62.1-143.8 34.1-70.6 74.1-137.9c22.4-33.8 43.6-76.7 78.5-98.3 9.8 79.2-192.4 316.3-198.4 403 53.4-53.7 207.4-351.3 250.2-432.1z" style="fill: rgb(0, 67, 105);"/></g><g id="__id78_spm9zlg9s"><path d="m2875 6295.1c68.2 15.9 139.2 5.5 204.5 24.9 88.9 117.9 618.2 1204.4 609.2 1286.7-18.8-10.5-36.7-65.2-46.7-86.9l-3.7 5.1c1.9 51.1 5.7 56.1 36.5 97.4-35.2 23.6-156.3 0.2-199.9-4.1l-243.4-448.7c-88.5-165.7-189.3-324.2-281-487.9-24.2-43.2-142-261.7-131.3-299.4l4.6-27.5c21.6 132.7 139 280.6 223 384.1-26.3-86.6-113.6-195.3-157.6-279.6-17.8-34-45.9-91.2-33.4-130.1 54.3 11.2 105.2 170.9 164.2 213.4-32.3-88.3-96.1-167.4-145-247.4z" style="fill: rgb(0, 67, 105);"/></g><g id="__id79_spm9zlg9s"><path d="m6284.2 6572c126.8-28.8 251-33.4 379.1-50.2l-55.7 85.7c-155.7 222.5-224.9 522.8-301.2 780.5-16.8 56.5-25 119.2-46.9 173.3-19.9 10.5-22.9 11.9-45.2 10.4-52.7-87.8 102.7-333.6 79.4-444l-7.5 4.4c-42 148.4-78.4 290.6-97.5 444-111.9 8.3-466.9 7.4-555.9-15.9-2.7-0.7-5.2-2.3-8-2.4-3.5-0.1-6.8 1.2-10.2 1.8 0.3-153.7 182.6-841.4 279.8-946.8 24.6-26.7 66-22.3 99.9-23.9l5 10.2c-4.1 4.3-8.4 8.4-12.3 12.9-38.1 42.2-45.9 121.2-57.5 175.7 22.7-51.5 42.9-108.7 80.9-150.9l-4.1 9.2c1.9-2.4 3.7-4.8 5.5-7.1 20.4-26.1 38.5-46.3 73.4-50.5 21.6-2.7 14.1-2.7 34.1 2.5-12.8 18-30.7 27.6-49 39.1l2.6 5.7c31.8-4.6 31.9-15.1 56.2-29.5 3.8-2.2 8.6-2.3 12.8-3.5 1.6 126.8-113.2 259-85.2 387.8 21.8-100.5 45.9-210.6 97.9-300.8q35.2-48.1 68.3-97.6l8.1 0.7c-10 42.6-22.3 83.7-35.8 125.3-11.5 32-31.1 86.7-29.8 120.9 0.2 5.9 2.3 11.6 3.4 17.4l-3.7-15-1.6 11.7c17.3-9.6 87.3-232.4 120.7-281.1z" style="fill: rgb(0, 67, 105);"/></g><g id="__id80_spm9zlg9s"><path d="m3187.5 6482c-24.2-53.1-60.9-109.5-77.2-164.5l14.4-1.2c21.9 10.3 43.5 19.7 61.7 35.9 12.5 11 9.1 9.6 22.5 16.7 2.4 1.2 4.9 2.2 7.3 3.4 16.1-16.1 14.7-16.3 37.3-17.1 98.5 80.1 78.9 294.8 166.7 369.7-24.7-115.6-76.8-257.6-128.2-364.4l116.5 25.3 43.2 86.9 4.1-1.7-1-10.3c-2.2-23.7-4.8-33.8 4.7-56.5 15.5 21.8 26.6 44.5 38.2 68.4l7.1-4.4 8.1-46.6 54.1 47.3c9.2-14.2 6.2-21.1 6-37.6 14.2 2.6 15.1-0.4 22.5 9.2 25.2 32.9 14.9 82.6 41.9 116-3.4-31.1-15.1-78-0.9-106.5 15.3 0.7 29-3.8 39.4 9 26.2 32.2 248.1 776.2 277.3 878.8-3.4-27-7.5-53-13.5-79.6-64.5-205.3-116.7-413.6-167.3-622.6l-3.2-13.3c-12.4-51.2-33.2-87.6-58-133.2-5.7-10.5-6.6-19-6.4-30.7l10-2.6 7.4 8.6c9 10.4 5 6.7 12.7 13.1 14.6-19 14.4-20.8 37.4-26.6 42 35.6 39 149.4 44.2 203.9 30.2 189.6 96.9 357.9 146.8 541.4 22.4 70.7 39.6 147.6 78.8 211.1 1.9 3 3.8 5.9 5.7 8.9l-2.2 0.4 9.9-2c-37.1-214.3-280.4-732-236.6-910.2 26.7-3.2 32.7 35.9 62 37.3-7.7-12.2-15.7-24.4-22.4-37.2-10.7-20.2-16.3-27.6-9.1-50.7l21.3-3.3c98.5 43.6 66.7 150.6 99.9 234 15.2 38.1 17 75.6 26.9 114.9l59.6 234.3c13.5 53 37.6 103.7 49 157.1 20.8 97.7 35 217.9 80.6 306.8 5.5-42.2-19.2-97.6-28.8-140.4-20.9-93.9-40.6-188.1-65-281.1-29.7-113.6-163.1-511.6-139.4-608 19.9-5.3 32.1 3.7 50.3 12.5 33.5 16 39.2 41.9 51 74.6l4.1 11.6 6.4 2c4.6-43.8 3.4-67 29.8-103.4 30.9 29.3 45.8 118.1 57.9 160.6-2.4-31.8-13.8-66.3-13.5-97.7 0.2-25.7 7.4-29.1 25.6-43.5 27.5-1.9 33.3-2.2 58 9.5 53.3 126.4 75.8 276.2 119.3 408.3 42.8 130.4 85.1 261.4 131.6 390.4 36.2 100 78.6 196 105.5 299.2-217.5 19-441.8 36-660.3 30.6-92.8-140.1-162.8-310.1-219.4-468l-3.2-9-6.5 2.2c19.5 101.5 79 223.9 123.5 316.7 23.5 48.9 63 103.1 72 155.8l-9.1 10.5c-33.7 1.8-64.6-14.2-95.3-26.6l-4.6 14.7c-48-29.4-115.1-244.1-139.3-302 7.9 40 13.7 80.6 22.6 120.4l1.1-10.9-9-1.4c-58.5-144.5-123.9-272.1-188.2-412.3-41.3-90.2-75.1-185.8-120.8-273.7-46.4-89.3-111.6-165.6-155.5-257.2z" style="fill: rgb(0, 67, 105);"/></g><g id="__id81_spm9zlg9s"><path d="m4411.6 6940.3c-40.8-94.2-145.4-315.4-114.4-413.6 19.5-12.8 19.6-10.6 43-6.6 40.3 36.2 52.2 295.1 72.3 368.6 0.9 3.3 1.9 6.5 2.8 9.7-3.9-120.4-38.4-239.4-42.1-360.5l15-15.9 18.3 3.8c40.3 54.1 81.5 395.5 97.1 485.3 10.8-44.7-41.1-380-48.9-457 58.4 0.2 116.7-0.3 174.9 5.2l5.1 10c-11.3 14.4-16.7 21.1-21.9 39l31.2-3.5c7.6 10.6 12.5 17.8 23.1 25.7l4-18 46.8 12.5c24.2-0.6 33.9-5.8 55.1-16.3 20.8-10.3 45.3-9.6 67.4-17.3 37.4-12.9 70.4-34.1 105.8-51.3 98.8 25 253.2 39.2 317.9 121.1l20.1 5c48.2-34.8 1.4-46.5 82.4-49.4-5.7-10.6-1.3-5.6-18.9-11.1-39.4-12.4-90.5-3.1-123.4-28.9 36.1-18.3 151.7 1.5 191.9 14.3 6.6 2.1 14 5.5 20.3 8.3l-4.2 8-6.2 12.7-4.1 8c-16.1 32.3-25.3 61.8-18.8 98.1 13.7-39.6 23.8-81.8 52.4-113.3 19.1-8.3 29-11.4 49.9-2.3 3.2 1.3 5.4 4.3 8.2 6.4l-6.7 12.4c-38.1 72-57.8 167-59.9 248.3l5.5 2.6-4.5-18.8 0.4 20.9c24.4-35.1 45.1-188.1 58.1-241.6 40.3-29.3 91.7-66.4 144.7-55.5 29.6 6.1 53.5 29.3 74.7 49.1l26.1-0.2c-19.5 180.3-79.7 354.9-117.9 531.5-27.9 129.2-40.7 261.2-65.7 391-1.7 0.9-3.2 2.1-5 2.7-19 7.4-35.4 14.2-53.8 5.5-3.3-24.9 10.4-44.2 21.4-65.6 18.7-45.2 38-88.7 47-137.1-48 48.7-45.7 142.2-98.5 186.8-21.6 18.1-39.5 17.8-65.6 17.1-2.8-4.4-7.7-8-8.4-13.2-2.6-17.5 45.8-143.5 54.8-174.1 44.7-151.5 71.5-308.2 113.5-460.4 13.4-48.6 58.7-132.5 50.5-179.4-74.4 195.3-113.1 388.5-166.5 589-22.1 82.9-54 165.5-81.6 246.9q-263.4-3.6-526.5 11.3c31.9-209.1 81.5-626.6 27.7-828l-4.5-0.2c8.8 162.6 11.9 635.5-28.5 777.2-8.5 30-21.1 48.1-48.1 63.3l-16.8-4.9c-42.7-44.5 2.6-106.7-4.7-162.6-16.3 49.6-23 105.6-32.7 157.1l-110.5 4.5z" style="fill: rgb(0, 67, 105);"/></g><g id="__id82_spm9zlg9s"><path d="m1367.5 2940.1l10.2 14-13 22c-33 15.3-60.1 9.5-95.4 5.2l-7.7-9.2q52.6-17.1 105.9-32z" style="fill: rgb(0, 67, 105);"/></g><g id="__id83_spm9zlg9s"><path d="m8881.5 2865.2c42.6 2.4 69.4 13.4 98.1 45.3l-9.5 17.6q-21.9-5-43.6-10.7c-25.4-6.9-46-12.5-59.7-36z" style="fill: rgb(0, 67, 105);"/></g><g id="__id84_spm9zlg9s"><path d="m1520.9 2865.7l-0.9 14.5c-35.2 46-74.2 87.6-129.1 109-1.8-10.2-1-22.1-1.3-32.6 20.7-40.7 91.4-69.1 131.3-90.9z" style="fill: rgb(0, 67, 105);"/></g><g id="__id85_spm9zlg9s"><path d="m4141.6 681.5c43.3-25.2 86.8-54.3 133.5-72.8l22.3 32.6-125.7 64.5z" style="fill: rgb(0, 67, 105);"/></g><g id="__id86_spm9zlg9s"><path d="m4272.7 609.9c111.2-49.1 217.2-85 339.6-87.5-94 23.9-175 40-258.9 91.9-18.6 11.6-38 20-58.3 28.1z" style="fill: rgb(0, 67, 105);"/></g><g id="__id87_spm9zlg9s"><path d="m5118.4 2821.7c99.9-0.8 198.8-1.6 298.5 6.4l-7.5 28.5c-70.2 1.6-140 3.6-210.1-0.1-25.7-27.9-44.5-26.6-80.9-34.8z" style="fill: rgb(0, 67, 105);"/></g><g id="__id88_spm9zlg9s"><path d="m4087.9 669.3c-94.6 60.4-195.5 132.1-302.7 166.5-2.8 0.9-5.5 2.1-8.3 3.2-28.4 17.9-50.8 30.3-84.2 35.1-43.7 6.3-65.9 11.8-102.2 38.8-14.7 11-4.6 7-27.3 8.3l-8.7-9.2c47.7-58.2 148.4-98.5 219.2-121.3 101.5-52.2 206-86.2 314.2-121.4z" style="fill: rgb(0, 67, 105);"/></g><g id="__id89_spm9zlg9s"><path d="m5182.4 532.6c99.3 10.6 192.8-3.2 290.7 22.4 9.8 21.7 12.5 27.6 36.8 35.7 8 2.7 21.6 4.4 30.2 5.6 63.6 25.6 115.5 51.2 165.1 100.2-114.7-20.4-199.4-67.6-307.2-102.9-77-25.3-132.7-26.1-215.6-61z" style="fill: rgb(0, 67, 105);"/></g><g id="__id90_spm9zlg9s"><path d="m4144 680.3l30.1 24.4c-164.2 96.5-332.1 191.3-493.5 292.2-58.4 16.6-108.3 43.1-161.5 71.5 68.4-90.5 503.4-324.7 624.9-388.1z" style="fill: rgb(0, 67, 105);"/></g><g id="__id91_spm9zlg9s"><path d="m3826.9 2572.1c147.3-0.5 311.1-46.8 457.6-13.5-64.2 35.8-204.1 12.5-282.4 22 103.6 14.8 229.9 11.2 334.1 2.8l31.6 5.1-2.9 9.1c-46.5 23.2-101.6 16.1-152.5 15.5 122.2 1.9 251.5-3.8 372.5 11.6-232.7 13.7-469-6.6-702-7.7l-1.4-20.8c-36.3 3.2-79.8-4.9-110.7-24.5z" style="fill: rgb(80, 122, 131);"/></g><g id="__id92_spm9zlg9s"><path d="m6897 1463.5c-103.2-42-421.9-294.7-535.3-374.4-98.8-69.4-210.2-128.2-302.9-204.9 199.4 82.7 362.3 225.5 541.4 342.7 124.3 81.4 259.2 146 376.2 238.3 36.9 23.5 69 48.9 102.1 77.4-62.9-20-128.7-37.9-181.5-79.1z" style="fill: rgb(0, 67, 105);"/></g><g id="__id93_spm9zlg9s"><path d="m5117.6 2563.7c160.6-9.8 320.7-11.9 481.4-20.1 122.8-6.2 252.3-22.2 374.9-16.7 19.6 0.9 32.9 4.9 50.1 15l9.5 19.9-8.1 10.9c-85.4 11.9-176.4 6.8-262.6 7.4-242.9 1.5-489.6-14.1-731.4 7.3-96.3-3.4-192.6 20.5-291.6 15.8l7.8-10.2-27.8 6.3 6.3 2.6c24.7-18.4 316.3-23 373.3-34.4 6.1-1.2 12.1-2.6 18.2-3.8z" style="fill: rgb(0, 67, 105);"/></g><g id="__id94_spm9zlg9s"><path d="m4786.4 2487.9l19.3-0.7c4.6 28.3 1.6 38.3 23.8 57.5 28.6-0.7 55.4-5.1 83.5-10.1l-1 5.1 14.6 3.3-5.8 2.8 12.1-1.3c68.9-6.7 118.9 11.6 184.7 19.2-6.1 1.2-12.1 2.6-18.2 3.8-57 11.4-348.6 16-373.3 34.4l-6.3-2.6 27.8-6.3-7.8 10.2c99 4.7 195.3-19.2 291.6-15.8l-7.6 21.6c-145.3 22.8-292.3 17.9-438.9 15.7-121-15.4-250.3-9.7-372.5-11.6 50.9 0.6 106 7.7 152.5-15.5l2.9-9.1-31.6-5.1c40.8-13.8 101.2-3.5 145.9-8.2l-1.2-10.6c75.7 4.6 238 21.8 303.3-11.8z" style="fill: rgb(80, 122, 131);"/></g><g id="__id95_spm9zlg9s"><path d="m7653 1831.4c-77.4-21-434.7-220.2-508.9-272.5-126-88.8-234.3-185.8-376.9-249.3 90.5 18.3 154.7 63.2 234.6 104.3 174.9 90 338.9 172.2 494.8 294.2 20.3 16.8 40.4 35.1 61.6 50.9 31 22.9 67.6 45.2 94.8 72.4z" style="fill: rgb(0, 67, 105);"/></g><g id="__id96_spm9zlg9s"><path d="m7452.7 2566.8c-281.9 7.3-562.2-1-843.8 0.4-171.9 0.9-351.4 17.1-522.2 7.4-22.3-1.2-31.5-2.1-46.5-19.6l13.5-16.9c81.9-40.5 767.9 8.9 914.2 11.9q218.9 6.1 437.8-3.4c210.6-8 428.5-25.4 636.8 12-191 34.8-396.6 14.2-589.8 8.2z" style="fill: rgb(0, 67, 105);"/></g><g id="__id97_spm9zlg9s"><path d="m3519.1 1067.2c53.2-28.4 103.1-54.9 161.5-71.5-20.9 58.1-282.8 263-342.3 283.1-15.6 5.2-23.4 1.1-38.6-2.2-99.4-21.1-165.4 88.4-256.3 108.3-93.9 20.7-194.3 126-267.3 130.2l1-10.6c17.3-14.3 29.1-19.5 49.9-27.4 80.4-30.4 162.7-113.1 237.2-162.1 85.6-56.3 178.8-98.8 265.2-153.2 63.2-39.7 121.1-91 180.1-136.8l-15.4 0.5 33.1 3.5-36.5 30.9 0.1 12.6c10.7-0.2 18-2.3 28.3-5.3z" style="fill: rgb(0, 67, 105);"/></g><g id="__id98_spm9zlg9s"><path d="m5415.7 2828.1c467.6-27.5 931.4-8.3 1398.7-8.4 129.5 0 258-16.8 387.2-18.3 121.3-1.3 244.7 12.7 366.2 17.5 92.8 3.8 194.7 2 285.6 20.8 52.5-7.8 101.9-11.7 154.9-11.1l10 24.7 4.9-0.8-3.2-23.7 13.5 21.6 7.2-20.3c10.7 1.5 4.3-0.7 15.2 13.5-59.1 19-144.8 22.6-205 4.6-306.2-7.7-613.5 3.5-919.7 6.3l-1523 2.1z" style="fill: rgb(0, 67, 105);"/></g><g id="__id99_spm9zlg9s"><path d="m4879.3 2864.9c-602 22.5-1206.5-9.8-1808.8-8.9-111.8 0.2-568.9 26.5-623.3 12.1 77.7-43.8 871.3-78.7 1002.5-73.5 171.1 6.9 339.9 38.7 511.3 40.6 130.2 1.5 260.2-11.4 390.4-15.1q265.8-4.9 531.3 8.3c70-11.9 166.9-12 238.1-6.7 36.4 8.2 55.1 6.9 80.8 34.8z" style="fill: rgb(0, 67, 105);"/></g><g id="__id100_spm9zlg9s"><path d="m7241.4 2162.1c240.5 86.5 485.2 212.4 698 352.9-218.4 12-443.8 0.5-663 1.5-2.6-119.2-15.7-236.8-35-354.4z" style="fill: rgb(0, 67, 105);"/></g><g id="__id101_spm9zlg9s"><path d="m5552.3 2313.3c-12.5-352.8-38.1-723.8-8.8-1075.5 18.1 133.1 46.4 269.2 78.3 399.7 0.2 54 13.9 111.9 22.9 165.2 25.1 147.8 59.1 293.3 92.6 439.4 20.2 88 46.8 178.6 54.3 268.7l-235.3 12.2z" style="fill: rgb(0, 67, 105);"/></g><g id="__id102_spm9zlg9s"><path d="m3015.7 1872.4l9.1 7.7c-25.6 205.6-22.1 408.1-18.5 614.6-285.1 13.3-573.4 23-858.8 15.8l-8.3-3.2-2-10.4c76.6-63.6 169.6-108.8 251.5-165.7q317.7-223.7 627-458.8z" style="fill: rgb(0, 67, 105);"/></g><g id="__id103_spm9zlg9s"><path d="m6481.7 1761.4c42 29.1 87.1 53.6 131.3 79.1 18 122.2 29.3 252.4 16.1 375.6-5.1 47.8-24 93.6-26.4 141.2 61.6-137.5 56-365.4 22.9-512.3 181.9 105.5 370.9 195.3 558.9 289 10.2 35.7 16.7 71.9 23.5 108.2 16.3 89.7 22.8 183.1 33.3 273.7-38.5 1.6-76.4 5.2-114.3-3.2-18.8-42.6-23.2-96.3-31.6-142.1l-4.1 5.1c13.8 44.5 17.4 94.6 24.3 140.8-243.9 3.6-485.9-18.5-729.3-16.3 81-224 89.7-501.3 95.4-738.8z" style="fill: rgb(0, 67, 105);"/></g><g id="__id104_spm9zlg9s"><path d="m3006.8 2894.7l134.3 0.4-142.2 151.6c56.7-38.7 108.7-114 167.9-143.1 17.8-8.8 33.9-6.6 51.1 1.2-9.3 33.8-135.9 149.4-168.2 194.8l18.9-12.8-18.9 13.3 7.1-11.5 7.3 2.5c56.8-55.2 127.2-144.9 196.4-179.8 24.1-12.2 46.8-19.1 73.4-11.4l5.9 14.5c-16.6 39.8-283.3 293.1-340.2 355.9-204.5 226.3-412.1 452.1-612.5 681.9l-253.3 289.5c-52 60-102.5 128.4-163.8 179-30.8 1.5-58.6-21.6-83.9-37.6 226.4-176.5 403.4-384.9 592.8-597.4 85.4-87.4 165.7-185 231.6-289.1l-6.5-0.3c-144.3 125.4-244.2 278.4-367.8 422-118.8 138.1-249.2 253.1-377.6 380.5-28.4 28.2-51.4 61-80.3 88.5-22.7-3.7-21.4-3-35.3-21.3 4.5-59.6 134.6-162.7 178.5-214.9l-8.9-10 8.2-4.5v0.4c-56.2 58.7-125.7 149.2-202.4 177.5l-13.8-7.2c-1.5-11.7-2.2-12.4-0.5-26.1 19.5-164.8 534.1-688.3 659.4-829.7 105.6-119.2 202.6-245.8 314.7-359.2 70.8-71.5 150.7-134 228.6-197.6z" style="fill: rgb(0, 67, 105);"/></g><g id="__id105_spm9zlg9s"><path d="m7952.7 4218.9c-162.5-156.7-310.2-322.4-466-485.2-186.9-195.3-378.6-385.8-567-579.7-71.2-73.2-218.3-188.2-268.9-264 75.5 11.4 412.1 395.2 507.8 476.7-87.5-128.7-319.7-348.3-437.4-471.8l431.5-3.9c76.6 77.4 146 161.9 220.6 241.2 235.7 250.6 490.7 513.4 766.8 719 3.6 46.5 4.1 93.4 5.8 139.9-153.6-68.6-226.6-118.7-327.6-253.2l-0.5 7.1 14 6.1-11 1.7c21.1 48.4 50.9 94.4 77.1 140.3-138.4-116.1-251.1-264.7-408.7-359.5l-3.1 9.4c47.4 57.9 112.4 103.8 167.4 154.7 39.6 36.8 70 81.6 109.8 118.4 49.2 45.5 109.4 81.5 161.3 124.3 73.6 60.7 141.1 135 221 187 2.2 59.5 5.5 119.6 3.7 179.1l-15.4 1.3 8.6 14.6 8.8-1.5c-12.5-8.1-24.5-12.3-31.2-25.9-25.9-52.6-723-761.6-819.6-853.4l-1.9 8.4c-4.4-15.6 0.1-10.5-10.3-17.5l10.6 18.9-6.9-16.2-4.9-1.5c55.1 82.1 129.8 157.4 194.1 232.7 153.1 179.4 304.2 358.2 476.3 520.1-50.7-112.4-231.7-250.2-316.8-353.5l12.1 3.1-17.3-11.9c13.9-1 24.8 11.7 34.9 20.6 37.9 33.6 68.1 76.9 104 112.9 129.3 129.9 256.6 261.3 374.4 402l-19 31.3 2.9 0.5-6.6-5.1c-57.1-44.9-131.5-108.5-173.4-167.5z" style="fill: rgb(0, 67, 105);"/></g><g id="__id106_spm9zlg9s"><path d="m5536.1 1082c159.4 63.8 405.8 234.8 536.6 351.3 55.4 297.9 73.8 600.8 82.5 903.3 0.1 3.6-1.2 16.4-1.6 20.5l7.4 15.4 9.9-9.3-1.8-10.4c-23.9-146.2-17.8-301.6-24-449.9q-10.7-225.8-49.2-448.7c47.3 43.4 98.1 81.6 146.3 123.6 6.3 81.8 7.6 178.2 30.3 256.7-2.1-81.8-8.3-163.2-11.3-244.9l167.1 132.1-1.2 136.4c-15.7 216.8-62.2 429.1-79.1 644.3l-294.2 6.2c-5.2-221.5-33.4-443.5-55.7-663.9-14.6-145.1-20.4-302.6-57.4-443.7-2.3-8.7-4.2-17.5-6.3-26.3 18.4 193.5 16.5 386.8 28.2 580.5 11.1 182.7 36.1 365.7 43.1 548.4q-100.4 3.8-200.9 5.3l-123.3-593.9c-18.8-90.5-31.3-189.8-59.7-277.5-19.5-186.6-73.1-367.6-85.7-555.5z" style="fill: rgb(0, 67, 105);"/></g><g id="__id107_spm9zlg9s"><path d="m3949.6 1202.1c82.5 66.1 11.3 1045.7 9.6 1185.7-0.6 51.7 3.6 100.9 11.8 151.9l-138-4c-0.6-208.9 62.7-478.4 85.6-694.8 14.1-133.2 3.9-270.5 0.4-404.4-29.7 99.1-5.7 211.2-13.7 313.6-9.1 117.8-29.9 235.8-43.3 353.4-16.4 144.1-25.7 288.3-40 432.5-159.7-8-320.1-13.2-479.1-30.8q1.5-210.7 9.6-421.3c4.1-91.2 16.1-186.4 8.5-277.4-8.4 48.2-14.5 96-19.4 144.7-24.4 117.8-21.3 262.9-20.8 383.3 0.2 46.2 8.3 105.9-0.9 150.2-2.7 13.5-11.5 14.5-22.3 21.4-24.7 1.4-36.1 0.1-58.2-11.5-65.3-157.6 68.8-568.4 37.3-735.9-9.3 77.6-12.7 155.9-23.1 233.3-9.3 69.4-26.3 139.4-32.4 208.9-8.5 98.9-6.2 200.3-5.9 299.5-62.4-3-125.1-3.4-187.6-4.9 23-195.1-5.8-394.9 25-588.2 4.5-27.6 8.9-64.2 32.3-81.1 2.3 1.8 4.8 3.3 6.8 5.4 55.6 57.3 32.5 260.4 34.1 337.1 1.3-8.2 2.4-16.4 3.7-24.6 19.6-115.2 5.1-234.6-17.1-348.6 143.8-109.3 295.4-206.9 443.5-310 132.6-92.3 261.1-190.7 393.6-283.4z" style="fill: rgb(0, 67, 105);"/></g><g id="__id108_spm9zlg9s"><path d="m3089.8 1509.3c2.8-4.7 4.8-9.9 8.3-14.1 30.8-36.9 296.4-214.9 360.7-261.8 88.5-64.5 148.5-150.3 232.1-216.3 49.1-38.9 114-67.3 167.9-100.2 227.3-139.1 438-264 694.4-344 57-17.8 115.2-39.4 174.8-45.4l18.5 16.9c10.6 28.7 12.1 45.1 10.4 75.7-20.1 27.4-67.7 32.6-99 47.8-41.8 20.4-83.5 56.8-121.8 84.2-293.8 210.4-600.3 401.6-897.3 607.6-108.3 86.3-241.4 185.9-367.2 243.9-101.8 98.9-258.2 133.9-358.4 228.5 2.6-0.9 5.3-1.8 7.9-2.7 43.5-15.8 92.9-58.3 136.2-63-21.9 29.3-249.2 204.4-285.2 220.7-144.8 106.8-291.8 216-442.3 314.6-157.9 103.5-321.8 198.5-481.9 298.6-110.9 69.4-219.2 152.5-334.3 213.8-99.3 52.9-211.7 73.9-312.8 124.7 56.5-46.4 117.5-91.4 167.2-145l0.4-8c-27.9 13.6-48.9 42.1-73.5 61.5-45.4 35.9-96.2 69.3-147.1 97.1-31.3-13.2-65.4-24.3-90.1-48.3 8.2-25.5 22.5-35.2 43.6-51.9 49.4-39.2 106.2-70.1 158.8-104.6 145.2-95.4 316.6-205.2 434.8-331.7-61.4 32.1-122.4 55.3-188.2 77l-4-6.4 5.3-16.9c-38.9 7.7-70.4 36.6-101.6 59.3-76.7 56-185.6 85.7-272.7 124.3-80.5 35.6-159.8 77.4-237.6 118.7 28.6-26.8 58.2-56.9 91.9-77.2 104.1-62.9 228.2-103.3 337.8-157.3 84.5-41.6 170-103.6 257.9-134.8-7.1 18-20.1 24.1-35 35.7 42.8-10.5 120.9-19.5 152-47.9-17.3-5.1-33.5-7.7-51.4-9.9l1.6-4.9 7.2 8 11.9-1.4-6.2-20.1c90.2-61.3 184.2-114.6 278.9-168.4 86.9-45 171.1-90.8 253.7-143.4 35.6-28.2 72.1-54.8 109.1-81.1-80.8 26.7-158.8 91.9-233.3 134.7-74.7 42.8-153.3 78.8-228.5 120.7-124 69-236.6 139.9-368.3 194.2 2.7-2.4 5.3-5 8.1-7.3 49.2-40.9 112.3-73.3 166.9-107.6 208.3-131 427.3-242.6 637.4-370.2 129.9-79 249.6-182.4 373.1-271.4 141.2-101.9 283.7-186 434.3-272.4 42.2-24.3 112.5-77.4 158.8-75-30.8 40.4-95 70.1-138.9 95.7-212.6 123.9-399.5 268.4-595.5 415.5-53.2 40-112 73.3-163.8 114.5l-13.7 11.1c77.9-31.2 149.9-86.1 219.8-132.3 38.2-31.2 76.3-57.2 118.4-82.6 27.7-44.6 173-120.4 223.6-151.6 37.5-23 90.6-62.7 134.3-66 16.8-1.3 34.7-1 51.6-1.9z" style="fill: rgb(0, 67, 105);"/></g><g id="__id109_spm9zlg9s"><path d="m4639.9 738c3.9 129.8-12.7 262.4-14.2 392.7-2.4 209.4 6.6 419.2 5.2 628.7-1.4 212.9-13 423.8-7.1 636.9 16.2-52.5 7.5-135.5 9.7-193.2 6.1-169.6 13-338.3 11.7-508-1.1-149.3-9.9-298.2-10.1-447.4-0.1-106.6-10.1-416.2 19-503.2 4.5-13.3 15.8-26.2 26-35.5 19.5-17.8 37.4-25.2 63.3-23.3 2.5 6.4 6.5 12.4 7.3 19.2 5.8 47-25.8 157.4-32.2 211.8-7.9 67-8.9 134.5-9.2 201.9-1 262.8 18.7 523.5 33.9 785.7 11.2 194.2 14.1 391.1 43.2 583.6l-2.2 64.9c-65.3 33.6-227.6 16.4-303.3 11.8-168-25.2-333.7-30.7-503.1-28 39.6-446.2 116.6-931.6 11-1373.7 212-148.3 437.7-277.5 651.1-424.9z" style="fill: rgb(0, 67, 105);"/></g><g id="__id110_spm9zlg9s"><path d="m4776.5 687.3c231.8 115.8 470.1 224.2 697.9 347.3 9.1 246.7 6.1 493.4 14.5 740 8.5 249.8 28.3 501.4 30.1 751.1-164.4-1-461.7-40.4-606 8.9-28.1 5-54.9 9.4-83.5 10.1-22.2-19.2-19.2-29.2-23.8-57.5-16.4-272.8-18.6-546.6-28.7-819.8-9.9-268.1-42.9-726.2-0.5-980.1z" style="fill: rgb(0, 67, 105);"/></g><g id="__id111_spm9zlg9s"><path d="m6999.8 1984c-311.7-156.4-550.7-421-858.3-580.5 136 125 303.1 219.8 433.4 349.5-193.3-123.5-368.7-269.4-553.7-404.2q-310.4-222.9-638.5-418.8c-65.9-39.5-576.3-300.4-579.4-303.8-21.7-24.1-33.3-79.9-42.7-111.4 12.3-11.7 80.8-9 100.4-8.4 181 5.5 581.3 254.7 759.1 337.2 148.3 68.8 299.1 123.6 443.5 202.9 167.9 92.3 315.6 212.4 480 309.1 219.9 129.4 447.9 243.9 667.6 372.6 135.8 79.6 263.3 171.4 401.6 247.5 167.5 92.2 341.1 173 509.7 263.4-73.5-69.2-165.7-110.9-254.3-157.2-209.2-109.2-462.8-220.6-627.7-393.1 150.7 72.3 286.3 169.5 435.9 242.3 185.9 90.5 403.1 150.6 574.6 265.3 104.2 69.7 190.2 175.1 288.9 254.2l-12.3-5.6c-121.4-55.3-225.7-137.3-350.9-187.4l-0.9 3 7.6 3.5c145.6 68.5 308.5 183.2 430.7 288.5l-0.1 0.5c-74-35.5-365.9-228.8-376.4-225.2l22.1 16.2-17.8 4.3 10.8-8.3c65.9 52.3 132.3 110.6 205.1 152.8 69.9 40.5 146.8 69.7 214.5 114 102.7 67.2 193.9 162.4 292.3 237.4-40.7 8.5-81.4 15.7-120.5 30.2-22.8-15.9-73.5-44-84.6-69.3l-64.6-17.4 157.1 106.9c-311.7-106.4-797.9-437.8-1082-629.8-71.1-48.2-250-190.9-323.4-214.7 114.4 116.5 673.4 497.4 822 557.2l9.8 14.3c-38.8 3.1-1145.8-588.8-1254.2-652.6q-102.5-60.3-193.4-136.8c-34-28.8-84.3-91.6-123.5-106.2 17.3 59.7 232.4 212.8 292.5 257.9z" style="fill: rgb(0, 67, 105);"/></g><g id="__id112_spm9zlg9s"><path d="m2457.7 2542c301.8-29 784-26.6 1085 5.8q-147.7 6.1-295.4 6.6c-53.3 17.6-111.2 11.9-166.7 12.4 5.7 2.7 16 6.3 20.4 10.7 135.3 2.2 272 8.6 407.2 3.6 50.2-29.2 202.8-16.5 262.6-9.4 30.9 19.6 74.4 27.7 110.7 24.5l1.4 20.8c233 1.1 469.3 21.4 702 7.7 146.6 2.2 293.6 7.1 438.9-15.7 143.4-5.5 294.3-17 437.4-3-77.2 10.7-172 7.6-244.5 31.9-126.3 42.2-209.6 116.2-349.8 141 148.3 3.6 262-97.8 399.8-132.8 110.8-28.1 248.5-24.5 363.6-31.7 234-14.4 471.5-7.2 705.9-7.3q847.6 2.2 1694.8 28c2.9 39.6 10.8 78.6 17.6 117.7-48.6-1.3-97.7-1.3-146.1-5.2l-15.2-1.3 9.5 6.1-22.8-2.5c17.4 10.1 10 8.4 29.8 9.8 22.3 1.5 44.7 1.4 67 3.9 29.4 3.3 72.8 16.9 91.8 39.8-100.3 36.9-705.9-23.2-867.8-15.3-115.9 5.7-230.5 16.1-346.8 16.3-271.8 0.6-542.8-18-814.8-13.8l-1143.4 15c-129.7 0.5-259.4-10-389.2-8.5-145.3 1.6-289.2 27.8-434.7 26-236.8-2.9-471.4-50.7-707.1-47.6-257.9 3.4-528.7 32.1-785.4 59.8-139.4 15.1-288.5 56.9-428.4 38.8-19.7-13.7-18.4-41.7-23-64.9 17.8-49.5 86.3-24 125.7-47.6l-11.3-3.7 11.4 2.2-6.5 5.3-9-7c-38.3 4.6-76.2 14-114 22.2 1-82.3 5-164.8 7.6-247.2q165.8 6.6 331.8 8.6z" style="fill: rgb(0, 67, 105);"/></g><g id="__id113_spm9zlg9s"><path d="m2209.2 2619.1c122.3-2.9 244.3-18.7 366.1-19.9 81.9 19.2 155 26.9 238.9 18.2l-6.2 13.4c9.4 4.2 16.2 7.4 26.5 8.9-110 29.1-495.3-7.7-625.3-20.6z" style="fill: rgb(80, 122, 131);"/></g><g id="__id114_spm9zlg9s"><path d="m2532.4 2580.2c80.8-2.3 162.6-15.3 243.8-19.6 156.6-8.2 314.2-8 471.1-6.2-53.3 17.6-111.2 11.9-166.7 12.4 5.7 2.7 16 6.3 20.4 10.7-78.7 0.9-156.4 1.3-234.5 12.4 10.7 20.1 2.7 13.7 22.9 20.6-25.1 3-49.9 6.1-75.2 6.9-83.9 8.7-157 1-238.9-18.2-121.8 1.2-243.8 17-366.1 19.9l-42.7-8.3 2.7-5.7c119.9-14.4 242.6-17.6 363.2-24.9z" style="fill: rgb(80, 122, 131);"/></g><g id="__id115_spm9zlg9s"><path d="m2575.3 2599.2c92.8-22.9 197-20.3 291.2-9.3 10.7 20.1 2.7 13.7 22.9 20.6-25.1 3-49.9 6.1-75.2 6.9-83.9 8.7-157 1-238.9-18.2z" style="fill: rgb(80, 122, 131);"/></g><g id="__id116_spm9zlg9s"><path d="m3508.2 2581.1c50.2-29.2 202.8-16.5 262.6-9.4 30.9 19.6 74.4 27.7 110.7 24.5l1.4 20.8c-349.3 3.2-699.8-1.1-1048.4 22.7-10.3-1.5-17.1-4.7-26.5-8.9l6.2-13.4c25.3-0.8 50.1-3.9 75.2-6.9-20.2-6.9-12.2-0.5-22.9-20.6 78.1-11.1 155.8-11.5 234.5-12.4 135.3 2.2 272 8.6 407.2 3.6z" style="fill: rgb(80, 122, 131);"/></g><g id="__id117_spm9zlg9s"><path d="m3101 2577.5c135.3 2.2 272 8.6 407.2 3.6-104.6 58.9-478.3 22.5-618.8 29.4-20.2-6.9-12.2-0.5-22.9-20.6 78.1-11.1 155.8-11.5 234.5-12.4z" style="fill: rgb(0, 67, 105);"/></g><g id="__id118_spm9zlg9s"><path d="m8066.8 2590.5l143.5 72c154.9 38.2 291.2 95.6 417.4 196-4.6 160-12.8 320.3-15.4 480.3 1.6 120.6 57.5 328.4 34.4 433.3 25.8 174.2 43.4 358.2 40 534.4-16 362.5-13.2 730-8.5 1092.9 3.2 251.8 82 2208.5 10.6 2294.5-22.3 2.7-31.3 0.1-51.3-10.1 47.4-151.6 40.1-558.7 38-729.3 7.5-264.3 10.8-534.7 0.7-798.8-7.3-193.5-26.5-386-31.7-579.9-7.2-263.5 8.2-526.5 0.8-789.6-51.5 441.3-11.5 895.9-3.3 1338.7 6 328.6-10.1 660.7 9.6 988.4-2.1 187.2-3.3 382.7-23.2 568.8-70 52.1-369.1 25.4-469.2 19.9 34.7-183 11.7-449.6 13.3-644.4 1.9-233.7 16.4-467.7 27.8-701.2-4.6-185.5 0.3-372.8 1.6-558.4-5.9-404.5-19.4-809-21.8-1213.5-0.8-120.3 10.6-240.3 9.7-360.6-0.8-114.6-15.2-228.9-18.8-343.5-11.7-378.5-16.8-737.6-77.5-1114-12.4-58.3-19.6-116.8-26.7-175.9z" style="fill: rgb(0, 67, 105);"/></g><g id="__id119_spm9zlg9s"><path d="m8201.9 5798c11.2 52.1 7 102.9 11.3 155.5 9.3 112.4 52.9 250.6 27.9 361.8q-12.1-38.3-25-76.4c0.2 43.2 0.3 76.5-15.8 117.5-4.6-185.5 0.3-372.8 1.6-558.4z" style="fill: rgb(80, 122, 131);"/></g><g id="__id120_spm9zlg9s"><path d="m8656.5 4306.4c0.3 57.5 7.8 240.7-14.4 289.1-15.6-140.6-6.1-286.1-12.1-427.9-10.9-260.1-50.7-572.1-17.7-828.8 1.6 120.6 57.5 328.4 34.4 433.3-20.8 173.7 2.5 359.9 9.8 534.3z" style="fill: rgb(80, 122, 131);"/></g><g id="__id121_spm9zlg9s"><path d="m2027.6 2547.8c12.6 4.2 5.6 0.7 19 13.7-0.6 87.5-17.9 178.1-23.3 266.1q-15.3 272.5-12.2 545.4c20.2-82.5 20.8-426.4 63-463.1l10.2 9.6c20 72.9-7.9 350.7-9.2 441.2-2.2 158.6 13.5 321.7-4.8 479.4-18.5 26.3-38.8 50.1-60 74.3 1.9-132.6-5.4-259.4-22.7-390.6-25 123.2-10 293.8 4.3 419.1-109.6 144.6-201.5 230.8-201.1 422.9 43.7 45.3 104.1 79.5 156.9 113 4.1-2.7 8.1-5.6 12.2-8.3 87.2-57.9 196.3-214.8 269.9-299.8 318.6-368.2 631.7-745 975.9-1089.5 53.5-53.5 109.6-128.4 171.9-170.5 17.5-11.9 18.4-12.9 39.8-8.8-36.6 58.4-103.2 112.9-151 163.8l-371.5 397.6c-203.3 220.2-390.1 451.7-585.5 678.4-81.7 94.8-197.3 192.9-253.9 304.6-1.5 2.9-2.9 6-4.4 8.9 10.1 203.3-0.4 410.3-5 613.7-2.6 115.3 3.9 234.7-6.5 349.2-28.4-26.8-12.8-571.2-31.8-682.5-0.7-3.9-1.4-7.7-2.2-11.6-6.9 146.4 3.9 296.6 7.9 443.1-4.1 129.8 10.3 255.4 14.7 384.6 8 230.1 7.2 466.5 1.5 696.8-9.1 359.8-76.3 736-50.9 1092.7 4.5-165.9 16.8-332 25.3-497.7 6.6-129.4 7.2-262.2 27.4-390.1l2.6-15.5c23.2 429.3 15.7 860.8 29.8 1290.8-178.6 33.7-384.2 16.1-565.5 10.7-19.5-328.4-2.5-661.6 1.4-990.5 10.9-916 58.7-1830.3 72.1-2746.1 1.8-125.1 2.7-251.9 11.6-376.7 11.4-157.9 43.2-305.3 15.8-464-1.7 87.8 2.4 180.2-9.4 267-13.8-110.1-7.6-488.8 9.7-599.7q173.7-123.1 351.6-240c-34.3 182.2-29.4 363.5-16.3 547.2 0.4-2.7 0.7-5.4 1-8.2 18.1-131.4 13.6-264 24.3-396 5.8-71.6 10.8-136 67.4-184.6z" style="fill: rgb(0, 67, 105);"/></g><g id="__id122_spm9zlg9s"><path d="m1668.3 5980.1c2.9 4.4 6.4 8.5 8.7 13.2 23.5 49.5 9.4 157.2 8.6 214.1-2.6 199.3-23.6 397.8-29.4 596.8-3.5 123.6 9.2 611.6-14.8 700.8-17.8-52.3-17-105.3-30.8-158.2l-2.2-8c-20.3-98.4-34-685.8-0.3-755.2 13.5 45.4 7.6 90.1 15.7 136 0.7 4.5 1.6 8.9 2.4 13.3l-2.7-4.3 10.5 17.5c54.5-192.5-14.6-598.2 34.3-766z" style="fill: rgb(80, 122, 131);"/></g><g id="__id123_spm9zlg9s"><path d="m6833.1 6091.1c-15 0.9-28.9 16.2-37.9 26.4-1.7 2-4.7 4.4-3.9 6.9 0.8 2.5 4.6 2.8 7.2 3.2 7.6 0.9 15.5 1 23.2 0.7 13.1-0.4 26.2-1.3 39.2-2.9 64.9-8.1 92-33.3 147.6-61.5 4.3-2.2 8.8-4.3 13.2-6.4 10.4-5 42.2-11.8 36.7-30.8-3.3-11.3-35.7-15.7-46.9-13.2-20.9 4.6-34.4 25.3-53.6 33.3-22.8 9.6-58.7 17.2-82.5 22.8-14.2 3.3-28.6 6.3-42.4 11.1-4 1.4-11.3 2.6-13 7" fill-rule="evenodd" style="fill: rgb(80, 122, 131);"/></g><g id="__id124_spm9zlg9s"><path d="m3658.7 7423.3c-1.9 0.2-3.5 2.7-4.6 4-4.9 5.8-6.7 18.8 4.5 17.5 6.8-0.8 15.6-13.9 10.6-20.2-2-2.6-6.8-1.8-9.6-1.8" fill-rule="evenodd" style="fill: rgb(80, 122, 131);"/></g><g id="__id125_spm9zlg9s"><path d="m1027.8 2753.9c-7.7 0-17.6-1.6-23.9 4.1-7.1 6.6-10.2 28.9-6.8 37.3 2.5 6.4 10.2 11 16.5 12.8 4.1 1.2 13.4 3.6 17.5 0.8 10.8-7.2 10.2-28.8 8.1-39.3-0.7-3.5-9-13.8-6-16.3" fill-rule="evenodd" style="fill: rgb(80, 122, 131);"/></g><g id="__id126_spm9zlg9s"><path d="m1665.5 2358.7c0 5 0.7 11.1 3.3 15.5 1.3 2.3 4.3 5.5 3.3 8.5-2.8 8.7-20.5 8-27.3 8-3.5 0-7.1 0.4-9.6-2.5-2.5-3-1.1-10.3-0.7-13.7 0.8-6.4 4.8-19 10.9-22.2 4-2.1 9.2-1.3 13.6-1.3" fill-rule="evenodd" style="fill: rgb(80, 122, 131);"/></g><g id="__id127_spm9zlg9s"><path d="m2235.6 2766.4c1.8 0 3.5-0.3 5.2-0.8 1.1-0.2 7.9-3.5 5.6-5.6-0.8-0.7-3.1-0.8-4.1-1-3.1-0.8-13.4-2.3-15 2" fill-rule="evenodd" style="fill: rgb(80, 122, 131);"/></g><g id="__id128_spm9zlg9s"><path d="m7893.2 2746.5q-7.6-0.3-15.3-0.3c-0.8 0-4.7-0.5-5.2 0.1-0.7 0.8-0.1 3.2 0.7 3.6 2.4 1.2 5.2 1 7.6 2 2.5 1 4.6 3.3 7.1 4" fill-rule="evenodd" style="fill: rgb(80, 122, 131);"/></g><g id="__id129_spm9zlg9s"><path d="m7887.3 2751c1.8 1.2 11.4 8.1 12.9 2.6 1.7-5.7-9.3-5.1-12.1-4.4" fill-rule="evenodd" style="fill: rgb(80, 122, 131);"/></g><g id="__id130_spm9zlg9s"><path d="m8018.6 2849.2c0.1 1.5 0.5 3 0.8 4.5 0.6 2.8 0.1 5.1 3.4 5.1 0.5 0 1.8 0.1 2.1-0.4 1.1-1.9-0.8-9.3-1.8-11.3" fill-rule="evenodd" style="fill: rgb(80, 122, 131);"/></g><g id="__id131_spm9zlg9s"><path d="m8032.1 2846q0.3 1.7 0.7 3.3c0.2 1 0.5 2.1 0.8 3 1 3.2 3 3.2 3.3-0.4 0.3-4.4 0.3-8.7 1-13 0.1-0.8 0.3-2.8 1-3.4" fill-rule="evenodd" style="fill: rgb(80, 122, 131);"/></g><g id="__id132_spm9zlg9s"><path d="m8015 2823.4c-2.2 2 2.2 9.9 2.8 11.6 1.5 4.3 6.3 25.8 10 27.9 12.2 6.7 27.3-1.4 39.6-3.7 3.6-0.7 9.8-0.3 13.1-2.4 4.4-3-6.2-19.1-7.2-21.1-7.5-14.5-52.2-17.8-58.3-12.3z" fill-rule="evenodd" style="fill: rgb(80, 122, 131);"/></g><g id="__id133_spm9zlg9s"><path d="m3509.6 1014.2c-7.7 2.4-12.7 3.5-19.5 6.7-1.5 0.6-4.9 2.5-5.1 4.6-0.2 2.1 3.7 2.2 5.7 2.3 10.1 0.3 11.8 0.2 20.7-3.7 3.7-1.6 8.5-8.6 2.7-11.1-2.6-1.1-5.6-0.3-8.2 0.5" fill-rule="evenodd" style="fill: rgb(80, 122, 131);"/></g><g id="__id134_spm9zlg9s"><path d="m1325.1 2260.4c25.4 0 47.9-6.7 72.1-14.1 9.6-2.9 19.4 1 29-0.7 14.9-2.7 28-13 41.5-19.3 11.4-5.3 23.7-8.9 34.2-16 2.1-1.4 12.1-7.5 6.4-10.9-12.4-7.2-32.3 5-44.1 8.9-29.6 9.6-56.2 27.1-86.8 34.7-13.4 3.3-27.1 3-40.8 3" fill-rule="evenodd" style="fill: rgb(80, 122, 131);"/></g><g id="__id135_spm9zlg9s"><path d="m7830.2 3752.4c0-4.5-6.2-10.2-9.2-13-0.5-0.4-2.7-3.2-3.7-2.6-0.6 0.5-0.1 4.7-0.1 5.4 0.1 5.6 4.9 11.9 7.6 16.6" fill-rule="evenodd" style="fill: rgb(80, 122, 131);"/></g><g id="__id136_spm9zlg9s"><path d="m7649.5 3834.8c4.8 0 13.6 3.5 17.9 1.3 5.5-2.8-5.5-10.6-7.1-11.6-6.6-4.1-14.9-7.7-22.8-6.6-4 0.6-8.8 6.7-6 10.7 1.8 2.4 5.8 1 7.6 2.6" fill-rule="evenodd" style="fill: rgb(80, 122, 131);"/></g><g id="__id137_spm9zlg9s"><path d="m8149.7 4309.1c-4.4 0-15.6-2.2-18.1 2.4-5.7 10.6 11.6 23 21 18.5 8.5-4.1 0.8-18.8-0.1-22.1" fill-rule="evenodd" style="fill: rgb(80, 122, 131);"/></g><g id="__id138_spm9zlg9s"><path d="m7304.1 3443.7c-1.7-2.1-4.8-2.6-7-3.9-2.6-1.6-4.1-4.3-6.4-5.9-0.7-0.4-3.7-1.3-4.4-0.6-1.1 0.9 4.1 5.9 4.8 6.6 5.7 6.2 7 15 15.6 18.6" fill-rule="evenodd" style="fill: rgb(80, 122, 131);"/></g><g id="__id139_spm9zlg9s"><path d="m2012.6 4146.6c0.2-5.3 6.4-10.3 10.1-13.3 1-0.9 4.1-3.1 5.6-1.8 1.2 1.1 1 5.7 0.5 7.1-1.7 4.8-6.5 8.9-9.5 12.9-1 1.2-2.4 3.9-3.7 4.5" fill-rule="evenodd" style="fill: rgb(80, 122, 131);"/></g></svg>