<svg xmlns="http://www.w3.org/2000/svg" xmlns:xlink="http://www.w3.org/1999/xlink" preserveAspectRatio="xMidYMid meet" version="1.0" viewBox="-0.3 -1.6 370.4 434.2" zoomAndPan="magnify" style="fill: rgb(0, 0, 0);" original_string_length="17949" width="199.35576567768214px" height="233.7860791529322px"><g id="__id552_syj4yglxo9"><path d="M40.6,189.91c1.786,5.3,3.487,11.456.492,16.174a14.036,14.036,0,0,1-3.9,3.832c-2.272,1.593-5.007,3.7-9.624,2.414a11.646,11.646,0,0,1-8.236-11.569,10.79,10.79,0,0,0,4.138,3.259c-1.787-4.28-1.224-9.257.547-13.543s4.651-8.009,7.559-11.622c.084,3.113,1.863,5.884,2.98,8.791a21.4,21.4,0,0,1,1.322,9.644A12.218,12.218,0,0,0,40.6,189.91ZM369.3,409.583a3.465,3.465,0,0,1-1.732.943c-28.252,8.741-58.857-.243-88.277,2.765-18.244,1.865-35.919,8.347-54.255,8.706a82.308,82.308,0,0,1-42.774-11.1c-14.091,5.728-29.02,10.865-44.243,9.666-7.219-.569-14.241-2.553-21.207-4.527l-2.614-.74a5.15,5.15,0,0,1-.46,2.909,3.517,3.517,0,0,1-.929,1.065,4.094,4.094,0,0,1,2.092.933c1.51,1.358,1.421,3.71,1.213,5.73a2.031,2.031,0,0,1-.368,1.157,1.979,1.979,0,0,1-.87.488c-14.2,4.977-29.711,3.322-44.754,3.342-12.813.018-25.64,1.3-38.421.39a5.124,5.124,0,0,1-3.078-.919c-1.174-1.023-1.193-2.808-1.12-4.363a2.552,2.552,0,0,1,.561-1.8,2.527,2.527,0,0,1,1.394-.511c1.452-.218,2.913-.4,4.37-.6a6.456,6.456,0,0,1-2.8-1.6c-1.54-1.54-1.92-4.35-.36-5.88,1.26-1.24,3.23-1.28,4.99-1.44,4.633-.436,9.01-2.2,13.264-4.149-.32-.137-.652-.276-1-.418a74.592,74.592,0,0,1,11.023-5.563,5.71,5.71,0,0,1,1.864-.509,4.366,4.366,0,0,1,1.248.157,91.537,91.537,0,0,0,8.7-5.118c.028.03.059.058.087.088a18.922,18.922,0,0,1-2.843-3.9c-1.875-2.738-2.09-6.237-2.265-9.595l-1.163-22.338c-1.673-32.141-3.346-64.37-1.266-96.488.578-8.926,2.254-19.182,9.961-23.724,2.979-1.756,6.473-2.368,9.882-2.949l33.192-5.658a10.161,10.161,0,0,1,3.182-1.545l13.383-4.534c1.774-.6,3.567-1.2,5.385-1.651h0a267.208,267.208,0,0,1-6.76-26.044c-3.082-13.824-6.109-27.692-8.665-41.629a7.392,7.392,0,0,0-2.382-.062,8.8,8.8,0,0,0-.871.183c-.169.042-.337.091-.5.142s-.316.1-.473.153-.317.111-.474.171-.319.126-.478.192-.313.128-.468.195l-.392.173-.446.2c-7.1,3.18-14.3,6.17-21.6,8.88q-4.026,1.491-8.093,2.869h0l-.084.028q-12.167,4.119-24.656,7.193c-1.7.42-3.45.817-5.2,1.071l2.386,44.949-52.9.9-1.08-65.68,2.248-1.452c-.763-5.442-.924-13.119,2.03-20.478a11.493,11.493,0,0,1-6.888-4.74c-2.62-3.98-2.85-9.02-2.26-13.71.43-3.49,1.36-7.1,3.79-9.7,2.64-2.83,6.6-4.02,10.37-5.09,7.59-2.14,15.59-4.25,23.28-2.49,7.48,1.71,9.42,6.98,10.51,10.89a18,18,0,0,1,.47,2.18c.179.114.345.247.515.374.092.069.19.131.28.2a10.878,10.878,0,0,1,.9.8c.027.028.051.058.078.085q.38.387.728.808c.093.111.179.228.268.342.158.2.313.406.461.617.1.147.2.3.3.447q.182.274.355.557c.105.172.209.344.31.519s.188.337.28.507c.1.192.209.382.307.575.086.168.165.336.246.5s.175.348.255.522c1.271,2.749,2.28,5.68,4,8.148.01.014.018.028.027.042.021.03.047.058.068.089.23.321.468.637.724.94q7.975-1.814,15.848-4.187,7.824-2.352,15.5-5.19l.008.006.116-.042c-.412-2.542,1.854-4.375,3.79-5.419l22.459-12.109a5.958,5.958,0,0,1,.7-2.09,9.756,9.756,0,0,1,3.556-3.113q17.383-10.755,35.226-20.745a36.109,36.109,0,0,1-4.935-8.167c-3.3-7.154-5.564-15.05-4.615-22.871.062.116.117.235.178.351q-.256-1.843-.51-3.689c-6.72-4.253-9.665-13.691-6.405-20.974a26.3,26.3,0,0,1,6.873-8.618A61,61,0,0,1,176.614.406c11.827-2.019,19.739,3.837,24.559,10.085a26.843,26.843,0,0,1,4.756,22.393,14.684,14.684,0,0,1-.95,2.727,3.531,3.531,0,0,1,2.739.372,4.752,4.752,0,0,1,1.69,2.57,11.815,11.815,0,0,1-1.13,9.99,9.881,9.881,0,0,1-3.21,3.06,10.379,10.379,0,0,0,6.91,6.67,9.462,9.462,0,0,1-4.87-.74,7.487,7.487,0,0,0,5.6,5.25,23.231,23.231,0,0,1-11.81,1.78c.115.927.222,1.862.333,2.793.162-.021.324-.046.487-.067,24.128-.939,47.621,10.211,63.246,27.979s23.615,41.6,23.963,65.254a39.632,39.632,0,0,1-8.91,2.458,5.482,5.482,0,0,0-2.074.719c.272-.027.544-.048.816-.078-5.644,23.223-11.3,47.015-16.958,70.807a30.449,30.449,0,0,1-1.121,3.886,51.322,51.322,0,0,0-.6,5.2c-.191,3.362.04,6.731.16,10.1.416,11.653-.5,23.309-1.409,34.934,5.05,2.336,10.2,4.679,13.58,8.883a11.9,11.9,0,0,1,2.848,1.916c3.771,3.533,3.916,9.343,5.609,14.225,4.332,12.491,18.558,18.353,26.639,28.816a5.607,5.607,0,0,1,1.348,2.739,3.033,3.033,0,0,1-.594,2.154,26.073,26.073,0,0,0,3.588,3.164c3.074,2.212,6.67,3.584,9.866,5.617,8.049,5.121,12.946,14.054,15.776,23.164,2.549,8.207,4.767,18.147,12.763,21.293,6.275,2.469,15.042.123,18.778,5.736C369.694,407.246,370.059,408.66,369.3,409.583ZM157.29,80.206c.049.049.1.1.146.149C157.386,80.306,157.339,80.255,157.29,80.206ZM13.026,155.1l9.35-6.038c-.4-.591-.794-1.186-1.189-1.78-1.061-1.592-2.111-3.192-3.132-4.81q-.336-.535-.668-1.08c-.072-.119-.141-.239-.212-.358q-.212-.354-.414-.713c-.1-.175-.193-.35-.288-.526-.1-.193-.2-.387-.3-.582s-.2-.4-.294-.6l0-.006A31.95,31.95,0,0,0,13.026,155.1Zm40.492,64.053-2.06-38.967a13.943,13.943,0,0,1-2.813-.57,14.822,14.822,0,0,1-4.422-2.368,30.887,30.887,0,0,1-5.465-5.662c-.568-.725-1.121-1.457-1.664-2.183q-1.716-2.3-3.427-4.6l-22.549.937V218.9ZM86.251,407.286c-1.679-.547-3.348-1.146-4.968-1.821C82.9,406.14,84.572,406.739,86.251,407.286Zm-8.365-3.408q-.633-.332-1.247-.686Q77.254,403.546,77.886,403.878Zm1.538.762q-.608-.285-1.2-.589Q78.816,404.354,79.424,404.64Zm1.675.746q-.681-.287-1.349-.594Q80.419,405.1,81.1,405.386Zm-8.547-5.058c.233.2.471.393.712.584Q72.9,400.626,72.552,400.328Zm2.47,1.868c.458.3.928.6,1.407.877Q75.711,402.651,75.022,402.2Zm-1.272-.9q.532.4,1.089.775Q74.283,401.693,73.75,401.293Zm-2.3-1.979c.176.174.354.345.536.512C71.805,399.659,71.628,399.487,71.451,399.314Zm37.054,14.367-17.086-4.842c-1.665-.471-3.362-.968-5.051-1.516,1.689.548,3.385,1.047,5.05,1.52Q99.97,411.261,108.505,413.681Z" style="fill: rgb(229, 69, 42);"/></g><g id="__id553_syj4yglxo9"><path d="M369.3,409.583a3.465,3.465,0,0,1-1.732.943c-28.252,8.741-58.857-.243-88.277,2.765-18.244,1.865-35.919,8.347-54.255,8.706a82.308,82.308,0,0,1-42.774-11.1c-14.091,5.728-29.02,10.865-44.243,9.666-7.219-.569-14.241-2.553-21.207-4.527l-25.393-7.195c-9.011-2.553-18.95-5.818-23.427-14.045-1.875-2.738-2.09-6.237-2.265-9.595l-1.163-22.338c-1.673-32.141-3.346-64.37-1.266-96.488.578-8.926,2.254-19.182,9.961-23.724,2.979-1.756,6.473-2.368,9.882-2.949l55.823-9.515a391.571,391.571,0,0,0-12.483-69.278c-.983-1.77-3.568-2.679-6.006-2.33a15.708,15.708,0,0,0-4.1,1.4c-7.107,3.179-14.3,6.169-21.6,8.878a301.536,301.536,0,0,1-32.838,10.094c-4.365,1.074-9.01,2.043-13.288.663-4.975-1.6-8.422-6.025-11.551-10.213-6.582-8.809-13.172-17.63-19.039-26.931-1.6-2.544-3.2-5.255-3.38-8.256-.31-5.046,3.421-9.452,7.49-12.451a40.012,40.012,0,0,1,18-7.368,13.731,13.731,0,0,1,7.047.44c3.23,1.3,5.294,4.465,6.754,7.624s2.573,6.559,4.816,9.22a255.191,255.191,0,0,0,31.477-9.414c-.412-2.542,1.854-4.375,3.79-5.419l28.609-15.425a64.061,64.061,0,0,0,7.968-4.808c2.156-1.6,4.1-3.474,6.208-5.144,7.183-5.7,15.977-8.894,24.6-12,7.757-2.792,10.7-5.914,14.531-6.978a184.733,184.733,0,0,1,25.748-5.2c24.128-.939,47.621,10.211,63.246,27.979s23.615,41.6,23.963,65.254a39.632,39.632,0,0,1-8.91,2.458,3.865,3.865,0,0,0-3.7,3.644c-3.145,11.364-5.56,22.916-7.973,34.458l-6.387,30.551a80.617,80.617,0,0,0-1.873,11.88c-.191,3.362.04,6.731.16,10.1.416,11.653-.5,23.309-1.409,34.934,5.128,2.372,10.37,4.742,13.745,9.071,4.946,6.345,4.79,15.468,9.31,22.125,3.644,5.367,9.806,8.4,14.464,12.912,5.665,5.493,9.094,13.18,15.5,17.789,3.074,2.212,6.67,3.584,9.866,5.617,8.049,5.121,12.946,14.054,15.776,23.164,2.549,8.207,4.767,18.147,12.763,21.293,6.275,2.469,15.042.123,18.778,5.736C369.694,407.246,370.059,408.66,369.3,409.583ZM35.872,197.29a21.4,21.4,0,0,0-1.322-9.644c-1.117-2.907-2.9-5.678-2.98-8.791-2.908,3.613-5.788,7.335-7.559,11.622s-2.334,9.263-.547,13.543a10.79,10.79,0,0,1-4.138-3.259,11.646,11.646,0,0,0,8.236,11.569c4.617,1.286,7.352-.821,9.624-2.414a14.036,14.036,0,0,0,3.9-3.832c2.995-4.718,1.294-10.878-.492-16.174A12.218,12.218,0,0,1,35.872,197.29Z" style="fill: rgb(229, 69, 42);"/></g><g id="__id554_syj4yglxo9"><path d="M278.759,163.621c-5.644,23.223-11.3,47.015-16.958,70.807-.585,2.46-1.22,5.022-2.865,6.942a14.756,14.756,0,0,1-5.657,3.6c-19.568,8.3-41.32,9.4-62.552,10.385a119.623,119.623,0,0,1-14.617.083c-2.786-.211-5.8-.738-7.684-2.8a9.69,9.69,0,0,1-1.835-3.3,2.668,2.668,0,0,0,1.212-.316,2.883,2.883,0,0,0,.821-.867c3.981-5.759,2.9-14.441-3.8-18.245a21.063,21.063,0,0,1-2.316-.175c-.093-1.192-.168-2.385-.206-3.579,21.038-6.876,42.681-6.378,63.058-12a4.755,4.755,0,0,1,4.735-2.744,340.969,340.969,0,0,1,9.284-51.038C253.1,163.607,266.078,165,278.759,163.621ZM90.138,122.3a253.415,253.415,0,0,1-31.35,9.38c-2.25-2.66-3.36-6.06-4.82-9.22-1.23-2.65-2.87-5.31-5.28-6.86a31.571,31.571,0,0,1-.18,9.89c-.38,2.53-.97,5.15-2.66,7.1-2.21,2.57-5.83,3.47-9.21,4.1-4.25.81-8.54,1.44-12.84,1.88-1.53.16-3.22.27-4.48-.59a5.807,5.807,0,0,0-1.62-1.06,3.237,3.237,0,0,0-2.29.59,28.16,28.16,0,0,0,2.65,4.96c5.86,9.3,12.45,18.12,19.04,26.93,3.12,4.19,6.57,8.61,11.55,10.21,4.28,1.38,8.92.41,13.28-.66a302.912,302.912,0,0,0,32.84-10.09c7.3-2.71,14.5-5.7,21.6-8.88a19.044,19.044,0,0,1,3.37-1.26A113.1,113.1,0,0,0,90.138,122.3Z" style="fill: rgb(229, 69, 42);"/></g><g id="__id555_syj4yglxo9"><path d="M54.887,159.99a2.725,2.725,0,0,0,.046-.328c.252-6.316.512-12.846-1.081-19.319-1.864-7.563-6.211-13.63-11.927-16.645-9.214-4.861-22.229-1.191-29.011,8.179-6.518,9-6.517,19.811-5.528,26.864l-2.248,1.452,1.08,65.68,52.9-.9-3.42-64.42ZM17.774,135.4c5.712-7.89,15.53-9.462,21.352-6.391,4.2,2.216,7.446,6.872,8.9,12.773a53.008,53.008,0,0,1,1.036,14.173L31.048,143.463,13.026,155.1C12.467,147.435,14.117,140.446,17.774,135.4ZM11.118,218.9v-53.16l39.49-1.64,2.91,55.05ZM301.992,349.938c-29.261,2.285-58.683-7.4-83.169-23.581S174.455,287.8,157.849,263.6A191.214,191.214,0,0,1,145.3,243.014c.418.216.833.437,1.248.656,6.166,3.248,12.888,6.083,19.846,5.687.065,0,.131-.01.2-.015a9.69,9.69,0,0,0,1.835,3.3c1.889,2.057,4.9,2.584,7.684,2.8a119.623,119.623,0,0,0,14.617-.083c9.071-.422,18.235-.869,27.285-1.885q2.025,2.925,4.172,5.769c11.926,15.743,27.265,29.463,45.768,36.374,2.58.963,5.3,1.843,7.307,3.725,3.771,3.533,3.916,9.343,5.609,14.225,4.332,12.491,18.558,18.353,26.639,28.816a5.607,5.607,0,0,1,1.348,2.739C309.171,348.238,305.115,349.7,301.992,349.938ZM162.3,226.16c11.891-3.886,23.975-5.417,35.916-7.028q-2.823-5.58-5.585-11.187a418.182,418.182,0,0,1-29.274-95.872,192.777,192.777,0,0,1-3.164-29.521,15.083,15.083,0,0,1-1.245-.866,19.618,19.618,0,0,1-2.959-2.9q-17.827,10-35.226,20.745a9.756,9.756,0,0,0-3.556,3.113c-.925,1.6-.865,3.568-.761,5.415,1.748,31.13,8.291,61.772,15.076,92.2a267.208,267.208,0,0,0,6.76,26.044,23,23,0,0,1,5.02-.733c6.569-.145,12.723,3.345,19.2,4.16C162.413,228.547,162.338,227.354,162.3,226.16ZM133.888,99.848a1,1,0,1,1,2-.124,226.274,226.274,0,0,0,34.34,106.4,1,1,0,0,1-1.691,1.067A228.277,228.277,0,0,1,133.888,99.848Z" style="fill: rgb(23, 80, 87);"/></g><g id="__id556_syj4yglxo9"><path d="M208.278,48.543a9.881,9.881,0,0,1-3.21,3.06,9.2,9.2,0,0,1-5.64,1.36c.53,3.85,1.01,7.72,1.47,11.6.33,2.68.64,5.38.96,8.07-1.68,4.41-3.44,8.68-5.2,12.96a6.459,6.459,0,0,1-1.77,2.81,6.257,6.257,0,0,1-2.46.99,59.363,59.363,0,0,1-20.75,1.11c-.57-3.41-1.1-5.88-1.63-8.35-6.98.99-13.75-3.76-17.32-9.83s-4.6-13.26-5.56-20.23q-1.365-9.84-2.72-19.67c-.44-3.17-.82-6.64.87-9.36,9.02-14.48,24.82-12.09,34.87-8.13a35.8,35.8,0,0,1,20.97,23.17,11.871,11.871,0,0,1,2.93-2.19,3.853,3.853,0,0,1,3.63.07,4.752,4.752,0,0,1,1.69,2.57A11.815,11.815,0,0,1,208.278,48.543ZM114.2,415.293q-11.385-3.225-22.78-6.45c-7.47-2.12-15.58-4.72-20.67-10.24-6.14,4.14-12.91,7.3-19.64,10.44-4.94,2.31-10.02,4.65-15.45,5.16-1.76.16-3.73.2-4.99,1.44-1.56,1.53-1.18,4.34.36,5.88a8.193,8.193,0,0,0,6.06,1.99c2.18-.06,4.33-.58,6.51-.73a61.129,61.129,0,0,1,6.49.14c2.66.09,5.32-.03,7.98-.14q5.6-.255,11.19-.49l38.49-1.68c2.25-.1,4.9-.43,5.99-2.41A5.152,5.152,0,0,0,114.2,415.293Zm50.624-185.379c-7.347-.1-14.173-4.5-21.52-4.335-3.572.079-7.02,1.238-10.4,2.384L119.515,232.5c-1.584.537-3.305,1.182-4.131,2.636s.078,3.841,1.743,3.683a2.776,2.776,0,0,0-.6,3.663,5.241,5.241,0,0,0,3.365,2.154c7.13,1.71,14.3-4.772,21.455-3.18a21.346,21.346,0,0,1,5.2,2.217c6.166,3.248,12.888,6.083,19.846,5.687a2.988,2.988,0,0,0,1.409-.331,2.883,2.883,0,0,0,.821-.867C172.605,242.4,171.524,233.718,164.822,229.914ZM48.688,115.6a18,18,0,0,0-.47-2.18c-1.09-3.91-3.03-9.18-10.51-10.89-7.69-1.76-15.69.35-23.28,2.49-3.77,1.07-7.73,2.26-10.37,5.09-2.43,2.6-3.36,6.21-3.79,9.7-.59,4.69-.36,9.73,2.26,13.71s8.23,6.33,12.53,4.17c.12-.06.23-.12.35-.18a3.237,3.237,0,0,1,2.29-.59,5.807,5.807,0,0,1,1.62,1.06c1.26.86,2.95.75,4.48.59,4.3-.44,8.59-1.07,12.84-1.88,3.38-.63,7-1.53,9.21-4.1,1.69-1.95,2.28-4.57,2.66-7.1A31.571,31.571,0,0,0,48.688,115.6Zm-19.115,18.45a4.951,4.951,0,0,0-2.462,2.447,3.54,3.54,0,0,0,1.527,3.991,5.24,5.24,0,0,0,4.443.392c1.534-.51,2.862-1.549,4.424-1.964a27.1,27.1,0,0,1,3.721-.4,4.429,4.429,0,0,0,3.244-1.632c1.021-1.522.308-3.6-.687-5.138" style="fill: rgb(253, 169, 181);"/></g><g id="__id557_syj4yglxo9"><path d="M176.308,103.754c-1.343,5.006-1.432,10.262-1.41,16.121.04,10.117.266,20.4.67,30.56a1,1,0,0,1-.959,1.039h-.041a1,1,0,0,1-1-.96c-.406-10.185-.632-20.491-.672-30.633-.023-6,.071-11.4,1.479-16.646l.028-.1a3.841,3.841,0,0,0,.213-2c-.345-1.05-2.014-1.352-3.464-1.284l-.229.011c-1.815.088-4.077.2-5.518-1.4a5.951,5.951,0,0,1-1.228-3.78,45.862,45.862,0,0,1,.2-7.928,1,1,0,0,1,1.988.224,43.762,43.762,0,0,0-.194,7.582,4.293,4.293,0,0,0,.716,2.561c.806.891,2.4.814,3.937.74l.233-.012c2.831-.133,4.867.862,5.457,2.66a5.386,5.386,0,0,1-.182,3.145ZM156.423,42.623a1.827,1.827,0,0,0,.748,2.246,1.6,1.6,0,0,0,.83.227,1.63,1.63,0,0,0,1.453-1.166,1.651,1.651,0,0,0-3.031-1.307Zm-9.76,2.15a24.763,24.763,0,0,1-.4-15.423c1.644-4.966,5.509-9.313,9.912-10.791a33.22,33.22,0,0,0,19.466,5.726l-3.952-5.3c3.36,1.743,7.138,2.472,10.708,3.731s7.141,3.247,8.4,6.478c.228,4.205.455,8.41.431,13.227-6.184,5.121-12.124,10.535-18.183,16.051-1.476.154-2.957.313-4.471.51a4.447,4.447,0,0,0,1.066-1.489,3.945,3.945,0,0,0-.738-4.263,1,1,0,0,0-1.414,1.414,1.932,1.932,0,0,1,.313,2.062,2.893,2.893,0,0,1-1.878,1.539l-.122.033a2.815,2.815,0,0,0-.932.385,3.051,3.051,0,0,0-.95,1.253,8.166,8.166,0,0,1-4.057,3.769,2.173,2.173,0,0,1-.216.079,1.722,1.722,0,0,1-.092-.351c-.471-2.715.445-5.563,1.331-8.318.18-.558.358-1.113.526-1.668a46.6,46.6,0,0,0,2-12.624,1,1,0,0,0-2-.038,44.605,44.605,0,0,1-1.909,12.082c-.164.544-.34,1.089-.516,1.636a32.856,32.856,0,0,0-1.413,5.475c-2.065-.151-4.151-.289-6.462-.294a74.565,74.565,0,0,0-4.661-11.913c-.949,7.821,1.314,15.717,4.615,22.871,1.917,4.153,4.283,8.254,7.894,11.062s8.707,4.087,12.734,2.243a184.84,184.84,0,0,0,20.529-18.067,18.793,18.793,0,0,0,3.179-3.927,19.832,19.832,0,0,0,1.7-5.084c1.426-6.016,2.852-12.032,3.979-17.369,2.732-.845,4.181-3.819,4.856-6.6a26.843,26.843,0,0,0-4.756-22.393c-4.82-6.248-12.732-12.1-24.559-10.085a61,61,0,0,0-30.039,14.417,26.3,26.3,0,0,0-6.873,8.618A17.3,17.3,0,0,0,146.663,44.773Zm11.319-11.554a12.494,12.494,0,0,0-9.377,4.534,1,1,0,0,0,1.549,1.266,10.466,10.466,0,0,1,7.858-3.8A1,1,0,0,0,159,34.2,1.024,1.024,0,0,0,157.982,33.219Zm47.54,6.4a11.9,11.9,0,0,0-5.322,7.916,1,1,0,0,0,.813,1.157,1.02,1.02,0,0,0,.173.015,1,1,0,0,0,.984-.827,9.873,9.873,0,0,1,4.415-6.566,1,1,0,1,0-1.063-1.7ZM279.5,320.441a101.538,101.538,0,0,1-70.025-36.453,1,1,0,1,0-1.551,1.264,103.57,103.57,0,0,0,71.429,37.183l.074,0a1,1,0,0,0,.073-2ZM238.788,137.722l.055,0a1,1,0,0,0,1-.946c.391-7.123.979-15.372,3.027-23.12,2.2-8.327,5.813-15.09,10.735-20.1a1,1,0,0,0-1.428-1.4c-5.167,5.262-8.949,12.324-11.241,20.991-2.1,7.931-2.693,16.3-3.089,23.522A1,1,0,0,0,238.788,137.722Zm-4.678,88.913a1,1,0,1,0,1.621-1.171l-3.591-4.973a1,1,0,0,0-1.621,1.171ZM199.428,52.963c.53,3.85,1.01,7.72,1.47,11.6a23.231,23.231,0,0,0,11.81-1.78,7.487,7.487,0,0,1-5.6-5.25,9.462,9.462,0,0,0,4.87.74,10.379,10.379,0,0,1-6.91-6.67A9.2,9.2,0,0,1,199.428,52.963Zm33.19,162.5c5.691.233,12.032.847,15.244,5.205a1,1,0,1,0,1.609-1.187c-3.736-5.07-10.616-5.764-16.771-6.017a1,1,0,0,0-.082,2ZM155.417,342.3q-2.255-4.885-4.526-9.749c-10.446-22.209-22.812-44.859-42.4-60.08a1,1,0,0,0-1.228,1.58c19.252,14.962,31.474,37.368,41.814,59.352q2.28,4.846,4.519,9.735c8.738,18.946,17.773,38.536,31.323,54.777a1,1,0,0,0,1.536-1.282C173.078,380.6,164.1,361.128,155.417,342.3Zm121.065,42.313c-27.683-7.794-56.308-15.853-80.626-32.194a1,1,0,1,0-1.115,1.66c24.583,16.52,53.365,24.623,81.2,32.46a1.031,1.031,0,0,0,.273.037,1,1,0,0,0,.27-1.963Zm-80.42-177.244a1,1,0,0,0,.964-1.269c-2.057-7.384-2.731-15.024-3.247-22.216a527.569,527.569,0,0,1-.357-69.645,84.784,84.784,0,0,1,1.3-11.685,8.132,8.132,0,0,1,1.466-3.731,9.235,9.235,0,0,1,3.773-2.216,12.015,12.015,0,0,0,4.261-2.438,11.971,11.971,0,0,0,2.579-5.01l.115-.348A62.817,62.817,0,0,1,215.433,72a1,1,0,0,0-1.629-1.161,64.828,64.828,0,0,0-8.786,17.347l-.116.352a10.523,10.523,0,0,1-2.094,4.22,10.393,10.393,0,0,1-3.589,1.994,10.837,10.837,0,0,0-4.556,2.781,10.044,10.044,0,0,0-1.9,4.625,86.448,86.448,0,0,0-1.337,11.96,529.52,529.52,0,0,0,.359,69.91c.521,7.293,1.208,15.047,3.315,22.61A1,1,0,0,0,196.062,207.368Zm62.174,118.555a1.012,1.012,0,0,0,.143.01,1,1,0,0,0,.142-1.99l-17.583-2.525a1,1,0,1,0-.285,1.98Zm-88.857-118.27a1,1,0,0,0,.845-1.533,226.274,226.274,0,0,1-34.34-106.4,1,1,0,1,0-2,.124,228.277,228.277,0,0,0,34.645,107.339A1,1,0,0,0,169.379,207.653ZM179.907,36.377a1,1,0,0,0,.6-1.8,14.494,14.494,0,0,0-10.936-2.642,1,1,0,0,0,.337,1.971,12.464,12.464,0,0,1,9.4,2.271A.994.994,0,0,0,179.907,36.377Zm-9.484,4.537a1.827,1.827,0,0,0,.748,2.246,1.612,1.612,0,0,0,.83.227,1.63,1.63,0,0,0,1.453-1.166,1.651,1.651,0,0,0-3.031-1.307ZM109.937,130.42a1,1,0,0,0,1.561-1.251,62.007,62.007,0,0,0-10.4-10.227,1,1,0,1,0-1.224,1.581A60.021,60.021,0,0,1,109.937,130.42Zm.115,288.769L82.967,420.68c-3.729-8.065-11.521-14.247-20.415-16.825a5.482,5.482,0,0,0-1.748-.291,5.71,5.71,0,0,0-1.864.509,74.592,74.592,0,0,0-11.023,5.563c5.238,2.108,6.787,3.679,7.94,5.447a32.438,32.438,0,0,1,2.737,5.7c-10.059.606-19.637,1.507-29.136,2.936a2.527,2.527,0,0,0-1.394.511,2.552,2.552,0,0,0-.561,1.8c-.073,1.555-.054,3.34,1.12,4.363a5.124,5.124,0,0,0,3.078.919c12.781.908,25.608-.372,38.421-.39,15.043-.02,30.558,1.635,44.754-3.342a1.979,1.979,0,0,0,.87-.488,2.031,2.031,0,0,0,.368-1.157c.208-2.02.3-4.372-1.213-5.73C113.638,419.067,111.747,419.1,110.052,419.189Z" style="fill: inherit;"/></g></svg>