<svg xmlns="http://www.w3.org/2000/svg" xmlns:xlink="http://www.w3.org/1999/xlink" preserveAspectRatio="xMidYMid meet" version="1.0" viewBox="-1.1 -0.1 490.0 375.7" zoomAndPan="magnify" style="fill: rgb(0, 0, 0);" original_string_length="25094" width="271.51441780321323px" height="208.32560784173813px"><g id="__id515_syj4yglxo9"><path d="M488.076,326.289c-.6-4.9-4.7-8.53-8.519-11.666q-11.88-9.793-23.781-19.575c-7.695-6.325-15.508-12.789-20.977-21.127-4.666-7.117-7.417-15.283-10.124-23.352-4.656-13.924-9.333-27.934-11.313-42.478-4.249-31.359,4.281-63.53-1-94.738-3.148-5.281-5.19-12.681-10.163-17.98a9.612,9.612,0,0,0-.227-2.87c-1.024-4.129-5.236-6.691-9.363-7.721s-8.484-.988-12.551-2.232c-5.555-1.7-10.121-5.641-15.369-8.131-4.912-2.33-11.362-3.071-15.447.3-4.043-.8-8.107-1.422-12.183-1.821a126.283,126.283,0,0,0-16.56-.549c-.3-1.025-.592-2.05-.865-3.077A12.568,12.568,0,0,0,321,65.652a28.553,28.553,0,0,0,.257-8q1.526,2.649,3.05,5.276c-.588-3.66-.075-7.406.064-11.109a22.052,22.052,0,0,0-1.038-8.463,10.945,10.945,0,0,0,.6-1.835,14.318,14.318,0,0,1,3.6,1.747c-1.284-5.363-2.785-11.051-5.71-15.6a28.734,28.734,0,0,0-3.335-8.126,15.118,15.118,0,0,0,7.428-1.272c-4.112-1.549-6.2-5.985-9-9.367C312.154,3.171,304.6.127,297.136,0s-14.794,2.466-21.121,6.42c-4.224,2.639-8.221,6.108-9.942,10.781-1.166,3.166-4.768,4.621-5.884,7.363a18.172,18.172,0,0,0-.919,8.744,21.531,21.531,0,0,0,3.889,10.773,13.553,13.553,0,0,0,8.078,5.208c.963,3.469,2.056,6.9,3.312,10.275.666,1.787,1.408,3.59,2.244,5.348-.422-.085-.842-.18-1.26-.29.429,4.931,3.178,9.429,6.71,12.9a35.691,35.691,0,0,0,2.88,2.522q-1.067.474-2.159.922c-9.419,3.864-20.11,6.689-26.778,14.908a44.279,44.279,0,0,0-5.726,10.146,217.39,217.39,0,0,0-12.647,37.363,132.388,132.388,0,0,0-12.066-6.861c.38-6.918-3.021-13.943-3.252-21.041-.161-4.912,1.209-9.717,2.29-14.5,1.927-8.477,3-17.371.974-25.825s-7.6-16.429-15.733-19.49c-4.955-1.873-10.424-1.819-15.7-1.295-10.767,1.06-22.25,4.581-28.362,13.518-4.281,6.25-5.212,14.105-7.341,21.372-2.59,8.808-7.011,16.953-10.489,25.461-3.344,8.171-5.817,17.033-4.7,25.761-2.444,1.264-4.85,2.594-7.2,4.014-4.838,2.911-9.579,6.261-12.832,10.895-3.168,4.506-4.7,9.932-6.026,15.283a270.3,270.3,0,0,0-7.663,53.972c-.224,5.683-.278,11.366-.321,17.049q-.112,12.683-.214,25.376c-3.821,1.274-5.447,4.056-5.308,6.839-10.949,2.076-20.378,9.022-28.255,16.888s-14.63,16.835-22.764,24.455a96.588,96.588,0,0,1-36.056,21.255c-4.174,1.349-8.562,2.473-12.051,5.148S-1.1,349.106.526,353.184a11.941,11.941,0,0,0,3.5,4.441c12.5,10.895,30.93,10.318,47.508,9.836,18.654-.535,37.341-.182,55.963,1.081,22.015,1.477,43.966,4.217,66.023,4.345A281.444,281.444,0,0,0,296.7,345.232q4.614,1.057,9.271,1.863a25.03,25.03,0,0,0-3.748,2.008,28.479,28.479,0,0,0-7.047,5.419c.1,0,.191,0,.289,0a96.894,96.894,0,0,1-9.682,4.373,3.754,3.754,0,0,0-1.723,1.07c-.984,1.338.471,3.339,2.119,3.511a3.942,3.942,0,0,0,1.413-.107c-1.156.695-2.354,1.305-2.322,2.557a4.828,4.828,0,0,0,.524,1.584c.3.76.418,1.584.674,2.366a8.425,8.425,0,0,0,5.908,5,21.634,21.634,0,0,0,8,.224,114.456,114.456,0,0,0,52.068-19.243,10.055,10.055,0,0,0,2.8-2.525,5.1,5.1,0,0,0,.681-3.89q8.085-.621,16.111-1.879c13.785-2.162,27.687-5.683,41.5-3.8,7.471,1.027,14.652,3.606,22.079,4.869a64.326,64.326,0,0,0,41.419-6.978C482.918,338.436,488.889,332.956,488.076,326.289ZM171.171,112.541c0-.03.009-.06.012-.09,0,.03-.008.06-.012.091Zm1.769-11.029q.364-1.827.773-3.646Q173.305,99.684,172.94,101.512Zm-.682,3.661c.027-.154.059-.307.086-.46C172.317,104.866,172.285,105.019,172.258,105.173ZM203.9,132.247c.183-.123.371-.238.549-.368-.015.176-.027.353-.041.53C204.239,132.355,204.071,132.3,203.9,132.247Zm4.634-61.877h0Zm-9.956.162c.06-.007.118-.017.177-.023C198.7,70.515,198.639,70.525,198.579,70.532Zm-2.006.277h0c.079-.012.157-.028.236-.04C196.73,70.781,196.652,70.8,196.573,70.809Zm-1.821.313h0c.042-.008.084-.018.125-.025C194.835,71.1,194.794,71.114,194.752,71.122ZM175.232,125.5a22.8,22.8,0,0,0,2.964,3.707h0A22.73,22.73,0,0,1,175.232,125.5ZM320.054,367.243c-.055.029-.111.057-.167.085C319.943,367.3,320,367.272,320.054,367.243Zm-1.2.6c-.1.046-.2.088-.3.133C318.655,367.929,318.755,367.887,318.854,367.841Zm-7.861,1.653a12.125,12.125,0,0,0,1.395.044A11.9,11.9,0,0,1,310.993,369.494Zm6.629-1.117c-.137.055-.275.1-.413.154C317.347,368.48,317.485,368.432,317.622,368.377Zm-1.261.456c-.174.056-.349.1-.523.15C316.012,368.933,316.187,368.889,316.361,368.833Zm-1.292.358c-.213.049-.43.082-.646.121C314.639,369.273,314.856,369.24,315.069,369.191Zm-1.323.24c-.271.036-.546.049-.821.068C313.2,369.48,313.475,369.467,313.746,369.431Zm18.129-8.919h0c.046-.019.092-.042.138-.061C331.967,360.47,331.921,360.493,331.875,360.512Zm14.528-5.678c.075-.063.15-.125.223-.19C346.553,354.709,346.478,354.771,346.4,354.834Zm1.185-1.132c.054-.059.1-.122.158-.182C347.693,353.58,347.642,353.642,347.588,353.7Zm1.923-2.711c-.042.078-.085.156-.129.233C349.426,351.147,349.469,351.069,349.511,350.991Zm-.87,1.408c-.027.038-.057.074-.085.113C348.584,352.473,348.614,352.437,348.641,352.4Z" style="fill: rgb(255, 255, 255);"/></g><g id="__id516_syj4yglxo9"><path d="M477.042,341.657a64.326,64.326,0,0,1-41.419,6.978c-7.427-1.263-14.608-3.842-22.079-4.869-13.817-1.884-27.719,1.637-41.5,3.8a204.422,204.422,0,0,1-21.951,2.248,196.7,196.7,0,0,1-42.842-2.483c-3.542-.589-7.052-1.295-10.552-2.1A281.444,281.444,0,0,1,173.52,372.887c-22.057-.128-44.008-2.868-66.023-4.345-18.622-1.263-37.309-1.616-55.963-1.081-16.578.482-35.008,1.059-47.508-9.836a11.941,11.941,0,0,1-3.5-4.441c-1.627-4.078.728-8.851,4.217-11.527s7.877-3.8,12.051-5.148A96.588,96.588,0,0,0,52.85,315.254c8.134-7.62,14.887-16.578,22.764-24.455s17.306-14.812,28.255-16.888c-.139-2.783,1.487-5.565,5.308-6.839q.112-12.682.214-25.376c.043-5.683.1-11.366.321-17.049a270.3,270.3,0,0,1,7.663-53.972c1.327-5.351,2.858-10.777,6.026-15.283,3.253-4.634,7.994-7.984,12.832-10.895a137.4,137.4,0,0,1,33.937-14.47,75.573,75.573,0,0,1,35.982,2.954c10.66,3.767,21.191,7.9,31.412,11.409a217.418,217.418,0,0,1,12.9-38.369,44.279,44.279,0,0,1,5.726-10.146c6.668-8.219,17.359-11.044,26.778-14.908A52.63,52.63,0,0,0,291.4,76.74,125.458,125.458,0,0,1,337.064,72.9a126.924,126.924,0,0,1,39.214,10.36C385.1,86.714,395.211,88.245,401.857,95c5.234,5.319,7.289,12.95,10.51,18.355,5.276,31.208-3.254,63.38,1,94.738,1.98,14.544,6.657,28.554,11.313,42.478,2.707,8.069,5.458,16.235,10.124,23.352,5.469,8.338,13.282,14.8,20.977,21.127q11.9,9.793,23.781,19.575c3.821,3.136,7.92,6.764,8.519,11.666C488.89,332.956,482.918,338.436,477.042,341.657Z" style="fill: rgb(23, 80, 87);"/></g><g id="__id517_syj4yglxo9"><path d="M281.347,112.625a163.113,163.113,0,0,1,1.617-31.658A52.63,52.63,0,0,0,291.4,76.74,125.458,125.458,0,0,1,337.064,72.9,74.906,74.906,0,0,0,328.8,89.1c-1.766,4.859-3.018,9.889-4.709,14.78a4.531,4.531,0,0,1-1.124,2.033,4.812,4.812,0,0,1-2.461.91c-3.232.546-6.454,1.081-9.686,1.627a4.633,4.633,0,0,0-2.408.91,4.5,4.5,0,0,0-1.1,2.611,195.921,195.921,0,0,0-3.147,30,56.313,56.313,0,0,1-10.745.139,265.436,265.436,0,0,1,3.9-30.759Q289.336,112.187,281.347,112.625ZM401.977,92.5c-1.024-4.129-5.236-6.691-9.363-7.721s-8.484-.988-12.551-2.232c-5.555-1.7-10.121-5.641-15.369-8.131s-12.252-3.166-16.25,1.047c-1.767,1.86-2.64,4.37-3.5,6.786-8.318,23.3-20,45.225-31.635,67.055-19.895,37.325-40.569,75.626-73.018,102.756,3.623,8.374,12.16,14.712,20.054,21.77a223.9,223.9,0,0,0,23.635-15.48c4.649-3.483,9.362-7.415,11.4-12.855.944-2.524,1.256-5.248,2.18-7.779,2.929-8.024,11.168-12.533,18.228-17.342,16.274-11.085,28.733-26.8,40.926-42.257,18.958-24.038,38.465-49.208,44.942-79.13A14.432,14.432,0,0,0,401.977,92.5Zm-138.3,69.15c-1.4-3.515-5.041-5.508-8.372-7.308-11.176-6.04-19.636-13.789-35.569-20.6C215.09,170.5,201,201.97,176.714,229.953c-5.305,6.112-11.161,11.9-14.976,19.034a506.254,506.254,0,0,0,68.46-12.023,9.379,9.379,0,0,0,7.757-6.106,353.047,353.047,0,0,0,24.932-58.81C263.971,168.668,265,164.949,263.678,161.653Z" style="fill: rgb(229, 69, 42);"/></g><g id="__id518_syj4yglxo9"><path d="M260.6,225.736c-5.909,6.605-13.936,11-22.255,14.052-3.181,1.168-6.526,2.17-9.9,1.892-1.684-.138-3.341-.594-5.03-.581a18.672,18.672,0,0,0-5.006.974,417.126,417.126,0,0,1-49.529,11.114c-1.9.306-5.681,1.053-6.473-2.59a60.866,60.866,0,0,1,.88-29.267c.534-1.9,1.261-3.909,2.894-5.014,1.45-.982,3.309-1.043,5-1.492,5.449-1.446,8.961-6.84,14.127-9.1,4.239-1.852,9.24-1.435,13.382-3.5,3.559-1.772,6.122-5.206,9.781-6.762,2.358-1,4.981-1.142,7.472-1.744,3.722-.9,7.1-2.821,10.568-4.447a71.074,71.074,0,0,1,15.327-5.15,28.724,28.724,0,0,1,9.7-.714c8.786,1.16,15.775,9.152,17.155,17.906S266.5,219.13,260.6,225.736Zm-89.911-76.231c1.509,3.543,3.618,8.092,7.449,7.717a5.579,5.579,0,0,0,4.345-3.821,16.254,16.254,0,0,0,.632-6.025q-.146-7.321-.279-14.652a18.873,18.873,0,0,1-2.911-1.948c-5.408-4.381-8.406-11.236-8.749-18.235a148.82,148.82,0,0,1,2.542-14.675q1.38-6.148,3.307-12.158c.974-3.039,2.087-6.143,4.217-8.519,2.954-3.3,7.417-4.763,11.73-5.7a50.251,50.251,0,0,1,15.568-1.115,38.305,38.305,0,0,1,8.138,7.354A14.3,14.3,0,0,1,219.733,87a42.589,42.589,0,0,1-1.476,9.825q-1.622,6.934-3.222,13.86c-1.734,7.47-3.778,15.465-9.621,20.441-.311.268-.632.514-.964.75-.032.363-.064.727-.085,1.091.5.1,20.912,6.764,20.912,6.764,1.991-7.952-2.515-16.054-2.782-24.252-.161-4.912,1.209-9.717,2.29-14.5,1.927-8.477,3-17.371.974-25.825s-7.6-16.429-15.733-19.49c-4.955-1.873-10.424-1.819-15.7-1.295-10.767,1.06-22.25,4.581-28.362,13.518-4.281,6.25-5.212,14.105-7.341,21.372-2.59,8.808-7.011,16.953-10.489,25.461s-6.025,17.745-4.559,26.81a52.969,52.969,0,0,1,10.3-5.865,8.367,8.367,0,0,1,4.024-.92c1.819.182,3.339,1.445,4.634,2.74A38.546,38.546,0,0,1,170.684,149.505Z" style="fill: rgb(255, 255, 255);"/></g><g id="__id519_syj4yglxo9"><path d="M216.673,77.724A14.3,14.3,0,0,1,219.733,87a42.589,42.589,0,0,1-1.476,9.825q-1.622,6.934-3.222,13.86c-1.734,7.47-3.778,15.465-9.621,20.441-.311.268-.632.514-.964.75a18.754,18.754,0,0,1-10.48,3.477,71.078,71.078,0,0,0-11.922,13.649q.137-8.293.273-16.59a18.875,18.875,0,0,1-2.4-1.639,25,25,0,0,1-8.754-18.183v-.011a148.66,148.66,0,0,1,2.547-14.716q1.38-6.148,3.307-12.158c.974-3.039,2.087-6.143,4.217-8.519,2.954-3.3,7.417-4.763,11.73-5.7a50.224,50.224,0,0,1,15.583-1.113A38.417,38.417,0,0,1,216.673,77.724Zm35.162,143.957a5.9,5.9,0,0,0,4.756.682,11.1,11.1,0,0,0,4.7-2.885,6.469,6.469,0,0,0,1.567-2.044,2.731,2.731,0,0,0-.074-2.493,1.317,1.317,0,0,0-.689-.582,1.809,1.809,0,0,0-.865.011c-.242.044-.479.112-.719.167.325-.447.634-.905.923-1.378,4.371-7.151,6.857-19.457-3.86-27.167-4.692-3.376-11.092-3.531-16.637-1.9-7.116,2.1-13.51,7.158-16.316,14.025s-1.54,15.458,3.786,20.622a19.365,19.365,0,0,0,11.7,5.132A22.581,22.581,0,0,0,251.835,221.681Zm45.49-141.793a36.916,36.916,0,0,1-.189,7.995c1.713,4.926,2.943,9.358,4.455,13.691,7.336-7.181,14.542-14.111,21.536-21.249A118.928,118.928,0,0,1,317.7,60.773a40.384,40.384,0,0,0,.42-13.35,12.72,12.72,0,0,0,2.936-1,5.253,5.253,0,0,0,1.7-1.895,11.623,11.623,0,0,0-.9-12.754c-1.076-1.358-2.676-2.529-4.4-2.321a4.163,4.163,0,0,0-2.833,1.89,34.33,34.33,0,0,0-4.369-9.723c-2.8-4.054-7.22-7.275-20.7-8.318-9.3.333-18.734,6.457-20.784,15.533-.972,4.3-.277,8.793.645,13.105a126.3,126.3,0,0,0,5.137,17.626c2.858,7.675,7.06,15.67,14.577,18.921A18.108,18.108,0,0,0,297.325,79.888Zm9.922,267.442A97.144,97.144,0,0,1,285.778,358.9a3.754,3.754,0,0,0-1.723,1.07c-.984,1.338.471,3.339,2.119,3.511a3.942,3.942,0,0,0,1.413-.107,6.643,6.643,0,0,0,1.274-.482,2.42,2.42,0,0,0,.374,2.536c1.21,1.188,3.125,1.114,4.806.739a1.168,1.168,0,0,0-.407,1.552,2.537,2.537,0,0,0,1.841,1.027,9.067,9.067,0,0,0,5.362-.695,6.947,6.947,0,0,0,8.155-.343c-.353.985.963,1.7,2,1.787,7.728.7,13.839-6.121,21.02-9.043,4.377-1.787,9.354-2.162,13.282-4.774a13.309,13.309,0,0,0,4.794-5.864A196.7,196.7,0,0,1,307.247,347.33ZM266.421,229.9a6.128,6.128,0,0,0-2.895,1.84,50.146,50.146,0,0,1,3.3-4.5,2.808,2.808,0,0,0,.69-1.7,2.065,2.065,0,0,0-2.4-1.636,6.385,6.385,0,0,0-2.862,1.477c-4.1,3.042-8.717,5.631-13.78,6.273a14.432,14.432,0,0,0,4.739-2.987,2.763,2.763,0,0,0,.919-1.217c.32-1.109-.829-2.2-1.98-2.277a5.877,5.877,0,0,0-3.223,1.1l-3.738,2.175a18.941,18.941,0,0,0-3.728,2.59c-2.777,2.681-3.641,6.725-4.372,10.516a28.678,28.678,0,0,1-4.556,2.782,1.55,1.55,0,0,0-.975,2.172Q232.78,251.9,234,257.284a3.2,3.2,0,0,0,.805,1.759c1.61,1.431,3.951-1.242,6.084-.947a7.954,7.954,0,0,1,1.932.777c2.888,1.227,6.15-.379,8.773-2.1a75.125,75.125,0,0,0,12.443-10.251,3.983,3.983,0,0,0,1.327-2.166c.1-.857-.625-1.842-1.468-1.655a5.771,5.771,0,0,0,2.49-2.424c.442-1.092-.109-2.648-1.282-2.762a21.092,21.092,0,0,0,3.4-4.479,2.85,2.85,0,0,0,.485-1.463C268.952,230.41,267.562,229.69,266.421,229.9ZM396.03,156.92a36.225,36.225,0,0,0-1.116-3.849c-.96-3.459-.583-7.316-1.256-10.778a11.3,11.3,0,0,0-.472-3.4c-1.051-3.453-3.789-6.086-6.422-8.554-2.126-1.993-4.357-4.048-7.145-4.894-2.815-.853-5.84-.366-8.739.128-4.55.774-9.721,1.977-11.886,6.053a3.151,3.151,0,0,0-.453,1.825c.164,1.335,1.666,2.148,3.011,2.106a11.74,11.74,0,0,0,3.834-1.181,20.5,20.5,0,0,1,10.146-1.16l-10.771,5.725a12.554,12.554,0,0,0-3.241,2.182,4.254,4.254,0,0,0-1.308,3.548,2.608,2.608,0,0,0,2.762,2.208,4.379,4.379,0,0,0,.825,7.674c-1.286,1.755.02,4.461,2.033,5.285s4.32.274,6.339-.536,3.983-1.883,6.149-2.193l.333-.175,6.728,16.192c.025-.114.047-.227.071-.341a21.479,21.479,0,0,0,7.526,10.427q1.447-10.9,2.894-21.806A15.566,15.566,0,0,0,396.03,156.92Z" style="fill: rgb(253, 169, 181);"/></g><g id="__id520_syj4yglxo9"><path d="M355.248,353.334a10.055,10.055,0,0,1-2.8,2.525A114.456,114.456,0,0,1,300.376,375.1a21.634,21.634,0,0,1-8-.224,8.425,8.425,0,0,1-5.908-5c-.256-.782-.374-1.606-.674-2.366a4.828,4.828,0,0,1-.524-1.584c-.032-1.252,1.166-1.862,2.322-2.557a6.012,6.012,0,0,0,1.5-1.156c.054.01.1.032.15.043.172.053.343.1.5.139-.289.182-.578.342-.877.492a2.42,2.42,0,0,0,.374,2.536c1.21,1.188,3.125,1.114,4.806.739a1.168,1.168,0,0,0-.407,1.552,2.537,2.537,0,0,0,1.841,1.027,9.067,9.067,0,0,0,5.362-.695,6.947,6.947,0,0,0,8.155-.343c-.353.985.963,1.7,2,1.787,3.677.331,6.986-1.044,10.22-2.886-4.88-7.411-13.7-12.211-26.042-12.086a28.479,28.479,0,0,1,7.047-5.419,17.21,17.21,0,0,1,5.558-2.557c2.612-.509,5.3.219,7.8,1.148a48,48,0,0,1,9.384,4.722c3.048,1.98,6.055,4.623,6.918,8.1.046-.019.092-.042.138-.061,4.377-1.787,9.354-2.162,13.282-4.774a13.9,13.9,0,0,0,5.929-10.5,4.093,4.093,0,0,1,1.466.257A5.512,5.512,0,0,1,355.248,353.334ZM192.967,71.485c-4.313.941-8.776,2.408-11.73,5.7-2.13,2.376-3.243,5.48-4.217,8.519q-1.926,6-3.307,12.158c.845,2.248,1.605,4.474,2.248,5.919.288-2.922,2.707-9.29,1.872-14.834,3.329,1.456,7.15-.043,10.4-1.659a133.234,133.234,0,0,0,18.815-11.366A34.332,34.332,0,0,1,218,96.594a31.356,31.356,0,0,1-2.912,11.011,12.544,12.544,0,0,0,5.926-3.141,16.907,16.907,0,0,0,4.174-8.182,16.727,16.727,0,0,0,.537-5.8c-.357-3.2-2.012-5.958-3.787-8.7a22.716,22.716,0,0,0-2.056-8.085C211.9,69.4,201.946,69.515,192.967,71.485Zm80.008-21.991c-.127-.364-.242-.732-.364-1.1a.605.605,0,0,0,.055-.068c1.156-1.913,3.444-2.908,5.743-3.7a1,1,0,0,0-.65-1.892,14.141,14.141,0,0,0-5.877,3.358,85.915,85.915,0,0,1-2.82-12.812,38.74,38.74,0,0,1,3.277-7.44A28.261,28.261,0,0,0,290,31.6a26.386,26.386,0,0,1-7.217-6.127,40.1,40.1,0,0,0,20.345,5.893,25.291,25.291,0,0,1-6.2-5.818c3.752,3.7,9.758,3.874,14.15,6.783l.025.018a51.352,51.352,0,0,1,1.644,16.409,7.6,7.6,0,0,1-1.086,4.034,8.178,8.178,0,0,1-2.471,2.013c-2.552,1.572-5.116,3.15-7.744,4.592A10.37,10.37,0,0,0,297.1,58.26c-2.933.007-5.488,1.851-8.274,2.8a10.459,10.459,0,0,0,1.344-1.775,1,1,0,1,0-1.719-1.024,8.453,8.453,0,0,1-2,2.294,3.053,3.053,0,0,1-.429.286,1.634,1.634,0,0,1-.278-.93,38.531,38.531,0,0,1,.107-5.732l.025-.367a7.311,7.311,0,0,0-.138-2.511,7.442,7.442,0,0,0-2.777-3.517,1,1,0,0,0-1.266,1.547,5.707,5.707,0,0,1,2.118,2.512,5.6,5.6,0,0,1,.067,1.834l-.024.366a40.112,40.112,0,0,0-.105,6.034A3.729,3.729,0,0,0,284.388,62a6.986,6.986,0,0,0-.977.313,5.967,5.967,0,0,0-3.078,3.041,23.678,23.678,0,0,1-4.8-.729c.429,4.931,3.178,9.429,6.71,12.9s7.826,6.039,12.089,8.555l-2.264-5.41a77.025,77.025,0,0,0,6.653,6.551q.188-3.054.374-6.11a16.635,16.635,0,0,1,3.087,5.757,54.11,54.11,0,0,0,6.5-14.364l-.07,9.331q2.092-5.919,4.187-11.839c1.138-3.22,2.278-6.45,3.279-9.716a27.319,27.319,0,0,0,.779,3.843l.032,8.188A10.535,10.535,0,0,0,321,65.652a28.553,28.553,0,0,0,.257-8q1.526,2.649,3.05,5.276c-.588-3.66-.075-7.406.064-11.109s-.16-7.62-2.162-10.756a14.332,14.332,0,0,1,5.33,2.205c-1.284-5.363-2.785-11.051-5.71-15.6a28.734,28.734,0,0,0-3.335-8.126,15.118,15.118,0,0,0,7.428-1.272c-4.112-1.549-6.2-5.985-9-9.367C312.154,3.171,304.6.127,297.136,0s-14.794,2.466-21.121,6.42c-4.224,2.639-8.221,6.108-9.942,10.781-1.166,3.166-4.768,4.621-5.884,7.363a18.172,18.172,0,0,0-.919,8.744,21.531,21.531,0,0,0,3.889,10.773A13.09,13.09,0,0,0,272.975,49.494Zm9.353,3.975a1.723,1.723,0,1,0-1.723,1.724A1.723,1.723,0,0,0,282.328,53.469Zm-81.023,54.136a1.723,1.723,0,1,0-1.723,1.724A1.723,1.723,0,0,0,201.305,107.605Zm10.713,3.2a1.724,1.724,0,1,0-1.723,1.723A1.722,1.722,0,0,0,212.018,110.8Zm80.058-59.546a1.723,1.723,0,1,0-1.724-1.723A1.722,1.722,0,0,0,292.076,51.257Zm7.148-11.2a1,1,0,0,0-.874-1.111,22.1,22.1,0,0,0-12.9,2.414,1,1,0,0,0,.94,1.765,20.094,20.094,0,0,1,11.721-2.194A.988.988,0,0,0,299.224,40.057ZM289.493,53.9a1,1,0,0,0,.831,1.145l6.1.967a1.047,1.047,0,0,0,.157.012,1,1,0,0,0,.155-1.988l-6.1-.967A1.006,1.006,0,0,0,289.493,53.9ZM200.835,96.787c-3.052.465-6.112,1.087-9.1,1.851a1,1,0,0,0,.248,1.968.969.969,0,0,0,.248-.031c2.92-.747,5.915-1.356,8.9-1.811a1,1,0,0,0-.3-1.977Zm13.827,4.89a1,1,0,0,0,.229-1.974,17.893,17.893,0,0,1-5.007-2.017,1,1,0,0,0-1.018,1.721,19.888,19.888,0,0,0,5.565,2.243A1.018,1.018,0,0,0,214.662,101.677Zm-10.713,15.252a4.219,4.219,0,0,1-.218-.364,2.783,2.783,0,0,0-1.28-1.343,3.809,3.809,0,0,0-1.423-.192.7.7,0,0,1-.466-.215,1,1,0,1,0-1.643-1.141,2.055,2.055,0,0,0,.1,2.394,2.575,2.575,0,0,0,1.844.955c.142.011.287.013.431.013a1.809,1.809,0,0,1,.364.021,2,2,0,0,1,.33.487,5.883,5.883,0,0,0,.328.538,3.318,3.318,0,0,0,2.539,1.392l.139,0a2.16,2.16,0,0,0,1.287-.381,2.692,2.692,0,0,0,.822-2.6q-.342-3.011-.846-6.082a5.692,5.692,0,0,1,.593-4.209,10.339,10.339,0,0,0,.887-2.978,1,1,0,1,0-1.99-.192A8.833,8.833,0,0,1,205,105.44a9.6,9.6,0,0,0-.9,3.229,9.934,9.934,0,0,0,.194,2.126c.321,1.957.6,3.95.822,5.925a3.12,3.12,0,0,1,.017.74.487.487,0,0,1-.185.016A1.344,1.344,0,0,1,203.949,116.929Zm-2.843,8.2a1,1,0,0,0,.125-1.992,9.038,9.038,0,0,1-6.522-4.3,1,1,0,0,0-1.725,1.013,11.08,11.08,0,0,0,8,5.273A.9.9,0,0,0,201.106,125.134Zm54.31,73.881a1,1,0,0,0-1.941.478l1.583,6.42a1,1,0,1,0,1.941-.478Zm-5.906-6.929a1,1,0,0,0,.725-1.688l-4.414-4.645a1,1,0,0,0-1.45,1.377l4.414,4.645A1,1,0,0,0,249.51,192.086Zm1.681,14.081a5.946,5.946,0,0,1-2.983-4.617,1,1,0,1,0-1.994.16,7.89,7.89,0,0,0,4.01,6.209,1,1,0,0,0,.967-1.752Zm-9.639-16.879a1,1,0,0,0-1.2.75,5.741,5.741,0,0,0,2.508,6.014,1,1,0,0,0,1.376-.324,1,1,0,0,0-.324-1.377,3.737,3.737,0,0,1-1.611-3.863A1,1,0,0,0,241.552,189.288Zm.278,10.383a2.162,2.162,0,0,1,.585-1.177l.037-.036.116.03a11.968,11.968,0,0,1,2.087.783,1,1,0,0,0,.874-1.8,14,14,0,0,0-2.436-.914,2.248,2.248,0,0,0-1.122-.065,2.066,2.066,0,0,0-.988.606,4.174,4.174,0,0,0-1.131,2.273,1,1,0,0,0,.84,1.139,1.093,1.093,0,0,0,.15.011A1,1,0,0,0,241.83,199.671ZM237.8,204.7a1,1,0,0,0,.539-1.308l-1.907-4.577a1,1,0,0,0-1.847.769l1.907,4.578a1,1,0,0,0,1.308.538ZM129.9,161.03c6.9,3.02,12.685,9.46,16.292,18.132,2.516,6.049,6.868,42.846,9.2,62.615.548,4.636,1,8.452,1.288,10.685a16.878,16.878,0,0,0-9.055,4.413,1,1,0,0,0,1.426,1.4,15.125,15.125,0,0,1,8.341-3.925.973.973,0,0,0,.429.111.955.955,0,0,0,.141-.01.973.973,0,0,0,.546-.286c2.1-.312,4.284-.452,6.445-.588.629-.04,1.253-.079,1.869-.123,10.087-.708,20.1-3.234,29.773-5.677,12.615-3.185,25.659-6.476,38.71-5.624a1,1,0,0,0,.131-2c-13.368-.87-26.566,2.459-39.33,5.682-9.594,2.422-19.514,4.926-29.423,5.622-.612.043-1.232.081-1.855.121-2.008.127-4.1.262-6.173.551-.287-2.228-.735-6.01-1.276-10.594-3.252-27.5-6.925-57.329-9.345-63.146-3.807-9.152-9.964-15.969-17.338-19.2a1,1,0,0,0-.8,1.832Zm80.812,41.921a1,1,0,1,0-1.764-.942,89.348,89.348,0,0,0-7.188,16.253c-1.934,6.468-2.277,12.486-1.02,17.889a1,1,0,0,0,.973.773.983.983,0,0,0,.227-.026,1,1,0,0,0,.748-1.2c-1.177-5.06-.844-10.733.988-16.864A87.778,87.778,0,0,1,210.707,202.951Zm-15.269,5.787h-.017a1,1,0,0,0-.984,1.016l.228,14.093a1,1,0,0,0,1,.984h.017a1,1,0,0,0,.984-1.015l-.228-14.095A1,1,0,0,0,195.438,208.738Zm-16.858,8.877a.99.99,0,0,0-1.07.924,39.334,39.334,0,0,0,4.384,21.068,1,1,0,0,0,1.772-.928,37.826,37.826,0,0,1-4.16-20A1,1,0,0,0,178.58,217.615Zm53.043,27.443a.983.983,0,0,0,1.053-.943,1,1,0,0,0-.944-1.053,4.387,4.387,0,0,0-4.093,2.82,9.429,9.429,0,0,0-.5,4.484,58.464,58.464,0,0,0,4.037,16.157,19.178,19.178,0,0,0,3.253,6.038,4.254,4.254,0,0,0,2.045,1.4,2.846,2.846,0,0,0,.714.09,3.119,3.119,0,0,0,1.747-.555,4.744,4.744,0,0,0,1.926-3.188,11.379,11.379,0,0,0-.1-2.968,13.275,13.275,0,0,1-.145-1.9,1,1,0,0,0-.978-1.022.976.976,0,0,0-1.022.979,15.149,15.149,0,0,0,.161,2.191,9.807,9.807,0,0,1,.1,2.456,2.738,2.738,0,0,1-1.061,1.8,1.022,1.022,0,0,1-.845.187,2.448,2.448,0,0,1-1.044-.788,17.534,17.534,0,0,1-2.883-5.427,56.628,56.628,0,0,1-3.913-15.595,7.7,7.7,0,0,1,.342-3.544A2.49,2.49,0,0,1,231.623,245.058ZM211.568,255.28a1,1,0,0,0-1.382-1.446c-9.462,9.04-16.8,20.23-23.89,31.05-8.452,12.892-17.19,26.222-29.463,35.657a101.7,101.7,0,0,1-14.751,9.181A196.711,196.711,0,0,1,112.936,342.2a1,1,0,1,0,.635,1.9,198.761,198.761,0,0,0,29.443-12.6,103.6,103.6,0,0,0,15.038-9.365c12.541-9.641,21.374-23.116,29.916-36.146C195,275.254,202.271,264.162,211.568,255.28Zm-95.726,29.249a1,1,0,0,0,.769-1.639,22.97,22.97,0,0,1-5.035-11.493,1,1,0,1,0-1.982.263,24.989,24.989,0,0,0,5.477,12.507A1,1,0,0,0,115.842,284.529Zm-8.8-7.679a1,1,0,1,0-1.981-.27,50.082,50.082,0,0,0,1.884,21.784,1,1,0,0,0,1.906-.606A48.081,48.081,0,0,1,107.042,276.85Zm54-124.4a81.445,81.445,0,0,1,23.568,19.4,1,1,0,0,0,1.54-1.277A83.482,83.482,0,0,0,162,150.69a1,1,0,1,0-.956,1.757Zm69.75,27.088a1.018,1.018,0,0,0,.218.024,1,1,0,0,0,.975-.783l6.562-29.562a1,1,0,1,0-1.953-.433l-6.561,29.561A1,1,0,0,0,230.792,179.535Zm7.725-11.511a1,1,0,0,0,1.414,0l10.2-10.269a1,1,0,0,0-1.42-1.409l-10.2,10.269A1,1,0,0,0,238.517,168.024ZM166.269,93.659a1.122,1.122,0,0,0,.115.006,1,1,0,0,0,.992-.886,23.925,23.925,0,0,1,7.381-14.192,39.365,39.365,0,0,1,14.131-8.43c9.81-3.577,20.193-4.177,29.239-1.692a1,1,0,1,0,.529-1.929c-9.442-2.593-20.258-1.974-30.453,1.742a41.342,41.342,0,0,0-14.841,8.875,25.928,25.928,0,0,0-7.973,15.4A1,1,0,0,0,166.269,93.659Zm169.289,52.61a1,1,0,0,0,1.266-.631c7.058-21.044,13.229-43.055,18.343-65.422a1,1,0,1,0-1.949-.446c-5.1,22.3-11.253,44.25-18.29,65.233A1,1,0,0,0,335.558,146.269ZM368.441,91.72a1,1,0,0,0-1.272.62c-9.44,27.4-19.157,48.891-31.5,69.691-9.33,15.715-24.4,27.351-38.974,38.6-5.394,4.164-10.971,8.47-16.168,12.916a1,1,0,0,0,1.3,1.52c5.159-4.413,10.716-8.7,16.09-12.853,14.723-11.367,29.947-23.121,39.473-39.166,12.419-20.92,22.188-42.528,31.675-70.06A1,1,0,0,0,368.441,91.72Zm-98.578,1.992a1,1,0,0,0-.412,1.353c5.3,9.942,11.048,19.807,17.074,29.323a1,1,0,1,0,1.689-1.07c-6-9.474-11.718-19.3-17-29.195A1,1,0,0,0,269.863,93.712Zm-4.566,12a1,1,0,0,0-.934-1.062.985.985,0,0,0-1.062.934c-.616,9.6,1.833,39.517,3.8,63.555,1.093,13.349,2.036,24.876,2.231,30.15a1,1,0,0,0,1,.963h.038a1,1,0,0,0,.962-1.036c-.2-5.318-1.141-16.867-2.236-30.239C267.133,145,264.69,115.168,265.3,105.714Zm42.875,123.207c7.139-1.695,15.315-1.288,23.647,1.176,6.691,1.979,13.431,5.143,21.855,10.256a1,1,0,1,0,1.037-1.709c-8.576-5.207-15.462-8.435-22.326-10.465-8.666-2.563-17.2-2.978-24.676-1.2a1,1,0,0,0,.463,1.945Zm-23.458,31.465a1,1,0,0,0-1.181.778c-5.35,26,1.01,53.123,6.622,77.055a1,1,0,0,0,.972.772,1,1,0,0,0,.975-1.229c-5.565-23.73-11.871-50.628-6.61-76.195A1,1,0,0,0,284.714,260.386Zm164.358,64.293c-16.535-2.034-33.258-11.043-47.089-25.368-13.645-14.131-23.225-31.842-30.046-45.693a1,1,0,0,0-1.8.883c6.887,13.983,16.565,31.868,30.4,46.2,14.15,14.654,31.3,23.875,48.285,25.963a.856.856,0,0,0,.123.008,1,1,0,0,0,.121-1.992ZM382.989,224.657a5.533,5.533,0,0,0,2.394,2.371,3.492,3.492,0,0,0,3.059-.115c1.911-.982,3.235-3.568,3.7-5.7,1.7-7.8,1.745-15.9,1.785-23.725.013-2.422.026-4.926.089-7.376a179.042,179.042,0,0,1,4.939-37.416l.184-.755c.9-3.7,1.833-7.529,1.281-11.408-.567-3.985-3.317-8.623-8.014-9.386a1,1,0,1,0-.32,1.973c3.534.575,5.871,4.306,6.354,7.7.5,3.5-.388,7.134-1.244,10.652l-.184.758a181.158,181.158,0,0,0-5,37.835c-.063,2.469-.076,4.984-.089,7.416-.04,7.725-.081,15.713-1.738,23.31-.365,1.666-1.395,3.694-2.66,4.344a1.483,1.483,0,0,1-1.354.055,3.826,3.826,0,0,1-1.483-1.586c-4.132-6.676-4.952-15.05-5.395-22.374a297.068,297.068,0,0,1-.072-34.5,1,1,0,0,0-.942-1.054.979.979,0,0,0-1.054.942,298.859,298.859,0,0,0,.072,34.737C377.758,208.918,378.613,217.585,382.989,224.657Zm17.958-28.86c-.266,6.167-.542,12.543-.464,18.823.252,20.529,4.762,35.86,13.789,46.869a1,1,0,0,0,1.547-1.268c-8.728-10.645-13.09-25.568-13.336-45.626-.078-6.224.2-12.572.463-18.711.432-10,.88-20.336-.169-30.483a1,1,0,0,0-1.991.206C401.821,175.609,401.377,185.871,400.947,195.8Zm-153.215,71.32a1,1,0,0,0-1.069.925c-.374,5.212-3.923,9.291-7.681,13.611-1.264,1.452-2.57,2.953-3.728,4.487-3.493,4.625-5.836,9.913-8.125,15.377q-.985,2.352-1.958,4.715c-3.825,9.255-7.78,18.824-13.221,27.347-5,7.83-13.555,18.111-25.933,22.63a1,1,0,1,0,.686,1.879c12.9-4.712,21.768-15.344,26.932-23.432,5.537-8.672,9.526-18.326,13.385-27.661q.974-2.355,1.953-4.7c2.238-5.342,4.524-10.506,7.877-14.945,1.117-1.478,2.4-2.953,3.641-4.38,3.808-4.376,7.746-8.9,8.166-14.78A1,1,0,0,0,247.732,267.117Z" style="fill: inherit;"/></g></svg>