<svg xmlns="http://www.w3.org/2000/svg" xmlns:xlink="http://www.w3.org/1999/xlink" preserveAspectRatio="xMidYMid meet" version="1.0" viewBox="-0.0 -0.4 274.1 210.5" zoomAndPan="magnify" style="fill: rgb(0, 0, 0);" original_string_length="12646" width="175.97185810453905px" height="135.65830515695376px"><path d="M42.8,205.529l.05-.27C42.908,205.359,42.908,205.479,42.8,205.529Zm221.07-60.49a10.9,10.9,0,0,1-1.7-3.3,14.813,14.813,0,0,1-.2-3.06c-.15-4.75-2.72-9.36-6.98-9.4a17.25,17.25,0,0,0-5.54-5.79c5.27-2.58,7.62-9.1,7.15-14.94-.23-2.76-1.27-5.85-3.84-6.87a3.426,3.426,0,0,1-1.19-.6,3.047,3.047,0,0,1-.55-1.7,6.112,6.112,0,0,0-6.78-4.86,10.408,10.408,0,0,0-7.91-8.61c-4.06-.88-8.58,1.05-11.55,5.07-.24-1.45-2.33-2.16-3.02-.84a21.779,21.779,0,0,0-16.23-7.01,34.96,34.96,0,0,1-4.46.05,33.574,33.574,0,0,1-4.92-1.19,24.708,24.708,0,0,0-15.78,1.19,24.985,24.985,0,0,0-28.81-5.6,13.21,13.21,0,0,0-5.54-4.35,7.02,7.02,0,0,0-6.76.87,3.711,3.711,0,0,0-3.34-3.13,14.084,14.084,0,0,0-.28-11.1A16.635,16.635,0,0,0,138.121,42.5a33.961,33.961,0,0,0,18.731-4.21c1.04-.586,2.192-1.526,1.975-2.7-.207-1.125-1.516-1.614-2.625-1.9l-26.288-6.765a12.177,12.177,0,0,0-1.8-6.849,24.365,24.365,0,0,0-4.55-4.97c-1.65-1.51-3.85-3.12-5.47-2.05a17.277,17.277,0,0,0-16.75-7.25,9.991,9.991,0,0,0-15.83-3.19c-1.68-1.55-4.44-.74-6.33.55l-.28,1.54a12.647,12.647,0,0,0-13.43-1.77,12.618,12.618,0,0,0-6.92,11.79c-3.92-1.17-8.28,1.34-10.18,4.96-1.766,3.393-1.739,7.446-.856,11.187-.382.264-.763.529-1.147.79a4.754,4.754,0,0,0-3.285,2.167A156.469,156.469,0,0,1,18.262,46.822a8.919,8.919,0,0,0-3.492,2.1,2.95,2.95,0,0,0-.291,3.754,4.155,4.155,0,0,0,2.962,1A54.567,54.567,0,0,0,35.586,51.6a16.09,16.09,0,0,0,2.312,8,11.509,11.509,0,0,0-.37,13.84,5.266,5.266,0,0,1,1.15,1.97,5.181,5.181,0,0,1-.35,2.38,12.218,12.218,0,0,0,.94,8.8c.46.87,1.03,1.69,1.43,2.6.98,2.25.84,4.81,1.17,7.24s1.42,5.09,3.96,6.01a33.7,33.7,0,0,0-15.62,31.09,8.122,8.122,0,0,1-.11,3.37,10.615,10.615,0,0,1-1.63,2.55,11.037,11.037,0,0,0-1.91,4.83,9.964,9.964,0,0,1-.7,3.4,7.7,7.7,0,0,1-1.54,1.79,24.316,24.316,0,0,0-6.933,19.784c-.212-.031-.425-.057-.633-.073-1.658-.126-3.327-.061-4.981-.224a35.555,35.555,0,0,1-8.739-2.395,3.9,3.9,0,0,0-1.809-.356A1.329,1.329,0,0,0,0,167.389a1.913,1.913,0,0,0,.119.562L4.2,180.8c.457,1.438,1.052,3.037,2.431,3.65a5.044,5.044,0,0,0,2.307.271,39.74,39.74,0,0,0,5.35-.623c.211-.039.422-.081.633-.128a4.5,4.5,0,0,0,1.808,1.563,4.4,4.4,0,0,0,1.127.327,10.725,10.725,0,0,0-.368,4.546,6.828,6.828,0,0,1,2.556,1.369c-.923.1-2.022.339-2.343,1.21a2.473,2.473,0,0,0-.03,1.21,45.318,45.318,0,0,0,1.2,5.648,5.048,5.048,0,0,0,1.456,2.707,5.025,5.025,0,0,0,3.189.765,37.419,37.419,0,0,0,6.18-.512,9.11,9.11,0,0,0,2.318,1.38,13.172,13.172,0,0,0,4.88,3.13c1.88.53,4.2.02,5.15-1.68.12-.22.25-.47.49-.52a.311.311,0,0,1,.31.15l.09-.51a39.079,39.079,0,0,0,27.31,2.95,43.05,43.05,0,0,1,4.58-1.12,34.306,34.306,0,0,1,6.41-.04c7.62.3,15.3-.64,25.64-3.43,6.96,1.57,14.93,2.95,20.68-1.27,3.969,2.767,9.532,3.042,14.292,1.063a20.425,20.425,0,0,0,.27,3.45,2.893,2.893,0,0,0,.362,1.228,2.167,2.167,0,0,0,.764.654c1.493.84,3.315.738,5.023.612l9.934-.73c1.246-.092,2.627-.247,3.448-1.188a2.746,2.746,0,0,0,.592-1.172,70.569,70.569,0,0,0,10.075-.637,31.466,31.466,0,0,1,5.21-.49,34.954,34.954,0,0,1,6.32,1.08c11.42,2.4,23.26.62,34.72-1.57,6.09-1.16,12.22-2.44,18.42-2.3,6.26.15,13.45,1.47,17.74-2.88,4.49,2.21,10.21.14,13.45-3.68s4.41-8.98,4.84-13.97A57.929,57.929,0,0,0,263.868,145.039Z" style="fill: none;"/><g id="__id549_syj4yglxo9"><path d="M273.018,181.309c-.43,4.99-1.61,10.14-4.84,13.97s-8.96,5.89-13.45,3.68c-4.29,4.35-11.48,3.03-17.74,2.88-6.2-.14-12.33,1.14-18.42,2.3-11.46,2.19-23.3,3.97-34.72,1.57a34.954,34.954,0,0,0-6.32-1.08,31.466,31.466,0,0,0-5.21.49,71.115,71.115,0,0,1-30.14-2.35c-4.83,2.13-10.56,1.9-14.62-.93-5.75,4.22-13.72,2.84-20.68,1.27-10.34,2.79-18.02,3.73-25.64,3.43a34.306,34.306,0,0,0-6.41.04,43.05,43.05,0,0,0-4.58,1.12,39.079,39.079,0,0,1-27.31-2.95l-.09.51a.311.311,0,0,0-.31-.15c-.24.05-.37.3-.49.52-.95,1.7-3.27,2.21-5.15,1.68a13.172,13.172,0,0,1-4.88-3.13c-3.02-1.28-4.13-3.09-4.09-4.94a5,5,0,0,1,2.88-4.37,6.342,6.342,0,0,1,2.49-8.86c-3.33.89-7.64,1-10.7-1-2.14.91-4.23,1.27-5.87.52a4.644,4.644,0,0,1-2.63-4.39,4.276,4.276,0,0,1-1.05-5.73,5.229,5.229,0,0,1,5-2.32,24.578,24.578,0,0,1,6.27-23.62,7.7,7.7,0,0,0,1.54-1.79,9.964,9.964,0,0,0,.7-3.4,11.037,11.037,0,0,1,1.91-4.83,10.615,10.615,0,0,0,1.63-2.55,8.122,8.122,0,0,0,.11-3.37,33.7,33.7,0,0,1,15.62-31.09c-2.54-.92-3.63-3.57-3.96-6.01s-.19-4.99-1.17-7.24c-.4-.91-.97-1.73-1.43-2.6a12.218,12.218,0,0,1-.94-8.8,5.181,5.181,0,0,0,.35-2.38,5.266,5.266,0,0,0-1.15-1.97A11.509,11.509,0,0,1,37.9,59.6c-4.46-7.21-2.32-17.73,4.61-22.61a4.6,4.6,0,0,1,5.2-5.33c-1.07-3.95-1.22-8.34.67-11.97s6.26-6.13,10.18-4.96a12.618,12.618,0,0,1,6.92-11.79,12.647,12.647,0,0,1,13.43,1.77l.28-1.54c1.89-1.29,4.65-2.1,6.33-.55a9.991,9.991,0,0,1,15.83,3.19,17.277,17.277,0,0,1,16.75,7.25c1.62-1.07,3.82.54,5.47,2.05a24.365,24.365,0,0,1,4.55,4.97,12.179,12.179,0,0,1,1.79,7.11,1.377,1.377,0,0,0,.11.83,1.464,1.464,0,0,0,.82.51,8.135,8.135,0,0,1,4.4,4.74,24.27,24.27,0,0,1,1.29,6.5,16.466,16.466,0,0,1-.89,20.1,14.084,14.084,0,0,1,.28,11.1,3.711,3.711,0,0,1,3.34,3.13,7.02,7.02,0,0,1,6.76-.87,13.21,13.21,0,0,1,5.54,4.35,24.985,24.985,0,0,1,28.81,5.6,24.708,24.708,0,0,1,15.78-1.19,33.574,33.574,0,0,0,4.92,1.19,34.96,34.96,0,0,0,4.46-.05,21.779,21.779,0,0,1,16.23,7.01c.69-1.32,2.78-.61,3.02.84,2.97-4.02,7.49-5.95,11.55-5.07a10.408,10.408,0,0,1,7.91,8.61,6.112,6.112,0,0,1,6.78,4.86,3.047,3.047,0,0,0,.55,1.7,3.426,3.426,0,0,0,1.19.6c2.57,1.02,3.61,4.11,3.84,6.87.47,5.84-1.88,12.36-7.15,14.94a17.25,17.25,0,0,1,5.54,5.79c4.26.04,6.83,4.65,6.98,9.4a14.813,14.813,0,0,0,.2,3.06,10.9,10.9,0,0,0,1.7,3.3A57.929,57.929,0,0,1,273.018,181.309Zm-230.17,23.95-.05.27C42.908,205.479,42.908,205.359,42.848,205.259Z" style="fill: rgb(209, 198, 184);"/></g><g id="__id550_syj4yglxo9"><path d="M49.094,29.792l.088,15.783a54.807,54.807,0,0,1-31.741,8.1,4.155,4.155,0,0,1-2.962-1,2.95,2.95,0,0,1,.291-3.754,8.919,8.919,0,0,1,3.492-2.1A156.434,156.434,0,0,0,49.094,29.792Zm109.733,5.8c-.207-1.125-1.516-1.614-2.625-1.9L123.976,25.4,129.2,40.7a34.006,34.006,0,0,0,27.652-2.407C157.892,37.707,159.044,36.767,158.827,35.592Zm-42.818-4.839C111.794,24.091,105.125,18.792,97.4,17.2a34.344,34.344,0,0,0-13.94.387A35.049,35.049,0,0,0,69.786,23.3a34.472,34.472,0,0,0-7.331,7.666,52.166,52.166,0,0,0,3.7,65.685c4.894,5.376,8.477,4.054,10.471,2.874a23.441,23.441,0,0,0,7.655-7.32c.591-.905,1.238-1.938,2.3-2.161a15.062,15.062,0,0,1,1.946.016c1.185-.089,2.167-.98,3.333-1.215a6.265,6.265,0,0,1,3.368.59,39.958,39.958,0,0,0,9.737,2.724,13.655,13.655,0,0,0,9.642-2.255c3.947-2.982,5.164-8.3,6-13.172,1.324-7.771,2.36-15.647,1.952-23.52S120.223,37.415,116.009,30.753Z" style="fill: rgb(253, 169, 181);"/></g><g id="__id551_syj4yglxo9"><path d="M18.152,181.046a2.682,2.682,0,0,1-1.333,2.2,7,7,0,0,1-2.532.849,39.74,39.74,0,0,1-5.35.623,5.044,5.044,0,0,1-2.307-.271c-1.379-.613-1.974-2.212-2.431-3.65L.119,167.951A1.913,1.913,0,0,1,0,167.389a1.329,1.329,0,0,1,1.223-1.184,3.9,3.9,0,0,1,1.809.356,35.555,35.555,0,0,0,8.739,2.395c1.654.163,3.323.1,4.981.224a3.637,3.637,0,0,1,2.648,1.025c.886,1.1.281,2.862-.871,3.68a7.867,7.867,0,0,1-4.047,1.057C16.257,178.438,18.119,179.423,18.152,181.046Zm57.4-113.5a1,1,0,0,0,.789,1.174,25.745,25.745,0,0,1,10.153,4.445,1,1,0,0,0,1.18-1.615,27.76,27.76,0,0,0-10.947-4.793A1,1,0,0,0,75.549,67.546Zm27.223-3.061A26.167,26.167,0,0,0,91.437,71.5a1,1,0,1,0,1.452,1.375A24.159,24.159,0,0,1,103.356,66.4a1,1,0,1,0-.584-1.913Zm33.706,13.971h-.022a1,1,0,0,0-.978,1.021,32.6,32.6,0,0,1-.385,7.251,10.208,10.208,0,0,1-3.233,5.859c-.123.1-.25.2-.377.3a5.175,5.175,0,0,0-2.142,2.888l-.152.387c-1.918,4.722-7.191,7.161-12.427,9.252a1,1,0,0,0,.372,1.929.984.984,0,0,0,.37-.071c5.636-2.252,11.324-4.907,13.539-10.357l.166-.425a3.3,3.3,0,0,1,1.491-2.016c.143-.11.285-.219.424-.333a12.162,12.162,0,0,0,3.926-7,34.018,34.018,0,0,0,.428-7.7A1,1,0,0,0,136.478,78.456ZM58.817,112.222a12.549,12.549,0,0,0,6.64,1.793,17.336,17.336,0,0,0,3.331-.279,13.19,13.19,0,0,0,8.4,3,12.626,12.626,0,0,0,3.753-.562,1,1,0,1,0-.594-1.91,11.1,11.1,0,0,1-10.6-2.348.993.993,0,0,0-.878-.238,15.669,15.669,0,0,1-3.392.332,10.542,10.542,0,0,1-5.582-1.477,6.208,6.208,0,0,1-2.913-4.443,1,1,0,1,0-1.991.183A8.13,8.13,0,0,0,58.817,112.222Zm5.767,13.646a1,1,0,0,0-1.411.08,13.842,13.842,0,0,0-3.627,11.082,10.352,10.352,0,0,0,7.082,8.326,6.343,6.343,0,0,0,3.837,4.912,11.846,11.846,0,0,0,4.818.85c.59,0,1.168-.022,1.722-.05a1,1,0,0,0-.1-2,12.416,12.416,0,0,1-5.63-.631c-1.442-.639-2.815-2.142-2.649-3.781a1,1,0,0,0-.826-1.086,8.168,8.168,0,0,1-6.276-6.846,11.83,11.83,0,0,1,3.142-9.446A1,1,0,0,0,64.584,125.868ZM146.53,95.894a1,1,0,0,0-1.926.541,16.387,16.387,0,0,0,1.537,3.4,11.8,11.8,0,0,1,1.488,3.554,5.481,5.481,0,0,1-2.313,5.349,1,1,0,0,0,.475,1.831,2.919,2.919,0,0,1,1.4,5.334,1,1,0,0,0,1.114,1.663,4.893,4.893,0,0,0-.46-8.419,7.561,7.561,0,0,0,1.755-6.1,13.449,13.449,0,0,0-1.7-4.177A14.606,14.606,0,0,1,146.53,95.894Zm92.036,21.629a7.25,7.25,0,0,0-4.094-1.357c.575-3.512-1.483-6.941-2.891-8.808a13.044,13.044,0,0,0-5.7-4.7A6.87,6.87,0,0,0,218.4,104.2a1,1,0,0,0,1.508,1.314,4.854,4.854,0,0,1,5.279-.981,11,11,0,0,1,4.8,4.026c1.361,1.8,3.455,5.29,2.2,8.392a1,1,0,0,0,1.174,1.343,5.3,5.3,0,0,1,6.251,4.381,1,1,0,0,0,.994.9c.033,0,.066,0,.1,0a1,1,0,0,0,.9-1.092A6.968,6.968,0,0,0,238.566,117.523Zm-37.709-7.657a1,1,0,0,0-.867-1.117,1.015,1.015,0,0,0-1.117.867,16.378,16.378,0,0,0,.126,3.939,17.46,17.46,0,0,1,.174,3,4.8,4.8,0,0,1-1.447,3.2,2.108,2.108,0,0,1-1.214.556,1.97,1.97,0,0,0-.52.011,1,1,0,0,0,.084,1.985c.093.007.185.011.277.011a.549.549,0,0,1,.232.323,2.059,2.059,0,0,1-.256,1.255,7.124,7.124,0,0,1-4.855,3.934,1,1,0,0,0,.215,1.977,1.018,1.018,0,0,0,.218-.024,9.161,9.161,0,0,0,6.242-5.06,3.89,3.89,0,0,0,.381-2.547,2.534,2.534,0,0,0-.146-.433,4.627,4.627,0,0,0,.659-.483,6.8,6.8,0,0,0,2.126-4.587,19.133,19.133,0,0,0-.183-3.347A14.63,14.63,0,0,1,200.857,109.866Zm-11.589,37.24a27.146,27.146,0,0,0-14.716,12.024,29.939,29.939,0,0,0-3.409,19.015,24.067,24.067,0,0,0-1.846,5.026,2.113,2.113,0,0,0-.052.57,14.561,14.561,0,0,0-6.6,3.356c-.153-.04-.289-.092-.454-.125q-8.547-1.687-17.2-2.773a2.9,2.9,0,0,0-1.738.144,2.948,2.948,0,0,0-1.121,2.364l-.761,5.814a7.47,7.47,0,0,0,.15,3.753,2.573,2.573,0,0,0,3,1.68,5.044,5.044,0,0,0-2.546,3.731,14.941,14.941,0,0,0,.146,4.667,2.893,2.893,0,0,0,.362,1.228,2.167,2.167,0,0,0,.764.654c1.493.84,3.315.738,5.023.612l9.934-.73c1.246-.092,2.627-.247,3.448-1.188,1.193-1.366.524-3.455.627-5.265a11.644,11.644,0,0,1,2-5.078,11.6,11.6,0,0,0,1.99-5.08,4.034,4.034,0,0,0-1.61-3.47,12.462,12.462,0,0,1,5.739-2.46,1.262,1.262,0,0,0,.373.062,1.319,1.319,0,0,0,.893-.357,1,1,0,0,0-.4-1.7,22.116,22.116,0,0,1,1.806-4.8,1,1,0,0,0,.1-.6,28.055,28.055,0,0,1,3.119-18.052A25.135,25.135,0,0,1,189.9,149a1,1,0,1,0-.634-1.9ZM92.533,169.851h-.007c-9.418.06-19.695,5.158-24.822,12.222a13.985,13.985,0,0,0-14.354,2.458,18.138,18.138,0,0,0-16.862.448.976.976,0,0,0-.31.285,8.618,8.618,0,0,0-2.477-.945A75.353,75.353,0,0,0,21.217,182.5a3.062,3.062,0,0,0-1.359.126,2.741,2.741,0,0,0-1.25,1.358,10.749,10.749,0,0,0-1.121,6.416,6.828,6.828,0,0,1,2.556,1.369c-.923.1-2.022.339-2.343,1.21a2.473,2.473,0,0,0-.03,1.21,45.318,45.318,0,0,0,1.2,5.648,5.048,5.048,0,0,0,1.456,2.707,5.025,5.025,0,0,0,3.189.765,34.748,34.748,0,0,0,11.743-1.955c.891-1.024,1.842-2.229,1.666-3.576-.109-.827-.641-1.563-.7-2.4a3.956,3.956,0,0,1,.566-1.994A15.692,15.692,0,0,0,38.37,189.8a3.95,3.95,0,0,0-.582-3.249,16.084,16.084,0,0,1,15.257.081,1,1,0,0,0,1.22-.19,11.918,11.918,0,0,1,13.33-2.22,1,1,0,0,0,1.284-.338c3.943-5.93,13.336-11.968,23.66-12.034a1,1,0,0,0-.006-2Zm-58.022,3.026A8.234,8.234,0,0,0,37.94,178.6a1,1,0,0,0,1.118-1.658,6.591,6.591,0,0,1-1.306-9.235,1,1,0,0,0-.225-1.481c-3.687-2.383-5.567-6.526-5.157-11.366.38-4.485,2.417-8.693,4.3-12.285a1,1,0,0,0-1.773-.927c-1.97,3.765-4.106,8.188-4.517,13.044-.441,5.218,1.448,9.756,5.209,12.614A8.431,8.431,0,0,0,34.511,172.877ZM91.336,55.1c3.023.8,6.123,1.473,9.212,2.008a1.106,1.106,0,0,0,.171.014,1,1,0,0,0,.17-1.985c-3.033-.525-6.076-1.188-9.043-1.971a1,1,0,0,0-.51,1.934ZM90.121,83.982c.033,0,.067,0,.1,0a1,1,0,0,0,.9-1.095l-.629-6.294a1,1,0,1,0-1.99.2l.629,6.3A1,1,0,0,0,90.121,83.982Zm56.97-46.561a1,1,0,0,0,1.344-1.482,9.443,9.443,0,0,0-5.673-2,31.694,31.694,0,0,0-13.348,1.767,1,1,0,1,0,.68,1.881,29.724,29.724,0,0,1,12.5-1.655A7.672,7.672,0,0,1,147.091,37.421ZM23.761,53a.988.988,0,0,0,.251.032,1,1,0,0,0,.967-.75A3.115,3.115,0,0,1,26.2,50.905a37.063,37.063,0,0,1,19.63-7.436,1,1,0,1,0-.143-2,39.093,39.093,0,0,0-20.7,7.842,4.736,4.736,0,0,0-1.938,2.469A1,1,0,0,0,23.761,53Zm72.4-.793a3.625,3.625,0,1,0-3.625-3.625A3.625,3.625,0,0,0,96.158,52.211Zm-17.977,1.55a3.625,3.625,0,1,0-3.625-3.625A3.625,3.625,0,0,0,78.181,53.761Z" style="fill: inherit;"/></g></svg>