<svg xmlns="http://www.w3.org/2000/svg" xmlns:xlink="http://www.w3.org/1999/xlink" preserveAspectRatio="xMidYMid meet" version="1.0" viewBox="-1.8 -2.9 292.5 391.1" zoomAndPan="magnify" style="fill: rgb(0, 0, 0);" original_string_length="14573" width="128.69486457810626px" height="171.8013968882487px"><g id="__id542_syj4yglxo9"><path d="M251.556,315.281c-5.611-2.28-11.481-4.01-16.82-6.88-9.2-4.93-17.13-13.3-27.521-14.23,3.98-19.63,8.021-38.3,12.06-56.96q1.351-6.2,2.68-12.38c1.31-6.07,2.63-12.15,3.63-18.28.93-5.69,1.591-11.43,1.95-17.19v-.05a157.576,157.576,0,0,0-2.03-37.57,137.735,137.735,0,0,0-9.839-32.2c-4.56-10.17-10.441-19.75-14.4-30.17-6.839-18.03-7.76-38.14-16.519-55.32a67.12,67.12,0,0,0-35.9-32.01c-14.28-4.95-30.549-.53-41.659,9.31s-17.351,24.42-19,39.17c-1.911,17,1.81,34.37-.981,51.25a119.046,119.046,0,0,1-4.289,16.49,509.191,509.191,0,0,1-19.61,51.77c-.975,1.134-1.955,2.293-2.936,3.465-2.408-1.859-4.5-4.2-6.954-6.025-3.851-2.86-8.531-4.37-13.18-5.56-6.351-1.63-13.25-2.71-19.341-.27-4.31,1.73-7.789,5.07-10.649,8.73A42.611,42.611,0,0,0,2.7,184.741a45.257,45.257,0,0,0-.13,22.71,50.031,50.031,0,0,0,13.371,24.53c.335.327.681.644,1.028.96A43.4,43.4,0,0,0,7.44,253.519c-1.346,8.8.726,18.262,6.4,25.12,2.179,2.632,4.981,4.923,8.317,5.661.178.04.359.063.538.093C12,295.049,3.61,308.416.9,323.251a58.611,58.611,0,0,0,10.67,44.93c12.45,12.06,30.561,16.43,47.88,16.89s34.57-2.45,51.89-2.69c17.1-.23,34.11,2.16,51.161,3.37a371.235,371.235,0,0,0,104.92-7.55c8.419-1.83,17.3-4.26,23.2-15.81C289.325,340.911,271.5,323.391,251.556,315.281Z" style="fill: rgb(23, 80, 87);"/></g><g id="__id543_syj4yglxo9"><path d="M290.616,362.391c-5.9,11.55-14.781,13.98-23.2,15.81a371.235,371.235,0,0,1-104.92,7.55c-17.051-1.21-34.06-3.6-51.161-3.37-17.32.24-34.56,3.16-51.89,2.69s-35.43-4.83-47.88-16.89A58.611,58.611,0,0,1,.9,323.251c2.771-15.14,11.45-28.76,22.461-39.52-8.87-3-13.711-13.12-13.55-22.48s4.209-18.16,8.38-26.61c1.819-8.93,7.469-16.53,12.969-23.79,9.36-12.37,18.74-24.74,27.721-35.56q2.22-2.7,4.43-5.26a509.191,509.191,0,0,0,19.61-51.77,119.046,119.046,0,0,0,4.289-16.49c2.791-16.88-.93-34.25.981-51.25,1.649-14.75,7.889-29.33,19-39.17s27.379-14.26,41.659-9.31a67.12,67.12,0,0,1,35.9,32.01c8.759,17.18,9.68,37.29,16.519,55.32,3.96,10.42,9.841,20,14.4,30.17a137.735,137.735,0,0,1,9.839,32.2,157.576,157.576,0,0,1,2.03,37.57v.05c-.359,5.76-1.02,11.5-1.95,17.19-1,6.13-2.32,12.21-3.63,18.28q-1.335,6.2-2.68,12.38c-4.039,18.66-8.08,37.33-12.06,56.96,10.391.93,18.32,9.3,27.521,14.23,5.339,2.87,11.209,4.6,16.82,6.88C271.5,323.391,289.325,340.911,290.616,362.391Z" style="fill: rgb(23, 80, 87);"/></g><g id="__id544_syj4yglxo9"><path d="M146.176,235.591a3.619,3.619,0,0,1-1.171,1.58,96.519,96.519,0,0,1-23.9,16.18,69.466,69.466,0,0,0,5.01,6.26c-10.421,6.86-21.76,13.99-34.231,13.5-9.839-.39-18.779-5.5-27.279-10.48-8.06-4.72-16.651-10.04-23.351-19.47a38.534,38.534,0,0,1-25.319-11.18,50.031,50.031,0,0,1-13.371-24.53,45.257,45.257,0,0,1,.13-22.71,42.611,42.611,0,0,1,7.551-14.37c2.86-3.66,6.339-7,10.649-8.73,6.091-2.44,12.99-1.36,19.341.27,4.649,1.19,9.329,2.7,13.18,5.56,2.46,1.83,4.549,4.17,6.96,6.03a16.733,16.733,0,0,0,2.829,1.81c2.81,1.39,6.02,1.78,8.82,3.17s5.04,3.71,7.45,5.72a14.574,14.574,0,0,0,4.55,2.8,28.432,28.432,0,0,0,3.57.8c8.9,1.85,16.29,9.53,18.44,19.23a35.9,35.9,0,0,1,3.73.49,39.6,39.6,0,0,1,18.5,8.56c1.88,1.57,3.68,3.35,5.981,4.17,1.11.4,2.3.56,3.42.96,4.869,1.75,6.9,7.41,8.32,12.4A3.64,3.64,0,0,1,146.176,235.591Z" style="fill: rgb(255, 255, 255);"/></g><g id="__id545_syj4yglxo9"><path d="M81.367,264.928c-2.727-.393-5.4-1.137-8.152-1.34-2.729-.2-5.472.133-8.207.043-8.793-.287-16.89-4.928-23.682-10.519-1.338-1.1-2.725-2.389-4.369-7.29a11.07,11.07,0,0,1,7.131-8.017c5.063-1.718,10.505.447,15.767,1.4s10.641.676,15.969.363c1.815-.107,4.178.158,4.619,1.922a2.7,2.7,0,0,1-1.584,2.858,10.936,10.936,0,0,1-3.562.731l14.769,1.183a6.576,6.576,0,0,1,2.828.659,2.25,2.25,0,0,1,1.177,2.443c-.324,1.049-1.543,1.483-2.6,1.771a2.931,2.931,0,1,1,.674,5.7c1.306-.255,2.158,1.677,1.433,2.793a3.923,3.923,0,0,1-3.56,1.357c.769-.1,1.325.879,1.1,1.621a2.834,2.834,0,0,1-1.636,1.554A14.28,14.28,0,0,1,81.367,264.928Zm43.726-6.474-3.245.844a16.993,16.993,0,0,0-12.543-2.734,7.938,7.938,0,0,0-2.961,1.055c-.925.6-1.637,1.486-2.55,2.1-2.026,1.374-4.835,1.322-6.684,2.925a1.873,1.873,0,0,0-.675,1c-.223,1.131,1.162,1.854,2.288,2.1a64.021,64.021,0,0,0,9.973.983c-9.64,2.786-19.851-.261-29.734-2a2.7,2.7,0,0,0-2.329.317c-.877.817-.285,2.34.637,3.106s2.132,1.227,2.8,2.223a6.88,6.88,0,0,0-3.563-1.326c-1.285.027-2.634,1.1-2.446,2.372a2.854,2.854,0,0,0,.666,1.316,8.409,8.409,0,0,0,4.441,2.873,5.123,5.123,0,0,0-2.335-.231,1.759,1.759,0,0,0-1.475,1.607c.028.808.778,1.381,1.473,1.8a25.228,25.228,0,0,0,9.924,3.363,1.858,1.858,0,0,0,.949,2.269,5.409,5.409,0,0,0,2.646.446l19.093-.02c4.354,0,9-.1,12.6-2.542,2.794-1.9,4.724-5.08,7.89-6.255a5.119,5.119,0,0,0,2.331-1.178c.775-.934.479-2.326.095-3.478A40.994,40.994,0,0,0,125.093,258.454Zm-80.246-55.7a19.529,19.529,0,0,0,11.868-6.032,17.767,17.767,0,0,0,3.639-16.545,19.28,19.28,0,0,0-11.716-12.4,75.829,75.829,0,0,0-8.7-2.124c-3.711-.891-7.329-2.3-11.135-2.587s-8.014.8-10.224,3.907c-6.289,8.857-5.246,16.523-2.026,22.178s8.825,9.706,14.94,11.931A28.1,28.1,0,0,0,44.847,202.752Zm99.2-87.511a136.707,136.707,0,0,1-4.141-16.84c-.039-.25-.08-.5-.109-.75a9.993,9.993,0,0,0,4.39-4.49c.05-2.19.089-4.39.129-6.59.21-12.9.15-26.04-1.74-40.28a180.813,180.813,0,0,0-4.93-24.24,29.35,29.35,0,0,0-39.029,10.64,2.313,2.313,0,0,0-.211.34,28.148,28.148,0,0,0-1.8,3.55,35.251,35.251,0,0,0-2.48,15.29v.03c.509,11.24,5.23,21.62,11.129,31.36.361.59.731,1.19,1.1,1.78.419.68.859,1.36,1.289,2.04,1.51,2.35,3.06,4.66,4.62,6.94,1.93,2.81,3.99,5.71,7.031,7.24,2.959,1.49,6.289,1.42,9.58.68.269-.06.54-.12.8-.19.8-.2,1.6-.44,2.389-.71a52.846,52.846,0,0,1-.81,10.53c-.319,1.89-.73,3.77-1.2,5.63a45.786,45.786,0,0,0,7.86,9.96q3.254-5,6.739-9.83C144.455,116.631,144.246,115.941,144.046,115.241Z" style="fill: rgb(253, 169, 181);"/></g><g id="__id546_syj4yglxo9"><path d="M227.535,189.311v.05a214.817,214.817,0,0,1-26.26,71.97c-8.38-10.69-10.82-24.71-15.82-37.33-2.98-7.54-6.92-14.65-10.51-21.91q-.314-.645-.63-1.29c-9.819-20.12-17.04-41.36-23.55-62.82-2.089-6.87-4.1-13.77-6.11-20.65-.2-.7-.409-1.39-.609-2.09a136.707,136.707,0,0,1-4.141-16.84c-.039-.25-.08-.5-.109-.75a9.993,9.993,0,0,0,4.39-4.49c.05-2.19.089-4.38.129-6.59.21-12.9.15-26.04-1.74-40.28a180.813,180.813,0,0,0-4.93-24.24,29.35,29.35,0,0,0-39.029,10.64,2.313,2.313,0,0,0-.211.34,28.148,28.148,0,0,0-1.8,3.55,35.251,35.251,0,0,0-2.48,15.29v.03c.509,11.24,5.23,21.62,11.129,31.36.78,1.28,1.58,2.56,2.39,3.82,1.541,16.99-4.479,33.66-7.06,50.53a127.328,127.328,0,0,0,7.89,66.89c.42,1.01.84,2.02,1.29,3.02a35.9,35.9,0,0,0-3.73-.49c-2.15-9.7-9.539-17.38-18.44-19.23a28.432,28.432,0,0,1-3.57-.8,14.574,14.574,0,0,1-4.55-2.8c-2.41-2.01-4.64-4.32-7.45-5.72s-6.01-1.78-8.82-3.17a16.733,16.733,0,0,1-2.829-1.81c.969-1.18,1.949-2.33,2.93-3.47a509.191,509.191,0,0,0,19.61-51.77,119.046,119.046,0,0,0,4.289-16.49c2.791-16.88-.93-34.25.981-51.25,1.649-14.75,7.889-29.33,19-39.17s27.379-14.26,41.659-9.31a67.12,67.12,0,0,1,35.9,32.01c8.759,17.18,9.68,37.29,16.519,55.32,3.96,10.42,9.841,20,14.4,30.17a137.735,137.735,0,0,1,9.839,32.2A157.576,157.576,0,0,1,227.535,189.311Z" opacity=".5" style="fill: rgb(229, 69, 42);"/></g><g id="__id547_syj4yglxo9"><path d="M199.84,255.156c-.661,10.881-7.008,20.136-15.078,26.647-2.636,2.127-5.466,4.012-8.022,6.235-4.752,4.133-8.5,9.376-13.533,13.156a57.848,57.848,0,0,1-10.545,5.868q-4.706,2.184-9.448,4.283c-1.695.75-3.6,1.5-5.347.887-1.656-.584-2.664-2.225-3.5-3.769a112.44,112.44,0,0,1-10.618-27.949c1.277-1.224,2.208-2.138,3.139-3.053a8.066,8.066,0,0,1,1.735-1.412c.531-.288,1.121-.452,1.668-.709a2.513,2.513,0,0,0,1.312-1.192c.675-2.445-.314-5.06-1.487-7.4a45.244,45.244,0,0,0-5.174-8.064,20.113,20.113,0,0,1-2.733.347,13.453,13.453,0,0,1-2.033-4.963,155.513,155.513,0,0,0,54.265-54.991C186.527,218.4,189.555,238.587,199.84,255.156ZM38.96,249.3c-1.422-3.237-.94-7,.11-10.375l-19.633-8.818c-6.1,6.483-10.65,14.609-12,23.41s.726,18.262,6.4,25.12c2.179,2.632,4.981,4.923,8.317,5.661,2.775.615,5.661.111,8.455-.413,7.362-1.381,14.771-2.92,21.6-6s13.119-7.844,16.759-14.391a52.135,52.135,0,0,1-23.119-7.375C43.046,254.422,40.282,252.311,38.96,249.3Z" style="fill: rgb(229, 69, 42);"/></g><g id="__id548_syj4yglxo9"><path d="M120.785,178.471c2.3,5,.97,11.07-2.02,15.69-2.659,4.1-6.44,7.31-10.29,10.34a127.328,127.328,0,0,1-7.89-66.89c2.581-16.87,8.6-33.54,7.06-50.53,1.51,2.35,3.06,4.66,4.62,6.94,1.93,2.81,3.99,5.71,7.031,7.24,2.959,1.49,6.289,1.42,9.58.68a30.357,30.357,0,0,0,3.189-.9,52.846,52.846,0,0,1-.81,10.53c-.319,1.89-.73,3.77-1.2,5.63-1.68,6.72-4.1,13.27-6.211,19.89a22.34,22.34,0,0,0-1.4,7.15,36.934,36.934,0,0,0,1.02,6.16,33.656,33.656,0,0,1-2.859,21.2,7.561,7.561,0,0,0-1.1,3.3A9.365,9.365,0,0,0,120.785,178.471Zm34.771-4.89c1.089,6.99-3.531,14.58-.38,20.91.839,1.7,2.18,3.11,2.94,4.84,3.38,7.66-5.651,17.19-1.32,24.35l16.89-21.99c.219-.29.44-.58.629-.89-9.819-20.12-17.04-41.36-23.55-62.82-.089.24-.159.49-.24.73-2.33,7.62-2.82,16.07.25,23.43C152.376,165.961,154.916,169.481,155.556,173.581ZM102.405,35.161a75.989,75.989,0,0,0,40.17,11.13,180.813,180.813,0,0,0-4.93-24.24,29.35,29.35,0,0,0-39.029,10.64l.1.07c-.109.09-.21.18-.31.27a28.148,28.148,0,0,0-1.8,3.55,35.251,35.251,0,0,0-2.48,15.29A123.03,123.03,0,0,0,102.405,35.161Zm16.963,36.69a2.375,2.375,0,1,0-2.375-2.375A2.375,2.375,0,0,0,119.368,71.851Zm-12,2.375a2.375,2.375,0,1,0-2.375-2.375A2.375,2.375,0,0,0,107.368,74.226Zm26.447-15.759a1,1,0,0,0-.86-1.122,52.673,52.673,0,0,0-18.487.837,1,1,0,0,0,.218,1.976.986.986,0,0,0,.221-.025,50.661,50.661,0,0,1,17.786-.8A1,1,0,0,0,133.815,58.467Zm-27,3.135a1,1,0,0,0-1.288-.582c-2.252.85-5.655,2.135-7.2,5.023a1,1,0,0,0,1.764.943c1.1-2.055,3.533-3.11,6.143-4.1A1,1,0,0,0,106.813,61.6Zm4.758,19.262c-.294,2.338.57,3.253,1.347,3.609a2.118,2.118,0,0,0,.888.2,3.293,3.293,0,0,0,2.67-1.843c.131-.241.248-.5.364-.751a3.23,3.23,0,0,1,.821-1.289,2.923,2.923,0,0,1,.439-.241,5.123,5.123,0,0,0,.711-.4,2,2,0,0,0,.846-2.3,1,1,0,0,0-1.91.579.454.454,0,0,1-.094.09,3.126,3.126,0,0,1-.433.237,3.918,3.918,0,0,0-2.2,2.494c-.1.215-.2.43-.3.633-.281.517-.769.868-.966.779-.136-.062-.332-.458-.2-1.542l.853-6.772a6.422,6.422,0,0,0,.03-2,6.5,6.5,0,0,0-2.287-3.4,1,1,0,1,0-1.364,1.462,4.8,4.8,0,0,1,1.684,2.3,4.74,4.74,0,0,1-.047,1.392Zm4.215,10.189a1.009,1.009,0,0,0,.2-.019,19.3,19.3,0,0,0,11.428-7.111,1,1,0,1,0-1.589-1.215,17.275,17.275,0,0,1-10.228,6.364,1,1,0,0,0,.193,1.981Zm-88.414,91.96a1.014,1.014,0,0,0,.123-.007,1,1,0,0,0,.871-1.115,8.791,8.791,0,0,1,2.147-6.844,1,1,0,0,0-1.49-1.334,10.82,10.82,0,0,0-2.642,8.422A1,1,0,0,0,27.372,183.013Zm6.047,1.9a.991.991,0,0,0,.491-.129,9.281,9.281,0,0,0,4.439-6.049,1,1,0,1,0-1.956-.418,7.25,7.25,0,0,1-3.468,4.726,1,1,0,0,0,.494,1.87Zm5.994-12.065,3.449-1.581c.071-.033.191-.087.179-.1a1.047,1.047,0,0,1,.337.277,7.352,7.352,0,0,1,1.3,1.866,1,1,0,0,0,.9.563,1,1,0,0,0,.9-1.437,9.3,9.3,0,0,0-1.652-2.375A2.43,2.43,0,0,0,43,169.173a2.514,2.514,0,0,0-.968.274l-3.449,1.582a1,1,0,0,0,.834,1.817Zm-5.594-5.4h.042a1,1,0,0,0,1-.958,2.5,2.5,0,0,1,.538-1.443,1,1,0,1,0-1.563-1.247,4.509,4.509,0,0,0-.973,2.606A1,1,0,0,0,33.819,167.445Zm6.6,2.568a.988.988,0,0,0,.511-.141,4.1,4.1,0,0,0,1.938-3.012,1,1,0,1,0-1.988-.22,2.058,2.058,0,0,1-.973,1.514,1,1,0,0,0,.512,1.859Zm9.909,8.018a.981.981,0,0,0,.152.011,1,1,0,0,0,.987-.85,4.753,4.753,0,0,1,.981-2.245,1,1,0,0,0-1.563-1.247,6.735,6.735,0,0,0-1.395,3.192A1,1,0,0,0,50.325,178.031ZM39.278,222.583a20.363,20.363,0,0,0,8.361,2.246q.363,0,.728-.022a1,1,0,1,0-.123-2c-2.9.18-5.735-.932-8.124-2.042a55.194,55.194,0,0,1-29.913-36.007,1,1,0,0,0-1.938.5A57.218,57.218,0,0,0,39.278,222.583Zm19.9-12.425a.973.973,0,0,0,.26-.034,101.626,101.626,0,0,0,21.488-8.485,1,1,0,1,0-.941-1.765,99.648,99.648,0,0,1-21.065,8.319,1,1,0,0,0,.258,1.965Zm43.5-2.9a1,1,0,0,0-.846,1.134A38.754,38.754,0,0,1,96.1,234.683a1,1,0,1,0,1.679,1.086,40.781,40.781,0,0,0,6.038-27.667A1,1,0,0,0,102.678,207.257Zm3.5,9.7a1,1,0,0,0-.809,1.161c1.285,7.176,2.613,14.6,1.553,21.884a1,1,0,0,0,.846,1.133.893.893,0,0,0,.145.011,1,1,0,0,0,.989-.857c1.106-7.608-.251-15.19-1.564-22.523A1,1,0,0,0,106.178,216.955ZM173.831,97.171c.308,4.516.538,9.13.761,13.592.739,14.852,1.5,30.209,5.289,44.852a1,1,0,0,0,.966.75.988.988,0,0,0,.251-.032,1,1,0,0,0,.718-1.218c-3.732-14.446-4.492-29.7-5.227-44.452-.223-4.47-.452-9.093-.762-13.628-1.242-18.194-4.026-39.135-15.255-56.51a1,1,0,0,0-1.68,1.086C169.874,58.6,172.606,79.232,173.831,97.171Zm32.676,89.1a239.485,239.485,0,0,1-16.1-47.874,1,1,0,1,0-1.953.433,241.537,241.537,0,0,0,16.233,48.275,1,1,0,0,0,.91.583.989.989,0,0,0,.416-.091A1,1,0,0,0,206.507,186.274ZM87.588,154.482a.889.889,0,0,0,.1-.006,1,1,0,0,0,.893-1.1c-1.139-11.1,2.274-22.1,5.762-31.384.907-2.414,1.876-4.86,2.812-7.227,3.029-7.65,6.16-15.561,7.791-23.792a1,1,0,0,0-1.962-.389c-1.6,8.053-4.693,15.878-7.688,23.445-.94,2.374-1.912,4.83-2.825,7.26-3.57,9.5-7.061,20.775-5.879,32.291A1,1,0,0,0,87.588,154.482Zm1.591,13.334a1,1,0,0,0-.57,1.294l2.777,7.14a1,1,0,0,0,1.864-.724l-2.777-7.14A1,1,0,0,0,89.179,167.816Zm36.363,88.076a1,1,0,1,0-1.738.988,93.944,93.944,0,0,1,12.114,41.478,3.711,3.711,0,0,1-.2,1.845.879.879,0,0,1-.481.4.273.273,0,0,1-.181,0,1.757,1.757,0,0,1-.405-.572,31.66,31.66,0,0,1-2.831-7.367,1,1,0,0,0-1.941.479,33.6,33.6,0,0,0,3.009,7.831,3.114,3.114,0,0,0,1.2,1.381,2.14,2.14,0,0,0,1.036.262,2.417,2.417,0,0,0,.677-.1,2.865,2.865,0,0,0,1.675-1.368,5.355,5.355,0,0,0,.439-2.9A95.941,95.941,0,0,0,125.542,255.892Zm49.711,4.142c-10.96-7.227-25.154-7.407-36.559-7.551h-.013a1,1,0,0,0-.012,2c11.143.14,25.012.316,35.482,7.221a1,1,0,1,0,1.1-1.67Zm-143.406-17.8a31.832,31.832,0,0,0-12,26.261c.166,3.328.9,5.739,2.3,7.587a1,1,0,1,0,1.592-1.211c-1.151-1.512-1.754-3.57-1.9-6.475a29.811,29.811,0,0,1,11.232-24.588,1,1,0,1,0-1.232-1.574Zm66.162,52.413c-10.727,5.258-20.927,10.72-27.827,19.685-8.3,10.782-10.3,24.922-11.126,36.036a1,1,0,0,0,.924,1.072l.074,0a1,1,0,0,0,1-.926c.8-10.837,2.744-24.605,10.716-34.965,6.637-8.624,16.617-13.96,27.122-19.11a1,1,0,1,0-.88-1.795Zm104.335,4.809a.988.988,0,0,0-1.094.9,74.64,74.64,0,0,1-23,46.577,1,1,0,0,0,1.365,1.461,76.663,76.663,0,0,0,23.624-47.841A1,1,0,0,0,202.344,299.455Zm-7.771,34.213a1,1,0,0,0-.988,1.012,60.6,60.6,0,0,1-4.148,22.634,1,1,0,1,0,1.862.73,62.621,62.621,0,0,0,4.286-23.387A.988.988,0,0,0,194.573,333.668ZM128.118,167.135a1,1,0,0,0,1.33-.482c5.314-11.352,11.135-22.647,17.3-33.571a1,1,0,0,0-1.742-.983c-6.19,10.968-12.034,22.308-17.37,33.706A1,1,0,0,0,128.118,167.135ZM60.51,265.084a1,1,0,0,0-1.377-.322,10.566,10.566,0,0,1-6.618,1.521,13.659,13.659,0,0,1-4.156-1.179,20.348,20.348,0,0,1-11.55-20.368,1,1,0,0,0-1.985-.243,22.12,22.12,0,0,0,12.724,22.439,15.668,15.668,0,0,0,4.762,1.341,12.544,12.544,0,0,0,7.876-1.812A1,1,0,0,0,60.51,265.084Z" style="fill: inherit;"/></g></svg>