<svg xmlns="http://www.w3.org/2000/svg" xmlns:xlink="http://www.w3.org/1999/xlink" preserveAspectRatio="xMidYMid meet" version="1.0" viewBox="-1.4 -0.5 360.8 367.2" zoomAndPan="magnify" style="fill: rgb(0, 0, 0);" original_string_length="12990" width="172.15314351381048px" height="175.01705902513078px"><g id="__id587_syj4yglxo9"><path d="M340.31,264.8A91.118,91.118,0,0,0,298.3,232.456a40.706,40.706,0,0,0-2.775-10.049v-.01a63.444,63.444,0,0,0,.17-9.25c-.74-19.18-4.33-38.11-7.91-56.97-1.617-8.51-3.316-17.195-6.2-25.334-.431-1.375-.887-2.743-1.4-4.1a47.862,47.862,0,0,0-8.94-15.39c-4.06-4.47-9.19-7.8-14.25-11.08q-1.016-.657-2.029-1.316c4.59-7.856,6.133-17.746,5.779-27.024-.18-4.68-.74-9.38-.36-14.05.74-8.95,4.93-17.46,4.79-26.44a34.579,34.579,0,0,0-1.13-7.95c-.3-1.22-.65-2.43-1.04-3.63a31.636,31.636,0,0,0-2.22-5.42,16.4,16.4,0,0,0-2.22-3.19,23.386,23.386,0,0,0-6.87-4.83c-8.3-4.24-17.58-6.89-26.88-6.36s-18.59,4.47-24.52,11.65a39.139,39.139,0,0,0-5.98,10.55c-.94,2.36-1.74,4.78-2.47,7.19-.14.44-.27.89-.39,1.34-4.94,16.53-7.99,33.9-16.71,48.78-2.5,4.278-5.51,8.469-7.367,13-6.545,4.2-13,9.358-16.653,16.544-2.25,4.44-3.29,9.4-5.31,13.96-1.86,4.2-4.55,8.09-5.54,12.57-1.16,5.24.15,10.7-.06,16.06-.24,5.85-2.26,11.45-3.62,17.14s-2.03,11.89.35,17.24c0,.01.01.02.01.03-.12,2.08-.16,4.18-.11,6.27.284,11.552,3.406,22.6,7.934,33.251-3.976,3.1-6.192,8.044-7.844,12.869a115.329,115.329,0,0,0-4.4,56.49,113.934,113.934,0,0,1-28.73,8.99c-10.34,1.78-20.91,2.14-31.13,4.47-12.82,2.92-24.71,8.87-36.47,14.77q-13.17,6.615-26.34,13.22c-4.99,2.5-10.86,6.92-9.16,12.24,1.14,3.57,5.2,5.18,8.83,6.15,38.45,10.34,79.2.88,118.98,2.63,30.41,1.34,60.69,9.28,90.95,5.96,11.02-1.21,21.84-3.91,32.88-4.9,19.52-1.76,39.26,1.84,58.74-.33s40.21-12.29,46.19-29.15A93.44,93.44,0,0,0,340.31,264.8Zm-192-146c.062-.3.126-.59.192-.888Q148.4,118.358,148.309,118.8Zm.271-1.242q.1-.454.215-.91Q148.684,117.1,148.58,117.557Zm6.18-11.133a8.228,8.228,0,0,1,.9-.476A8.228,8.228,0,0,0,154.76,106.424ZM293.3,230.8a9.329,9.329,0,0,0,.485-1.014A9.329,9.329,0,0,1,293.3,230.8ZM153.631,107.219a9.232,9.232,0,0,0-.682.63A9.02,9.02,0,0,1,153.631,107.219Zm.958-.7a8.458,8.458,0,0,0-.771.549A8.458,8.458,0,0,1,154.589,106.522Zm-3.148,3.25A19.325,19.325,0,0,0,149.5,114.1,19.26,19.26,0,0,1,151.441,109.772Zm1.345-1.754c-.216.231-.424.47-.62.721C152.362,108.488,152.57,108.249,152.786,108.018Zm-.734.873c-.2.269-.4.545-.582.833C151.653,109.435,151.849,109.16,152.052,108.891Zm-3.177,7.436q.12-.478.251-.953Q148.994,115.85,148.875,116.327Zm.317-1.181c.1-.346.2-.69.309-1.032C149.392,114.455,149.29,114.8,149.192,115.146Zm-.954,4c-.223,1.077-.425,2.124-.628,3.093C147.813,121.269,148.016,120.221,148.238,119.144Z" style="fill: rgb(255, 255, 255);"/></g><g id="__id588_syj4yglxo9"><path d="M260.74,71.937c.5,13.08-2.74,27.4-13.03,35.48-6.59,5.17-15.18,7.08-23.52,7.79a202.635,202.635,0,0,1-20.62.34,24.757,24.757,0,0,1-7.09-.81c-3.76-1.18-6.72-4.04-9.43-6.9l-21.36-8.68c.63-7.23,5.38-13.31,9.05-19.58,8.72-14.88,11.77-32.25,16.71-48.78.12-.45.25-.9.39-1.34.73-2.41,1.53-4.83,2.47-7.19a39.139,39.139,0,0,1,5.98-10.55c5.93-7.18,15.23-11.13,24.52-11.65s18.58,2.12,26.88,6.36a23.386,23.386,0,0,1,6.87,4.83,16.4,16.4,0,0,1,2.22,3.19,31.636,31.636,0,0,1,2.22,5.42c.39,1.2.74,2.41,1.04,3.63a34.579,34.579,0,0,1,1.13,7.95c.14,8.98-4.05,17.49-4.79,26.44C260,62.557,260.56,67.257,260.74,71.937Z" style="fill: rgb(255, 255, 255);"/></g><g id="__id589_syj4yglxo9"><path d="M356.87,329.047c-5.98,16.86-26.72,26.99-46.19,29.15s-39.22-1.43-58.74.33c-11.04.99-21.86,3.69-32.88,4.9-30.26,3.32-60.54-4.62-90.95-5.96-39.78-1.75-80.53,7.71-118.98-2.63-3.63-.97-7.69-2.58-8.83-6.15-1.7-5.32,4.17-9.74,9.16-12.24q13.17-6.615,26.34-13.22c11.76-5.9,23.65-11.85,36.47-14.77,10.22-2.33,20.79-2.69,31.13-4.47A113.934,113.934,0,0,0,132.13,295a115.329,115.329,0,0,1,4.4-56.49c1.652-4.825,3.868-9.765,7.844-12.869-4.528-10.646-7.65-21.7-7.934-33.251-.05-2.09-.01-4.19.11-6.27a168.929,168.929,0,0,1,2.52-19.23q3.87-22.4,8.54-44.65c1.177-5.6,2.255-13.724,8.054-16.289,5.595-7.852,13.791-14,22.176-19.031.78-.47,1.56-.93,2.36-1.38,1.27-.72,2.57-1.42,3.88-2.07a11.018,11.018,0,0,1,3.5,2.68c1.93,2.2,3.17,4.9,4.81,7.32a26.462,26.462,0,0,0,9.65,8.61c1.91.99,4.18,1.75,6.17.95s3.12-3,3.32-5.13a19.973,19.973,0,0,0-.88-6.35c-.95-3.89-1.71-7.84-2.27-11.81l22.02,3.3q4.245,2.76,8.49,5.5,9.045,5.88,18.1,11.74c5.06,3.28,10.19,6.61,14.25,11.08a47.862,47.862,0,0,1,8.94,15.39c.509,1.353.965,2.721,1.4,4.1,2.888,8.139,4.587,16.824,6.2,25.334,3.58,18.86,7.17,37.79,7.91,56.97a63.444,63.444,0,0,1-.17,9.25v.01a28.755,28.755,0,0,1-1.74,7.38,9.329,9.329,0,0,1-.485,1.014c17.962,5.183,35.275,17.539,47.015,34A93.44,93.44,0,0,1,356.87,329.047Z" style="fill: rgb(15, 63, 69);"/></g><g id="__id590_syj4yglxo9"><path d="M274.11,225.237a26.244,26.244,0,0,0,4.52,3.76,28.6,28.6,0,0,0-6.29-1.47c-4.54-.44-9.06.84-13.46,2.04a194.106,194.106,0,0,1-28.33,5.95,59.285,59.285,0,0,0,9.78-28.33c1.12-12.75-1.28-25.61-5.3-37.76-.7-2.08-1.8-4.48-3.97-4.83a6.134,6.134,0,0,0-3.72.99q-14.37,7.365-28.28,15.56a6.671,6.671,0,0,0-4.98.76,521.635,521.635,0,0,0-11.88-51.39c-1.75-6.12-3.7-12.37-7.59-17.42s-10.14-8.74-16.46-7.86c-8.02,1.12-9.21,10.67-10.54,17q-4.665,22.245-8.54,44.65a168.929,168.929,0,0,0-2.52,19.23c0-.01-.01-.02-.01-.03-2.38-5.35-1.71-11.54-.35-17.24s3.38-11.29,3.62-17.14c.21-5.36-1.1-10.82.06-16.06.99-4.48,3.68-8.37,5.54-12.57,2.02-4.56,3.06-9.52,5.31-13.96,4.45-8.75,13.05-14.5,20.91-19.16,4.95-.97,10.13.41,14.54,2.86s8.16,5.9,11.8,9.38a453.425,453.425,0,0,1,33.21,35.35c12.33,7.71,18.7,21.46,26.23,34.16a10.959,10.959,0,0,0-.37,4.53,107.167,107.167,0,0,0,7.96,34.01C267.26,215.677,270.02,221.007,274.11,225.237Zm21.41-2.83a28.755,28.755,0,0,1-1.74,7.38,4.811,4.811,0,0,1-1.48,2.2,4.585,4.585,0,0,1-2.66.59c-.2,0-.41-.01-.61-.02q4.8,1.65,9.58,3.29A39.585,39.585,0,0,0,295.52,222.407ZM264.04,23.5c-.3-1.22-.65-2.43-1.04-3.63a31.636,31.636,0,0,0-2.22-5.42c-.69-.29-1.4-.55-2.1-.81a62.561,62.561,0,0,0-19.41-3.96c-10.51-.29-20.8,2.8-30.7,6.31a79.987,79.987,0,0,0-14.26,6.28c-.94,2.36-1.74,4.78-2.47,7.19-.14.44-.27.89-.39,1.34,13.09-7.27,26.99-13.92,41.91-14.68A56.394,56.394,0,0,1,264.04,23.5Z" style="fill: rgb(229, 69, 42);"/></g><g id="__id591_syj4yglxo9"><path d="M220.5,100.417c-3-.93-5.4-3.15-7.68-5.3-1.31-1.24-2.62-2.47-4.21-4.15a145.183,145.183,0,0,1-.13-42.14q.615-4.08,1.48-8.06a22.916,22.916,0,0,1,8.75-14.7,30.5,30.5,0,0,1,16.21-6.05,22.138,22.138,0,0,1,12.42,2.08,12.192,12.192,0,0,1,5.84,6.72,21.859,21.859,0,0,1,1.22,7.63c0,.71,0,1.42-.01,2.13a160.349,160.349,0,0,1-2.72,28.41c-.88,4.67-2.18,9.68-5.89,12.65-4.6,3.68-11.55,2.92-16.57-.16-.95,2.27-1.9,4.56-3.23,7.04-.1.21-.22.42-.34.64a18.07,18.07,0,0,1,3.24,4.9,6.876,6.876,0,0,1-.09,5.72C227.29,100.537,223.5,101.337,220.5,100.417Zm44.116,55.339c.076-4.341.454-8.713-.2-13a54.552,54.552,0,0,0-3.547-11.5q-1.787-4.569-3.575-9.138c-.559-1.429-1.237-2.989-2.629-3.636a2.5,2.5,0,0,0-2.658.528,3.042,3.042,0,0,0-.384-.658,1.944,1.944,0,0,0-2.712-.476c-.114-1.025-1.247-2.4-2.391-2.149-1.246.271-1.692,1.8-1.828,3.065a2.236,2.236,0,0,0-2.324-.336,4.608,4.608,0,0,0-2.373,4.133,3.469,3.469,0,0,0-3.156,1.948,9.693,9.693,0,0,0-.765,3.035,64.972,64.972,0,0,0-.544,9.838c-1.308-.636-2.169.52-2.433,1.683a20.775,20.775,0,0,0-.159,3.568c-.163,3.235-1.975,6.265-1.857,9.5a11.038,11.038,0,0,0,1.143,4.253,15.018,15.018,0,0,1,1.432,3.46,5.332,5.332,0,0,1-2.069,5.2c-6.59,4.759-3.3,12.6-.1,17.139a1.572,1.572,0,0,0,1.057.8,1.633,1.633,0,0,0,1.093-.54l6.826-5.967a3.785,3.785,0,0,1,1.562-.967,5.417,5.417,0,0,1,1.209-.053,7.421,7.421,0,0,0,5.935-3.5,11.469,11.469,0,0,0,8.166,4.305c.816,8.945,7.38,17.1,12.49,11.82A93.283,93.283,0,0,1,264.616,155.756Z" style="fill: rgb(253, 169, 181);"/></g><g id="__id592_syj4yglxo9"><path d="M215.72,38.757a7.58,7.58,0,0,1,2.25-1.61c5.96-3.3,11.32-7.56,16.1-11.16a18.979,18.979,0,0,1,14.86,5.14,24.775,24.775,0,0,1,5.46,7.45,160.349,160.349,0,0,1-2.72,28.41c-.88,4.67-2.18,9.68-5.89,12.65-4.6,3.68-11.55,2.92-16.57-.16-.95,2.27-1.9,4.56-3.23,7.04q3.465,2.5,6.91,5.03a12.456,12.456,0,0,0,3.48,1.99c3.34,1.02,6.86-.95,9.44-3.29a24.521,24.521,0,0,0,7.46-11.77c1.23-4.67.79-9.59,1.12-14.41.45-6.5,2.32-12.84,2.72-19.35.35-5.56-.61-11.56-3.93-15.9a17.029,17.029,0,0,1,.615,2.056A12.575,12.575,0,0,0,247.34,22.1a22.138,22.138,0,0,0-12.42-2.08,30.5,30.5,0,0,0-16.21,6.05,22.916,22.916,0,0,0-8.75,14.7q-.87,3.975-1.48,8.06a35.527,35.527,0,0,0,6.35-8.61A8.023,8.023,0,0,1,215.72,38.757Zm38.635-3.789c.025.478.043.967.045,1.479C254.4,35.937,254.381,35.445,254.355,34.968Zm-.008-.14a23.263,23.263,0,0,0-.539-3.9A22.928,22.928,0,0,1,254.347,34.828Zm-18.911-.571a1,1,0,0,1-.519,1.316,29.515,29.515,0,0,1-10.874,2.407h-.026a1,1,0,0,1-.027-2,27.509,27.509,0,0,0,10.13-2.243A1,1,0,0,1,235.436,34.257Zm17.815,3.506a1,1,0,0,1-1.162.807,24.035,24.035,0,0,1-6.279-2.053,1,1,0,0,1,.877-1.8,22.026,22.026,0,0,0,5.757,1.882A1,1,0,0,1,253.251,37.763Zm-16.4,9.574a1,1,0,0,1-1.241.679,11.279,11.279,0,0,0-7.408.424.99.99,0,0,1-.388.079,1,1,0,0,1-.389-1.921,13.1,13.1,0,0,1,8.746-.5A1,1,0,0,1,236.852,47.337Zm16.3.616a1,1,0,0,1-1.239.682,12.857,12.857,0,0,0-4.617-.466,1,1,0,1,1-.162-1.993,14.77,14.77,0,0,1,5.336.538A1,1,0,0,1,253.154,47.953ZM245.813,50.9a3.143,3.143,0,0,1,1.255,1.71,3.035,3.035,0,0,1-.681,2.315l-.74,1.087a1,1,0,0,1-1.653-1.127l.74-1.085c.1-.151.414-.608.378-.773-.028-.131-.33-.382-.53-.549a14.32,14.32,0,0,1-2.482-2.654,1,1,0,1,1,1.623-1.168A12.22,12.22,0,0,0,245.813,50.9Zm-8.624,11.572a16.531,16.531,0,0,0,4.95.635,1,1,0,0,1-.012,2h-.012a18.311,18.311,0,0,1-5.549-.734,8.424,8.424,0,0,1-4.716-3.557,1,1,0,0,1,1.722-1.017A6.437,6.437,0,0,0,237.189,62.474Zm-10.954,87.47a1,1,0,0,1-1.378.31c-18.411-11.641-32.425-28.563-45.98-44.927a1,1,0,0,1,1.541-1.276c13.454,16.244,27.366,33.041,45.507,44.513A1,1,0,0,1,226.235,149.944Zm-31.947-9.526a1,1,0,0,1,1.418-1.411,142.432,142.432,0,0,1,17.552,21.462,1,1,0,1,1-1.664,1.109A140.4,140.4,0,0,0,194.288,140.418Zm70.748-10.1a56.5,56.5,0,0,1,4.54-16.3,1,1,0,0,1,1.825.818,54.5,54.5,0,0,0-4.38,15.721,1,1,0,0,1-.992.879c-.04,0-.081,0-.122-.007A1,1,0,0,1,265.036,130.316Zm-70.953,55.425a1,1,0,0,1-1.2.752c-1.911-.436-3.908.8-5.794,2.1-5.753,3.979-12.912,8.93-15.974,16.117a1,1,0,1,1-1.84-.783c3.289-7.721,10.711-12.853,16.677-16.978,2.152-1.489,4.672-3.033,7.376-2.409A1,1,0,0,1,194.083,185.741Zm-27.708,6.39a1,1,0,0,1,.065-1.413,30.084,30.084,0,0,1,18.7-7.7,1.015,1.015,0,0,1,1.041.957,1,1,0,0,1-.957,1.041,28.048,28.048,0,0,0-17.434,7.182,1,1,0,0,1-1.413-.066ZM297.256,300.412a1,1,0,0,1-1.336-.465c-4.93-10.2-14.619-18.851-27.285-24.371-11.966-5.217-25.185-7.26-36.636-8.767a1,1,0,1,1,.262-1.982c11.586,1.523,24.969,3.6,37.173,8.915,13.1,5.711,23.149,14.709,28.287,25.334A1,1,0,0,1,297.256,300.412ZM284.919,247a1,1,0,0,1,1.94-.484l5.876,23.5a1,1,0,0,1-.728,1.212,1.017,1.017,0,0,1-.243.03,1,1,0,0,1-.969-.758Zm-117.4,88.91a1,1,0,0,1-1.361.384,71.3,71.3,0,0,1-27.475-27.8,1,1,0,1,1,1.757-.955,69.271,69.271,0,0,0,26.694,27.012A1,1,0,0,1,167.517,335.907ZM272.641,153.346a10.978,10.978,0,0,1,6.4-3.826,1,1,0,1,1,.373,1.965,8.973,8.973,0,0,0-4.949,2.8,26.392,26.392,0,0,1,7.506,6.514,1,1,0,0,1-1.557,1.258,22.743,22.743,0,0,0-14.069-8.617,1,1,0,1,1,.373-1.964A25.632,25.632,0,0,1,272.641,153.346Zm-40.8,46.177a152.311,152.311,0,0,1-4.365-31.876,1,1,0,0,1,.969-1.03,1.013,1.013,0,0,1,1.031.969,150.259,150.259,0,0,0,4.306,31.457c.467,1.887,1.077,3.735,2.341,4.675a2.659,2.659,0,0,0,.725-1.148,1,1,0,0,1,1.91.592,4.685,4.685,0,0,1-2.074,2.619,1.008,1.008,0,0,1-.949.035C233.4,204.663,232.485,202.111,231.845,199.523Zm44.441,13.063a17.334,17.334,0,0,0-.2-5.686l-7.2-50.092a1,1,0,0,1,1.98-.285l7.2,50.092a19.126,19.126,0,0,1,.18,6.353,7.135,7.135,0,0,1-4.067,5.4,1,1,0,0,1-.8-.031,3.084,3.084,0,0,1-1.7-2.533,1,1,0,0,1,.933-1.063,1.015,1.015,0,0,1,1.063.932,1.06,1.06,0,0,0,.253.6A5.5,5.5,0,0,0,276.286,212.586Zm-52.413,29.882a1,1,0,0,1-.1,1.41c-10.23,8.836-20.376,13.31-30.176,13.31-.375,0-.748-.006-1.122-.02-8.055-.282-15.595-3.728-21.264-6.7-11.714-6.138-19.427-12.641-24.275-20.465a1,1,0,1,1,1.7-1.052c4.651,7.506,12.12,13.781,23.5,19.746,5.481,2.872,12.754,6.2,20.406,6.471,9.468.339,19.837-4.095,29.921-12.8A1,1,0,0,1,223.873,242.468Zm31.112-112.857,2.756,10.411a7.224,7.224,0,0,1-.5,6.321l-.191.412a22.7,22.7,0,0,0,.379,19.289,1,1,0,0,1-.44,1.344.988.988,0,0,1-.451.108,1,1,0,0,1-.892-.547,24.415,24.415,0,0,1-.414-21.027l.2-.428a5.367,5.367,0,0,0,.377-4.961l-2.756-10.41a1,1,0,1,1,1.933-.512Zm-3.746.869a54.636,54.636,0,0,0-.591,8.965c.073,1.6.3,3.246.513,4.834.226,1.658.46,3.373.533,5.095.216,5.078-.942,10.022-2.062,14.8a1,1,0,0,1-1.947-.455c1.089-4.651,2.216-9.46,2.011-14.264-.069-1.629-.3-3.3-.516-4.91-.223-1.632-.453-3.319-.53-5.013a55.973,55.973,0,0,1,.6-9.3,60.766,60.766,0,0,0,.618-8.105,1,1,0,0,1,.986-1.014h.014a1,1,0,0,1,1,.985A62.283,62.283,0,0,1,251.239,130.48Zm-7.249,4.566a59.579,59.579,0,0,1,2.529-13.868,1,1,0,1,1,1.912.588,57.6,57.6,0,0,0-2.445,13.4,1,1,0,0,1-1,.938c-.02,0-.042,0-.062,0A1,1,0,0,1,243.99,135.046Zm.074-12.243a34.242,34.242,0,0,0-1.659,12.267,1,1,0,0,1-.952,1.046h-.048a1,1,0,0,1-1-.954,36.229,36.229,0,0,1,1.756-12.981,1,1,0,1,1,1.9.621Zm-3.814,2.816a25.292,25.292,0,0,0-1.019,10.739,1,1,0,0,1-.871,1.114c-.041,0-.083.007-.123.007a1,1,0,0,1-.991-.879,27.3,27.3,0,0,1,1.1-11.593,1,1,0,1,1,1.9.612Z" style="fill: inherit;"/></g></svg>