<svg xmlns="http://www.w3.org/2000/svg" xmlns:xlink="http://www.w3.org/1999/xlink" preserveAspectRatio="xMidYMid meet" version="1.0" viewBox="0.0 0.0 369.4 500.0" zoomAndPan="magnify" style="fill: rgb(0, 0, 0);" original_string_length="14421" width="147.05334181651227px" height="199.21019211596496px"><defs><clipPath id="__id593_syj4yglxo9"><path d="M 0 26 L 369.398438 26 L 369.398438 500 L 0 500 Z M 0 26"/></clipPath></defs><g><g id="__id594_syj4yglxo9"><path d="M 21.300781 377 L 21.300781 341.898438 M 21.300781 341.898438 L 21.300781 139 C 21.300781 101.800781 35.898438 67.898438 59.800781 43 C 85.101562 16.5 120.800781 0 160.300781 0 L 211 0 C 287.800781 0 350 62.199219 350 139 L 350 457.800781 L 21.300781 457.800781 L 21.300781 377" style="fill: rgb(0, 0, 0);"/></g><g id="__id595_syj4yglxo9"><path d="M 319.101562 167 L 319.101562 190 M 319.101562 190 L 319.101562 434 L 52.199219 434 L 52.199219 146.898438 C 52.199219 143.800781 52.300781 140.699219 52.601562 137.601562 C 53 132.300781 53.800781 127.199219 54.898438 122.199219 C 66.199219 70 112.699219 30.898438 168.300781 30.898438 L 203.101562 30.898438 C 258.699219 30.898438 305.101562 70 316.5 122.199219 C 317.601562 127.199219 318.398438 132.398438 318.800781 137.601562 C 318.800781 138 318.898438 138.398438 318.898438 138.800781 C 319 141.5 319.101562 144.199219 319.101562 146.898438 L 319.101562 167" style="fill: rgb(69, 98, 166);"/></g><g id="__id596_syj4yglxo9"><path d="M 297 265.5 L 52.199219 265.5 L 52.199219 146.898438 C 52.199219 143.800781 52.300781 140.699219 52.601562 137.601562 C 53 132.300781 53.800781 127.199219 54.898438 122.199219 C 66.199219 70 112.699219 30.898438 168.300781 30.898438 L 203.101562 30.898438 C 258.699219 30.898438 305.101562 70 316.5 122.199219 C 317.601562 127.199219 318.398438 132.398438 318.800781 137.601562 C 318.800781 138 318.898438 138.398438 318.898438 138.800781 C 319 141.5 319.101562 144.199219 319.101562 146.898438 L 319.101562 265.5 M 319.101562 265.5 L 297 265.5" style="fill: rgb(88, 133, 198);"/></g><g id="__id597_syj4yglxo9"><path d="M 52 370 C 52 359.300781 52 348.601562 52 337.898438 M 52 337.898438 C 52 291 52 244.199219 52 197.300781 C 62.300781 218.800781 76.300781 255.101562 78.699219 302 C 79.398438 315.300781 79 327.898438 77.898438 339.699219 C 84.398438 328.101562 92.398438 316.199219 102.5 304.800781 C 158.199219 241.601562 233.300781 236.601562 247.199219 236 C 240.5 261 221.800781 317 170 366.601562 C 154.898438 381 139.5 392.5 124.699219 401.800781 C 147.699219 395.898438 174.898438 392.699219 205.101562 396.101562 C 253.101562 401.601562 288 421.601562 306.199219 434 C 221.5 434 136.699219 434 52 434 C 52 412.699219 52 391.300781 52 370" style="fill: rgb(15, 63, 69);"/></g><g id="__id598_syj4yglxo9"><path d="M 54.800781 351.699219 C 63.199219 346 69.199219 334.199219 73.601562 325.300781 C 74.199219 324.101562 72.5 323.199219 71.898438 324.300781 C 68.898438 329.199219 65.601562 334 62 338.398438 C 59 342.101562 55.199219 345.398438 52.601562 349.5 C 51.898438 350.898438 53.5 352.601562 54.800781 351.699219 Z M 54.898438 310.601562 C 62.398438 304.101562 67.101562 292.601562 71.101562 283.699219 C 71.601562 282.5 70 281.5 69.300781 282.699219 C 66.898438 287.300781 64.199219 291.699219 61.398438 296.101562 C 58.601562 300.398438 54.898438 304.398438 52.699219 308.898438 C 52 310.300781 53.699219 311.601562 54.898438 310.601562 Z M 54.699219 245 C 56.5 243.5 57.601562 241.101562 58.800781 239.101562 C 60.101562 236.898438 61.300781 234.601562 62.5 232.199219 C 63.199219 230.800781 61.199219 229.601562 60.398438 231 C 59.199219 233.300781 57.898438 235.5 56.5 237.699219 C 55.199219 239.699219 53.5 241.601562 52.699219 243.800781 C 52.199219 245.101562 53.800781 245.699219 54.699219 245 Z M 254.300781 414 C 246.300781 418 239.300781 424.101562 235 432 C 233.898438 434.101562 237 435.898438 238.199219 433.800781 C 242.300781 426.199219 247.699219 419.800781 255.199219 415.398438 C 256.101562 414.898438 255.300781 413.5 254.300781 414 Z M 209.398438 404.601562 C 201.398438 412.699219 193.601562 421 186.800781 430.101562 C 185.398438 432 188.699219 434.601562 190.101562 432.699219 C 197 423.800781 203.800781 414.898438 211.300781 406.5 C 212.398438 405.199219 210.601562 403.300781 209.398438 404.601562 Z M 162.398438 402.898438 C 153.300781 409.800781 143.699219 418.199219 138.398438 428.398438 C 137.601562 429.898438 139.699219 431.898438 140.898438 430.398438 C 148.199219 421.300781 154.601562 412.199219 163.800781 404.800781 C 164.898438 404 163.5 402.101562 162.398438 402.898438 Z M 181.300781 350.800781 C 158.800781 357.601562 135.601562 362.398438 112.199219 364.300781 C 95.300781 384.699219 79.300781 405.800781 64 427.5 C 84 422.601562 103.300781 414.5 120.398438 403.101562 C 121.398438 402.398438 122.300781 404 121.300781 404.699219 C 102.601562 418.300781 82.300781 427.898438 59.800781 433 C 59.398438 433.199219 58.898438 433.300781 58.5 433.300781 C 58.199219 433.398438 58 433.398438 57.699219 433.5 C 56.898438 433.699219 56.300781 433.5 55.800781 433.101562 C 54.5 433.398438 53 432.800781 53 431 C 54.5 401.601562 59.300781 371.800781 72.101562 345.199219 C 72.699219 343.898438 74.699219 345 74.101562 346.398438 C 62.699219 372.101562 61.300781 400.101562 58.101562 427.601562 C 74.199219 403.699219 91.898438 380.699219 110.601562 358.699219 C 110.398438 358.398438 110.300781 358 110.300781 357.601562 C 110.199219 334.199219 114.699219 311.398438 122.699219 289.398438 C 123.300781 287.800781 125.699219 288.5 125.199219 290.101562 C 118.101562 310.601562 114.800781 332.101562 114.699219 353.800781 C 123.300781 343.898438 132.199219 334.101562 141.199219 324.699219 C 144.5 321.300781 147.800781 317.800781 151.101562 314.398438 C 151.199219 314.101562 151.300781 313.800781 151.5 313.601562 C 152.5 309.898438 152.101562 305.300781 152.699219 301.601562 C 153.300781 297.5 154.199219 293.5 155.300781 289.5 C 157.601562 281.398438 160.898438 273.699219 164.800781 266.300781 C 165.5 264.898438 167.5 266.101562 166.800781 267.5 C 162.898438 276.101562 160.101562 285 158.199219 294.199219 C 157.199219 299.199219 156.5 304.199219 156.101562 309.300781 C 182.199219 282.5 210.601562 256.199219 243.398438 238.800781 C 244.699219 238.101562 245.800781 240 244.5 240.800781 C 212.199219 259.199219 184.101562 285.898438 158.199219 313.101562 C 172.699219 310.601562 187.101562 308.300781 201.199219 304 C 202.199219 303.699219 202.601562 305.199219 201.601562 305.601562 C 186.300781 310.800781 170.5 315.5 154.398438 317.101562 C 150.898438 320.699219 147.5 324.398438 144.101562 328 C 134.398438 338.398438 125.101562 349 115.898438 359.800781 C 137.699219 357.898438 159.199219 354.601562 180.5 349.199219 C 182 348.601562 182.5 350.5 181.300781 350.800781" style="fill: rgb(69, 98, 166);"/></g><g id="__id599_syj4yglxo9"><path d="M 281.5 88.699219 C 283.800781 94.199219 285.101562 100.300781 285.101562 106.699219 C 285.101562 132.300781 264.300781 153 238.800781 153 C 213.300781 153 192.5 132.199219 192.5 106.699219 C 192.5 81.199219 213.300781 60.398438 238.800781 60.398438 C 252.300781 60.398438 264.5 66.199219 273 75.5 M 273 75.5 C 276.5 79.300781 279.398438 83.800781 281.398438 88.699219" style="fill: rgb(227, 139, 58);"/></g><g clip-path="url(#__id593_syj4yglxo9)" id="__id600_syj4yglxo9"><path d="M 310.300781 168.398438 C 310.300781 171 310 173.699219 310.601562 176.300781 C 310.898438 177.5 312.800781 177.5 313.101562 176.300781 C 313.699219 173.800781 313.398438 171 313.398438 168.398438 C 313.300781 166.5 310.398438 166.5 310.300781 168.398438 Z M 314.398438 150.5 C 315 148.800781 314.898438 147.199219 314.398438 145.5 C 313.898438 143.601562 311 144.5 311.5 146.300781 C 311.898438 147.699219 312.101562 149.101562 312.300781 150.5 C 312.601562 151.601562 314.101562 151.398438 314.398438 150.5 Z M 303.898438 154.898438 C 303.398438 156.898438 303.300781 158.800781 303.699219 160.898438 C 304 162.601562 306.601562 162.101562 306.601562 160.5 C 306.601562 158.898438 306.699219 157.300781 307.101562 155.800781 C 307.601562 153.699219 304.398438 152.898438 303.898438 154.898438 Z M 233.101562 221.699219 C 233.5 220 233.5 218.398438 233.5 216.601562 C 233.5 214.699219 230.5 214.699219 230.5 216.601562 C 230.5 218.300781 230.398438 220 230.898438 221.699219 C 231.101562 222.800781 232.800781 222.800781 233.101562 221.699219 Z M 240.300781 207.5 C 240.800781 205.898438 240.800781 204.101562 240.898438 202.398438 C 241.101562 200.5 238 200.5 237.898438 202.398438 C 237.800781 204.101562 237.5 205.800781 237.800781 207.5 C 238 208.898438 240 208.601562 240.300781 207.5 Z M 249.800781 215.800781 C 250.398438 215 250.300781 214 250.300781 213.101562 C 250.300781 212.199219 250.300781 211.300781 250.300781 210.398438 C 250.300781 208.300781 247 208.300781 247 210.398438 C 247 211.300781 247 212.199219 247 213.101562 C 247 214 246.898438 215 247.5 215.800781 C 248 216.699219 249.101562 216.699219 249.800781 215.800781 Z M 77.199219 178.5 C 77.601562 179.199219 78.699219 179.199219 79.101562 178.5 C 79.898438 177.101562 79.699219 175.199219 79.699219 173.601562 C 79.699219 171.601562 76.5 171.601562 76.601562 173.601562 C 76.601562 175.199219 76.398438 177 77.199219 178.5 Z M 79.398438 156.898438 C 79.699219 155.199219 79.5 153.5 79.5 151.800781 C 79.5 150 76.800781 150 76.800781 151.800781 C 76.800781 153.5 76.601562 155.199219 76.898438 156.898438 C 77.101562 158.199219 79.199219 158.199219 79.398438 156.898438 Z M 72.101562 166.800781 C 72.199219 165.101562 72.101562 163.398438 72.101562 161.699219 C 72.101562 159.300781 68.398438 159.300781 68.398438 161.699219 C 68.398438 163.398438 68.300781 165.101562 68.398438 166.800781 C 68.5 169.199219 72 169.199219 72.101562 166.800781 Z M 127.800781 122.199219 L 254.699219 122.199219 C 250.5 110 242.699219 99.101562 230.601562 93.699219 C 218 88 202.800781 89 189.300781 88.898438 C 176.300781 88.800781 161.699219 87.699219 149.398438 93 C 137.300781 98.199219 130.5 109.800781 127.800781 122.199219 Z M 273 137.601562 L 216.699219 137.601562 C 217.800781 177.800781 219 218.199219 218.398438 258.398438 L 267.800781 258.398438 C 269 218.101562 271.101562 177.898438 273 137.601562 Z M 160.898438 258.398438 L 212.699219 258.398438 C 211.898438 218.199219 212.699219 177.800781 213.601562 137.601562 L 160 137.601562 C 160.5 158.800781 160.898438 180 161 201.199219 C 161 220.199219 161.5 239.398438 160.898438 258.398438 Z M 101.300781 258.398438 L 155.199219 258.398438 C 155.101562 239.300781 155.898438 220.199219 156.199219 201.199219 C 156.5 180 156.800781 158.800781 157.199219 137.601562 L 105.601562 137.601562 C 104.5 159 103.5 180.300781 102.601562 201.699219 C 102.199219 212.300781 101.800781 222.898438 101.5 233.601562 C 101.300781 241.800781 101.699219 250.199219 101.300781 258.398438 Z M 102.601562 137.601562 L 47.800781 137.601562 C 48.199219 132.300781 49 127.199219 50.199219 122.199219 L 125.199219 122.199219 C 127 113.101562 131 104.199219 137.398438 97.601562 C 128.699219 90.101562 120.398438 82.398438 112.300781 74.199219 C 104.800781 66.699219 96.300781 59.199219 90.101562 50.601562 C 88.800781 48.800781 91.5 47.101562 93 48.398438 C 101.300781 55.5 108.300781 64.699219 115.800781 72.601562 C 123.398438 80.601562 130.898438 88.601562 138.398438 96.601562 C 140.800781 94.300781 143.601562 92.300781 146.601562 90.800781 C 158.398438 84.800781 172.699219 85.199219 185.800781 85.398438 C 187.699219 66.300781 189.101562 47 190 27.800781 C 190.101562 26 192.800781 26 192.800781 27.800781 C 193 47.101562 192.199219 66.199219 190.398438 85.398438 C 205.101562 85.398438 221.300781 84.699219 234.800781 91.5 C 234.800781 91.5 234.898438 91.5 234.898438 91.601562 C 240.300781 83.699219 246.5 76.398438 252.699219 69.101562 C 259.5 61.199219 266.300781 52.699219 274.300781 45.898438 C 276.199219 44.300781 278.398438 46.699219 276.898438 48.5 C 270.699219 56.398438 263.300781 63.5 256.5 71.101562 C 250.101562 78.300781 243.898438 85.800781 237.300781 92.898438 C 248.101562 99.300781 255.300781 110.398438 259 122.300781 L 322.101562 122.300781 C 323.199219 127.300781 324 132.5 324.5 137.699219 L 275.898438 137.699219 C 275.101562 178 274.601562 218.199219 273.199219 258.5 L 324.601562 258.5 L 324.601562 273.898438 L 49.199219 273.898438 L 49.199219 258.5 L 95.5 258.5 C 95.398438 250.199219 96.101562 241.800781 96.398438 233.601562 C 96.800781 223 97.199219 212.398438 97.699219 201.699219 C 98.800781 180.300781 100.398438 159 102.601562 137.601562 Z M 369.398438 498.601562 C 246.300781 499.101562 123.101562 499.5 0 500 C 0.898438 485 1.800781 470 2.699219 455.101562 L 368.601562 455.101562 C 368.898438 469.601562 369.101562 484.101562 369.398438 498.601562" style="fill: rgb(0, 0, 0);"/></g><g id="__id601_syj4yglxo9"><path d="M 85.199219 41.800781 C 80.800781 45.101562 76.601562 48.800781 72.699219 52.800781 C 71 54.601562 73.800781 57.300781 75.398438 55.5 C 78.898438 51.300781 82.699219 47.5 86.800781 43.898438 C 87.800781 42.898438 86.398438 40.898438 85.199219 41.800781 Z M 94.5 25.898438 C 85.199219 27.800781 78.300781 34.800781 71.898438 41.398438 C 64.898438 48.5 56.5 57.398438 52.398438 66.699219 C 51.699219 68.300781 53.800781 70.5 55.101562 68.800781 C 61 61.5 65.398438 53.199219 71.5 46 C 77.601562 38.800781 85.5 29.398438 94.5 25.898438 C 94.601562 26 94.601562 25.898438 94.5 25.898438 Z M 338.601562 328.101562 C 338.898438 332.199219 338.699219 336.601562 339.601562 340.699219 C 340 342.601562 342.898438 342.101562 342.898438 340.199219 C 343 336.199219 341.898438 332 341.398438 328.101562 C 341.199219 326.300781 338.5 326.199219 338.601562 328.101562 Z M 331.300781 316.398438 C 330.601562 329.199219 329.699219 342.300781 331.800781 355 C 332.199219 357.5 336.398438 356.898438 336.199219 354.398438 C 335.398438 341.699219 333.5 329.199219 333.898438 316.398438 C 334 314.800781 331.398438 314.800781 331.300781 316.398438 Z M 366.800781 467.800781 C 272.800781 467.601562 178.800781 467.398438 84.898438 467.199219 C 58.300781 467.101562 31.601562 467.101562 5 467 C 3.199219 467 3.199219 469.800781 5 469.800781 C 99 470 193 470.199219 286.898438 470.398438 C 313.5 470.5 340.199219 470.5 366.800781 470.601562 C 368.601562 470.601562 368.601562 467.800781 366.800781 467.800781 Z M 364 455.101562 C 365.800781 455.101562 365.800781 457.898438 364 457.898438 C 337.398438 457.800781 310.699219 457.800781 284.101562 457.699219 C 190.101562 457.5 96.101562 457.300781 2.199219 457.101562 C 0.398438 457.101562 0.398438 454.300781 2.199219 454.300781 C 28.800781 454.398438 55.5 454.398438 82.101562 454.5 C 176 454.699219 270 454.898438 364 455.101562" style="fill: rgb(69, 98, 166);"/></g></g></svg>